<svg width="234" height="313" viewBox="0 0 234 313" fill="none" xmlns="http://www.w3.org/2000/svg">
<mask id="mask0" mask-type="alpha" maskUnits="userSpaceOnUse" x="0" y="0" width="234" height="313">
<rect width="234" height="313" fill="#C4C4C4"/>
</mask>
<g mask="url(#mask0)">
<path d="M222.866 106.464C216.235 44.1346 144.788 15.8229 102.852 41.3955C101.574 42.1797 100.293 42.5172 98.6901 40.6864C99.3832 38.3256 99.9034 35.4905 101.03 32.9447C104.977 23.9804 102.468 19.3863 92.609 17.2722C81.4878 14.8992 70.581 11.3404 59.7744 7.7441C53.257 5.56317 50.1101 7.09206 48.1479 13.852C25.6948 90.7878 3.11848 167.688 -19.622 244.539C-21.5229 250.938 -19.5258 253.553 -13.4567 255.134C-2.76759 257.916 7.74676 261.292 18.3455 264.382C31.7711 268.323 31.8182 268.315 35.7416 254.951C42.8436 230.836 49.9106 206.688 57.426 181.089C59.3566 183.551 60.4461 184.473 60.9284 185.641C77.304 224.497 147.644 242.226 185.731 207.586C215.717 180.334 227.034 145.66 222.866 106.464ZM138.254 191.195C99.0564 197.949 66.7853 163.412 74.5958 124.276C79.9795 97.2036 79.9409 97.2592 106.283 105.662C116.111 108.792 126.06 111.512 135.955 114.417C135.834 114.828 165.946 123.378 181.049 127.455C187.742 129.264 189.013 133.517 186.928 140.241C179.148 165.45 166.324 186.347 138.254 191.195Z" fill="white"/>
</g>
</svg>
