<svg width="476" height="461" viewBox="0 0 476 461" fill="none" xmlns="http://www.w3.org/2000/svg">
<g filter="url(#filter0_d)">
<path d="M95.7792 196.114C87.7375 156.227 110.916 116.658 149.641 104.166L238.218 75.5926C269.807 65.4028 304.406 75.7767 325.177 101.665L369.986 157.514C391.977 184.923 393.507 223.474 373.757 252.54L341.459 300.074C326.566 321.992 301.787 335.113 275.289 335.113L189.284 335.113C151.196 335.113 118.389 308.26 110.862 270.924L95.7792 196.114Z" fill="white"/>
</g>
<path d="M105.491 207.802C97.4496 167.915 120.629 128.346 159.353 115.855L227.864 93.7544C259.452 83.5646 294.051 93.9385 314.822 119.827L348.465 161.759C370.456 189.168 371.986 227.719 352.237 256.784L328.515 291.696C313.622 313.614 288.843 326.735 262.345 326.735L194.95 326.735C156.862 326.735 124.056 299.882 116.528 262.545L105.491 207.802Z" fill="url(#paint0_linear)"/>
<defs>
<filter id="filter0_d" x="0.683228" y="0.00170898" width="475.259" height="460.079" filterUnits="userSpaceOnUse" color-interpolation-filters="sRGB">
<feFlood flood-opacity="0" result="BackgroundImageFix"/>
<feColorMatrix in="SourceAlpha" type="matrix" values="0 0 0 0 0 0 0 0 0 0 0 0 0 0 0 0 0 0 127 0" result="hardAlpha"/>
<feOffset dy="24"/>
<feGaussianBlur stdDeviation="32"/>
<feColorMatrix type="matrix" values="0 0 0 0 0 0 0 0 0 0 0 0 0 0 0 0 0 0 0.1 0"/>
<feBlend mode="normal" in2="BackgroundImageFix" result="effect1_dropShadow"/>
<feBlend mode="normal" in="SourceGraphic" in2="effect1_dropShadow" result="shape"/>
</filter>
<linearGradient id="paint0_linear" x1="407.61" y1="103.948" x2="112" y2="40.9702" gradientUnits="userSpaceOnUse">
<stop stop-color="#16D1C6"/>
<stop offset="0.925" stop-color="#0E5D89"/>
</linearGradient>
</defs>
</svg>
