<svg width="374" height="382" viewBox="0 0 374 382" fill="none" xmlns="http://www.w3.org/2000/svg">
<path opacity="0.1" d="M215.355 0.0325185C266.066 0.931583 344.527 20.2758 367.115 69.9876C375.002 87.3495 374.467 112.874 373.4 163.923C373.086 178.93 372.565 200.797 368.912 227.932C361.319 284.301 356.15 322.674 336.586 345.018C287.564 401.007 110.487 399.389 34.869 298.593C-6.38092 243.612 -12.726 165.388 24.991 100.745C66.5128 29.5734 147.464 -1.16942 215.355 0.0325185Z" fill="url(#paint0_linear)"/>
<path opacity="0.7" d="M57.6334 287.763C74.9322 292.076 106.236 253.533 99.7767 228.639C97.6513 220.454 92.7259 218.71 90.8221 208.122C87.8766 191.741 97.5969 184.383 97.4854 171.893C97.2569 146.773 57.3995 119.505 42.7661 127.827C31.7771 134.081 30.919 162.74 39.9254 182.696C46.7478 197.813 57.0269 203.047 55.8452 215.294C54.8321 225.789 46.7627 227.381 42.4955 238.828C35.601 257.322 44.9392 284.6 57.6334 287.763Z" fill="url(#paint1_linear)"/>
<g style="mix-blend-mode:soft-light" opacity="0.5">
<path d="M58.2046 281.284C58.0604 281.254 57.9225 281.199 57.7966 281.122C57.5054 280.944 57.2967 280.657 57.2164 280.324C57.1361 279.992 57.1907 279.641 57.3683 279.348C101.06 207.419 68.8835 162.954 68.5463 162.526C68.4415 162.393 68.3638 162.24 68.3178 162.077C68.2718 161.914 68.2582 161.743 68.278 161.574C68.2978 161.406 68.3504 161.243 68.433 161.094C68.5155 160.946 68.6263 160.816 68.7591 160.711C68.8919 160.606 69.044 160.528 69.2068 160.482C69.3696 160.435 69.5398 160.422 69.7078 160.442C69.8759 160.461 70.0383 160.514 70.186 160.597C70.3336 160.68 70.4636 160.791 70.5684 160.924C70.6595 161.04 79.7882 173.181 82.2632 195.568C83.57 207.412 82.7541 219.876 79.8345 232.613C76.2404 248.303 69.422 264.475 59.5726 280.694C59.4332 280.922 59.2269 281.101 58.982 281.207C58.7371 281.312 58.4655 281.34 58.2046 281.284Z" fill="white"/>
</g>
<path d="M92.7191 363.478C100.047 361.568 92.9706 340.823 104.034 307.159C110.63 287.089 117.769 280.385 114.855 266.776C112.864 257.499 106.246 245.236 95.8046 242.252C87.3531 239.836 82.7948 245.324 77.4533 242.024C70.0938 237.48 75.2558 224.905 70.4501 210.774C64.8298 194.247 46.6961 178.891 33.9284 181.715C17.2103 185.423 5.98201 221.142 17.0662 240.596C24.6107 253.846 40.0478 255.261 40.7494 266.572C41.3519 276.365 29.9903 278.777 29.2695 289.342C28.4659 301.098 41.9624 306.451 61.0358 326.633C82.7445 349.61 86.461 365.113 92.7191 363.478Z" fill="url(#paint2_linear)"/>
<g style="mix-blend-mode:soft-light" opacity="0.5">
<path d="M91.8855 361.658C91.6895 361.593 91.5119 361.482 91.3677 361.333C91.2236 361.185 91.1171 361.004 91.0574 360.806C90.9731 360.526 82.4658 332.182 71.9405 286.149C61.1446 238.935 46.484 221.073 45.9197 220.434C45.6515 220.248 45.4636 219.967 45.394 219.648C45.3243 219.328 45.3781 218.994 45.5445 218.712C45.7108 218.431 45.9774 218.224 46.2903 218.132C46.6032 218.04 46.9393 218.07 47.2306 218.217C48.2804 218.743 52.5911 224.729 57.4458 234.784C62.1196 244.47 68.8686 261.136 74.4522 285.572C84.9571 331.519 93.4398 359.778 93.5242 360.062C93.5732 360.225 93.5898 360.395 93.5731 360.564C93.5563 360.733 93.5066 360.897 93.4266 361.047C93.3467 361.196 93.2381 361.329 93.1072 361.436C92.9762 361.544 92.8254 361.624 92.6634 361.673C92.4089 361.75 92.1369 361.745 91.8855 361.658Z" fill="white"/>
</g>
<path d="M288.132 348.458C288.132 351.882 285.54 354.792 282.336 354.958L78.6813 365.573C74.9417 365.766 71.9037 362.916 71.9037 359.205V56.0762C71.9037 52.3653 74.9417 49.5426 78.6813 49.7718L81.4091 49.6285L282.336 62.2414C285.54 62.4365 288.132 65.371 288.132 68.7899V348.458Z" fill="#97A6B7"/>
<path d="M292.143 348.317C292.143 351.742 289.552 354.652 286.348 354.818L82.6942 365.432C78.9546 365.626 75.9167 362.777 75.9167 359.065V55.9357C75.9167 52.2248 78.9546 49.4021 82.6942 49.6313L286.348 62.0968C289.552 62.2919 292.143 65.2265 292.143 68.6454V348.317Z" fill="#D8DEE8"/>
<g style="mix-blend-mode:multiply">
<path d="M135.527 78.1298C130.466 84.6593 129.743 96.9925 138.42 102.07C157.221 113.679 181.807 110.051 199.885 97.7183C213.192 88.3743 207.529 71.0478 203.722 57.038L163.668 54.5823C160.218 64.251 141.877 69.6385 135.527 78.1298Z" fill="#D8DEE8"/>
</g>
<path d="M282.565 336.185C282.565 339.216 280.262 341.778 277.416 341.914L93.0196 350.574C89.7465 350.726 87.088 348.209 87.088 344.949V85.4739C87.088 82.2132 89.7465 79.7043 93.0196 79.8707L277.416 89.1902C280.262 89.3348 282.565 91.9078 282.565 94.9393V336.185Z" fill="white"/>
<path d="M232.006 80.9389C231.735 79.3482 230.494 78.224 228.925 78.1394L219.221 77.6156C214.834 77.3795 211.663 73.711 211.878 69.0997L212.359 58.4173C212.449 56.4432 211.089 54.8593 209.2 54.7419L206.073 54.5468C203.689 54.3981 202.058 52.2562 202.434 49.7637C203.099 45.3543 200.209 41.5507 195.968 41.2655C191.726 40.9804 187.71 44.3434 187.041 48.7786C186.849 50.0018 186.221 51.1135 185.274 51.907C184.356 52.6961 183.171 53.1015 181.964 53.0393L178.767 52.8401C176.832 52.7201 174.978 54.1239 174.464 56.1008L171.687 66.8063C170.485 71.434 166.132 74.7505 161.567 74.505L151.357 73.9593C149.692 73.8692 148.043 74.872 147.256 76.4573L139.929 91.2093L140.559 92.0156L234.553 95.6841L232.006 80.9389ZM194.575 50.4472C193.329 50.368 192.477 49.2521 192.671 47.9546C192.866 46.6572 194.031 45.6722 195.282 45.754C196.533 45.8359 197.378 46.9505 197.186 48.2466C196.994 49.5426 195.821 50.5304 194.575 50.4472Z" fill="url(#paint3_linear)"/>
<path d="M232.64 81.7465C232.368 80.1558 231.128 79.0303 229.559 78.9457L219.855 78.4231C215.469 78.1871 212.297 74.5186 212.505 69.9073L212.986 59.2249C213.076 57.2508 211.716 55.6669 209.827 55.5495L206.7 55.3531C204.316 55.2044 202.685 53.0638 203.061 50.5712C203.726 46.1619 200.837 42.3569 196.596 42.0731C192.354 41.7893 188.339 45.1509 187.67 49.5849C187.477 50.8082 186.849 51.92 185.902 52.7145C184.987 53.503 183.805 53.9097 182.6 53.851L179.402 53.6518C177.467 53.5318 175.613 54.9356 175.101 56.9125L172.322 67.618C171.122 72.2443 166.767 75.5622 162.204 75.3167L151.992 74.771C150.327 74.6823 148.679 75.685 147.891 77.269L140.564 92.021L235.189 96.4972L232.64 81.7465ZM195.206 51.2657C193.959 51.1865 193.106 50.0706 193.302 48.7731C193.498 47.4757 194.662 46.4907 195.913 46.5712C197.164 46.6517 198.009 47.769 197.817 49.0637C197.625 50.3584 196.45 51.338 195.206 51.2657Z" fill="#97A6B7"/>
<g style="mix-blend-mode:multiply" opacity="0.3">
<path d="M229.559 78.9457L219.855 78.4232C218.489 78.3613 217.164 77.9303 216.022 77.1758C214.88 76.4213 213.962 75.3712 213.366 74.1366C204.373 76.0248 194.899 74.052 185.423 75.9538C178.915 77.4041 179.638 87.5612 172.408 88.287C162.035 89.6922 151.772 89.7877 141.617 89.89L140.562 92.0156L235.186 96.4918L232.64 81.7452C232.365 80.1558 231.128 79.0303 229.559 78.9457Z" fill="#97A6B7"/>
</g>
<path d="M269.034 130.988L104.059 126.97V105.285L269.034 110.443V130.988Z" fill="#D8DEE8"/>
<path d="M269.034 198.91L104.059 198.662V143.343L269.034 146.501V198.91ZM107.146 195.573L265.946 195.969V149.382L107.146 146.501V195.573Z" fill="#D8DEE8"/>
<path d="M142.435 196.892H138.907V145.329L142.435 145.388V196.892Z" fill="#D8DEE8"/>
<path d="M267.269 166.186L140.67 164.597V161.536L267.269 163.25V166.186Z" fill="#D8DEE8"/>
<path d="M267.269 182.128L140.67 181.218V178.157L267.269 179.192V182.128Z" fill="#D8DEE8"/>
<path d="M235.069 198.431L231.539 198.427V147.058L235.069 147.114V198.431Z" fill="#D8DEE8"/>
<path d="M269.034 297.442L104.059 302.66V247.341L269.034 245.031V297.442ZM107.146 299.463L265.946 294.6V248.012L107.146 250.391V299.463Z" fill="#D8DEE8"/>
<path d="M142.435 299.693L138.907 299.807V248.169L142.435 248.112V299.693Z" fill="#D8DEE8"/>
<path d="M267.269 264.774L140.67 267.384V264.321L267.269 261.838V264.774Z" fill="#D8DEE8"/>
<path d="M267.269 280.717L140.67 284.003V280.942L267.269 277.779V280.717Z" fill="#D8DEE8"/>
<path d="M235.069 298.098L231.539 298.196V246.825L235.069 246.78V298.098Z" fill="#D8DEE8"/>
<path d="M269.034 216.52L104.059 217.249V210.168L269.034 209.812V216.52Z" fill="#D8DEE8"/>
<path d="M269.034 232.454L104.059 234.065V226.984L269.034 225.744V232.454Z" fill="#D8DEE8"/>
<path d="M269.034 315.052L104.059 321.247V314.166L269.034 308.344V315.052Z" fill="#D8DEE8"/>
<path d="M200.739 20.1819C200.385 20.1819 200.034 20.2519 199.707 20.388C199.38 20.524 199.083 20.7234 198.832 20.9748C198.582 21.2261 198.383 21.5245 198.248 21.8529C198.112 22.1813 198.043 22.5332 198.043 22.8886V240.384H203.436V22.8886C203.436 22.5332 203.366 22.1813 203.231 21.8529C203.096 21.5245 202.897 21.2261 202.647 20.9748C202.396 20.7234 202.099 20.524 201.772 20.388C201.444 20.2519 201.094 20.1819 200.739 20.1819Z" fill="url(#paint4_linear)"/>
<path d="M200.739 32.927C187.3 32.927 175.965 71.8323 172.454 124.973C192.134 118.75 210.959 119.011 229.031 124.973C225.513 71.8323 214.179 32.927 200.739 32.927Z" fill="url(#paint5_linear)"/>
<path d="M200.739 32.927C143.748 32.927 95.8631 72.0424 82.2958 124.973C95.0186 120.079 106.92 120.198 118.06 124.973C128.335 71.8323 161.459 32.927 200.739 32.927Z" fill="url(#paint6_linear)"/>
<path d="M200.739 32.927C161.458 32.927 128.335 71.8323 118.06 124.973C136.716 119.479 154.84 119.541 172.454 124.973C175.965 71.8323 187.3 32.927 200.739 32.927Z" fill="url(#paint7_linear)"/>
<path d="M200.739 32.927C257.731 32.927 305.616 72.0424 319.183 124.973C306.459 120.079 294.557 120.198 283.419 124.973C273.145 71.8323 240.02 32.927 200.739 32.927Z" fill="url(#paint8_linear)"/>
<path d="M200.739 32.927C240.02 32.927 273.145 71.8323 283.419 124.973C264.763 119.479 246.64 119.541 229.024 124.973C225.513 71.8323 214.179 32.927 200.739 32.927Z" fill="url(#paint9_linear)"/>
<path d="M185.907 266.504H180.026C169.512 266.504 160.957 257.922 160.957 247.374V240.384C160.957 239.258 161.403 238.177 162.197 237.38C162.991 236.584 164.068 236.136 165.191 236.136C166.314 236.136 167.391 236.584 168.186 237.38C168.98 238.177 169.426 239.258 169.426 240.384V247.374C169.428 250.194 170.546 252.899 172.535 254.893C174.524 256.887 177.221 258.007 180.033 258.007H185.907C188.719 258.007 191.416 256.887 193.405 254.893C195.394 252.899 196.512 250.194 196.514 247.374V218.355C196.514 217.228 196.96 216.148 197.755 215.351C198.549 214.554 199.626 214.107 200.749 214.107C201.872 214.107 202.949 214.554 203.743 215.351C204.537 216.148 204.983 217.228 204.983 218.355V247.374C204.974 257.922 196.419 266.504 185.907 266.504Z" fill="url(#paint10_linear)"/>
<path d="M84.8007 143.602C82.0359 143.689 79.3043 142.979 76.9298 141.555C69.747 137.235 59.132 130.095 49.5831 120.761C37.4654 108.915 30.5029 96.8683 28.9799 85.0386L28.9554 84.8544L28.6603 34.3758C28.6603 24.4002 35.1455 16.3031 47.3217 10.981C57.3846 6.5853 70.7112 4.4079 84.8007 4.81719C98.7229 5.22647 111.606 8.10239 121.14 12.9047C132.476 18.6128 138.423 26.6348 138.423 36.1466L138.151 84.3755L138.129 84.5529C136.736 95.8764 130.33 107.59 119.008 119.431C109.927 128.928 99.6653 136.453 92.6171 141.116C90.293 142.658 87.586 143.519 84.8007 143.602Z" fill="url(#paint11_linear)"/>
<path d="M140.477 36.1468L140.205 84.3783L140.182 84.5544C138.807 95.8779 132.485 107.593 121.313 119.434C112.814 128.438 103.266 135.681 96.369 140.378L95.2729 141.118C92.9856 142.658 90.3109 143.52 87.5571 143.602C84.8256 143.688 82.1278 142.977 79.791 141.556C72.6993 137.238 62.2257 130.105 52.8046 120.762C40.8474 108.914 33.9746 96.8643 32.472 85.0346L32.4475 84.8504L32.1592 34.3718C32.1592 24.3948 38.5574 16.2991 50.5703 10.9771C58.4126 7.50769 68.2634 5.4176 78.903 4.89645C81.7369 4.76002 84.6334 4.72455 87.5571 4.8105C101.292 5.21978 114.009 8.09979 123.415 12.9007C134.609 18.6143 140.477 26.6391 140.477 36.1468Z" fill="white" fill-opacity="0.33"/>
<path d="M35.4868 34.414L35.7792 84.6348C39.0741 110.259 69.0957 131.004 82.1626 138.887C85.9076 141.145 90.6956 141.011 94.4149 138.555C107.215 130.106 135.586 108.832 138.618 84.1955L138.89 36.0989C138.889 0.416057 35.4868 -2.84732 35.4868 34.414Z" fill="url(#paint12_linear)"/>
<path opacity="0.8" d="M88.305 131.146C87.9644 131.155 87.6283 131.065 87.3368 130.888C81.9545 127.614 71.5203 120.768 62.4419 111.824C52.6373 102.16 46.9831 92.7659 45.6857 83.9431L45.3975 34.5559C45.4097 29.8178 49.1493 25.7618 56.4789 22.5161C64.6612 18.8939 76.2798 16.9921 88.2996 17.2786C100.205 17.5624 111.485 19.9676 119.304 23.8572C126.216 27.2993 129.711 31.3608 129.724 35.9311L129.452 83.6102C128.241 92.1479 122.934 101.346 113.615 111.032C104.852 120.131 94.6161 127.342 89.2664 130.85C88.9795 131.036 88.6467 131.139 88.305 131.146Z" fill="#F2F2F2"/>
<path d="M87.077 127.769C81.6376 124.41 71.9744 117.925 63.542 109.598C54.3276 100.5 48.9915 91.7699 47.7405 83.692L47.4562 34.5886C47.4644 31.2011 50.5689 28.0933 56.6584 25.3879C64.4096 21.9444 75.5142 20.1299 87.077 20.3905C98.5284 20.6483 109.323 22.9172 116.74 26.5994C122.503 29.4644 125.42 32.5804 125.426 35.8861L125.154 83.3891C123.978 91.2269 118.948 99.7987 110.152 108.915C101.992 117.378 92.4852 124.183 87.077 127.769Z" fill="url(#paint13_linear)"/>
<path d="M108.488 58.5142H64.0792V75.1039H108.488V58.5142Z" fill="white"/>
<path d="M95.0918 89.409L95.0918 44.993L78.5047 44.993L78.5047 89.409L95.0918 89.409Z" fill="white"/>
<path d="M325.267 373.17C324.893 373.185 324.536 373.193 324.194 373.194C310.644 373.194 276.474 375.821 266.381 346.388C257.107 319.355 291.685 277.901 297.386 271.329C297.893 270.744 298.17 270.436 298.17 270.436C298.17 270.436 296.665 269.324 327.143 268.145C362.146 295.077 367.677 316.398 367.677 316.398C378.808 360.081 339.786 372.571 325.267 373.17Z" fill="url(#paint14_linear)"/>
<path style="mix-blend-mode:multiply" opacity="0.3" d="M325.267 373.17C324.893 373.185 324.536 373.193 324.194 373.194C310.644 373.194 276.474 375.821 266.381 346.388C257.107 319.355 291.685 277.901 297.386 271.329C298.781 271.091 300.213 271.179 301.569 271.587C302.074 271.747 230.61 363.488 325.267 373.17Z" fill="url(#paint15_linear)"/>
<path d="M292.373 247.339C292.373 247.339 298.057 237.641 306.082 241.214C314.106 244.787 320.571 247.466 324.806 244.914C329.04 242.361 331.257 240.339 332.433 245.945C333.61 251.551 317.562 265.332 317.562 265.332C317.562 265.332 293.042 265.332 292.373 247.339Z" fill="url(#paint16_linear)"/>
<path style="mix-blend-mode:multiply" opacity="0.2" d="M292.373 251.593C292.373 251.593 298.057 241.896 306.082 245.469C314.106 249.042 320.571 251.722 324.806 249.169C329.04 246.616 331.257 244.594 332.433 250.199C333.61 255.803 317.562 269.585 317.562 269.585C317.562 269.585 293.042 269.586 292.373 251.593Z" fill="url(#paint17_linear)"/>
<path d="M333.639 261.093C331.366 264.483 328.713 267.39 326.378 268.587C323.449 270.088 318.232 270.996 313.038 271.377C307.843 271.757 302.661 271.602 299.82 270.98C299.249 270.874 298.695 270.69 298.173 270.434C298.173 270.434 288.984 255.805 288.849 248.979C288.804 246.812 289.674 245.432 292.035 245.554C301.845 246.061 302.066 251.557 308.761 250.019C315.455 248.481 320.351 238.278 324.807 244.915C329.263 251.552 334.054 242.108 338.07 245.17C340.659 247.147 337.779 254.925 333.639 261.093Z" fill="url(#paint18_linear)"/>
<path d="M297.63 269.551C297.63 269.551 315.681 274.736 327.486 267.914C328.503 269.202 329.031 269.617 329.031 269.617C329.031 269.617 320.359 277.561 296.903 271.888C296.903 271.888 297.473 270.206 297.63 269.551Z" fill="url(#paint19_linear)"/>
<path style="mix-blend-mode:multiply" opacity="0.2" d="M333.639 261.093C331.366 264.483 328.713 267.39 326.378 268.587C323.449 270.088 318.232 270.996 313.038 271.377L299.82 270.98C299.249 270.874 298.695 270.69 298.173 270.434C298.173 270.434 288.984 255.805 288.849 248.979C288.96 248.859 292.57 245.033 296.899 253.236C301.298 261.566 302.889 268.828 308.1 265.332C313.311 261.835 321.352 248.095 322.767 254.565C324.183 261.034 318.967 267.253 322.767 266.231C325.733 265.429 331.442 260.988 333.639 261.093Z" fill="url(#paint20_linear)"/>
<g opacity="0.9">
<path opacity="0.9" d="M320.903 292.396C322.015 292.357 322.95 293.126 322.992 294.115L323.135 297.504C325.372 297.453 327.61 297.522 329.84 297.713C331.49 297.853 333.131 298.059 334.763 298.331C335.739 298.495 336.439 299.277 336.395 300.178L336.143 304.506C336.075 305.659 334.847 306.485 333.633 306.162C332.536 305.871 331.423 305.645 330.3 305.487C328.228 305.201 326.133 305.116 324.044 305.233L323.472 305.262L323.891 315.158C329.809 315.865 334.187 317.277 337.081 319.394C339.975 321.512 341.495 324.412 341.697 328.137C341.916 332.187 340.564 335.657 337.617 338.556C334.636 341.488 330.331 343.514 324.663 344.623L324.832 348.628C324.877 349.697 323.979 350.662 322.823 350.787H322.786C321.628 350.911 320.653 350.141 320.611 349.068L320.456 345.111L319.526 345.205C316.951 345.469 314.363 345.584 311.774 345.548C309.969 345.52 308.166 345.399 306.373 345.186C305.307 345.058 304.555 344.25 304.623 343.258L305.031 337.34C305.119 336.067 306.499 335.146 307.839 335.43C309.4 335.767 310.979 336.015 312.568 336.172C315.061 336.419 317.57 336.453 320.068 336.272L319.66 324.935C313.916 324.427 309.574 323.122 306.68 321.014C303.787 318.906 302.266 315.914 302.16 312.079C302.051 308.131 303.487 304.91 306.467 302.417C309.407 299.951 313.629 298.393 319.099 297.731L318.963 294.261C318.912 293.274 319.788 292.436 320.903 292.396ZM319.407 305.667C317.677 305.994 316.338 306.586 315.392 307.44C314.445 308.295 313.992 309.349 314.032 310.6C314.035 311.15 314.17 311.69 314.425 312.177C314.68 312.663 315.047 313.081 315.496 313.396C316.429 314.075 317.851 314.53 319.762 314.76L319.407 305.667ZM323.842 325.291L324.277 335.666C326.194 335.407 327.645 334.792 328.628 333.822C329.612 332.851 330.068 331.617 329.996 330.12C329.934 328.756 329.41 327.686 328.426 326.91C327.441 326.134 325.912 325.595 323.838 325.291H323.842Z" fill="url(#paint21_linear)"/>
</g>
<path d="M368.981 214.32C368.981 226.325 359.622 235.774 347.66 235.406C335.21 235.023 324.739 224.235 324.739 211.328C324.739 198.42 335.21 189.048 347.66 190.349C359.622 191.599 368.981 202.311 368.981 214.32Z" fill="url(#paint22_linear)"/>
<path d="M372.214 213.284C372.214 225.29 362.855 234.739 350.892 234.371C338.442 233.987 327.972 223.2 327.972 210.292C327.972 197.385 338.442 188.012 350.892 189.314C362.855 190.559 372.214 201.276 372.214 213.284Z" fill="url(#paint23_linear)"/>
<path d="M371.275 213.222C371.275 224.701 362.32 233.716 350.892 233.345C339.02 232.959 329.053 222.665 329.053 210.365C329.053 198.064 339.02 189.12 350.892 190.34C362.32 191.514 371.275 201.746 371.275 213.222Z" fill="url(#paint24_linear)"/>
<path d="M370.603 213.175C370.603 224.276 361.937 232.983 350.892 232.612C339.432 232.226 329.824 222.283 329.824 210.418C329.824 198.553 339.432 189.909 350.892 191.072C361.937 192.196 370.603 202.074 370.603 213.175Z" fill="url(#paint25_linear)"/>
<path d="M350.779 194.849C351.07 194.883 351.338 195.023 351.533 195.241C351.729 195.46 351.839 195.742 351.842 196.036V198.082C353.032 198.216 354.213 198.421 355.378 198.696C356.248 198.901 357.111 199.144 357.969 199.427C358.222 199.511 358.44 199.677 358.588 199.9C358.736 200.122 358.805 200.388 358.785 200.655L358.534 203.217C358.524 203.373 358.475 203.523 358.394 203.655C358.312 203.788 358.199 203.898 358.065 203.977C357.931 204.055 357.779 204.1 357.624 204.106C357.469 204.113 357.315 204.081 357.174 204.014C356.609 203.761 356.029 203.545 355.437 203.366C354.369 203.045 353.271 202.839 352.161 202.751L351.86 202.726V208.579C354.925 209.44 357.177 210.598 358.634 212.054C360.09 213.509 360.803 215.31 360.803 217.478C360.803 219.823 360.003 221.702 358.404 223.117C356.792 224.541 354.535 225.342 351.615 225.515V227.77C351.618 227.91 351.592 228.049 351.539 228.178C351.486 228.307 351.407 228.424 351.307 228.522C351.207 228.619 351.089 228.695 350.959 228.745C350.829 228.795 350.69 228.818 350.551 228.812H350.532C350.243 228.796 349.972 228.67 349.774 228.459C349.575 228.249 349.464 227.97 349.464 227.68V225.455L348.991 225.435C347.672 225.378 346.359 225.237 345.058 225.013C344.141 224.855 343.233 224.646 342.339 224.387C342.075 224.316 341.845 224.155 341.688 223.932C341.53 223.709 341.455 223.438 341.475 223.166L341.769 219.872C341.783 219.708 341.837 219.549 341.925 219.409C342.013 219.269 342.133 219.153 342.275 219.068C342.417 218.984 342.577 218.935 342.741 218.925C342.906 218.916 343.07 218.945 343.221 219.011C345.207 219.8 347.301 220.282 349.431 220.44L349.451 213.928C346.508 213.198 344.303 212.115 342.857 210.682C341.41 209.25 340.671 207.399 340.671 205.158C340.671 202.839 341.461 201.051 343.04 199.793C344.608 198.543 346.838 197.921 349.716 197.922V195.832C349.712 195.695 349.738 195.559 349.792 195.432C349.845 195.306 349.925 195.192 350.026 195.099C350.126 195.006 350.245 194.935 350.375 194.892C350.505 194.849 350.643 194.834 350.779 194.849ZM349.712 202.663C348.805 202.729 348.096 202.979 347.585 203.415C347.073 203.851 346.819 204.436 346.822 205.172C346.814 205.496 346.872 205.819 346.994 206.119C347.115 206.419 347.297 206.692 347.528 206.918C347.996 207.385 348.724 207.757 349.712 208.036V202.663ZM351.598 214.453V220.423C352.587 220.423 353.346 220.187 353.874 219.714C354.403 219.241 354.666 218.573 354.666 217.709C354.689 216.981 354.424 216.274 353.929 215.743C353.439 215.219 352.662 214.789 351.598 214.453Z" fill="url(#paint26_linear)"/>
<path style="mix-blend-mode:multiply" opacity="0.3" d="M347.322 215.894C347.989 209.295 354.033 206.501 353.245 200.431C352.758 196.69 349.932 193.538 346.778 191.076C337.216 192.082 329.821 200.026 329.821 210.418C329.821 222.287 339.43 232.226 350.889 232.612C351.977 232.648 353.066 232.595 354.145 232.452C349.597 227.909 346.753 221.563 347.322 215.894Z" fill="url(#paint27_linear)"/>
<path d="M357.073 153.228C357.073 166.952 346.376 177.747 332.705 177.326C318.478 176.888 306.513 164.56 306.513 149.809C306.513 135.059 318.48 124.349 332.705 125.835C346.37 127.263 357.073 139.505 357.073 153.228Z" fill="url(#paint28_linear)"/>
<path d="M360.766 152.045C360.766 165.769 350.071 176.564 336.4 176.143C322.173 175.705 310.206 163.377 310.206 148.625C310.206 133.873 322.173 123.165 336.4 124.652C350.071 126.079 360.766 138.322 360.766 152.045Z" fill="url(#paint29_linear)"/>
<path d="M359.697 151.973C359.697 165.092 349.463 175.394 336.404 174.97C322.837 174.529 311.447 162.765 311.447 148.708C311.447 134.652 322.837 124.424 336.404 125.824C349.459 127.166 359.697 138.853 359.697 151.973Z" fill="url(#paint30_linear)"/>
<path d="M358.925 151.92C358.925 164.608 349.022 174.558 336.4 174.132C323.305 173.691 312.322 162.328 312.322 148.768C312.322 135.209 323.305 125.331 336.4 126.667C349.022 127.939 358.925 139.235 358.925 151.92Z" fill="url(#paint31_linear)"/>
<path d="M336.271 130.978C336.603 131.017 336.909 131.176 337.133 131.426C337.356 131.675 337.481 131.998 337.485 132.333V134.669C338.843 134.821 340.191 135.056 341.521 135.371C342.514 135.605 343.5 135.884 344.48 136.208C344.769 136.304 345.017 136.494 345.185 136.748C345.353 137.002 345.431 137.305 345.408 137.609L345.121 140.538C345.109 140.716 345.054 140.89 344.96 141.042C344.866 141.194 344.736 141.321 344.582 141.411C344.428 141.501 344.254 141.551 344.076 141.558C343.897 141.565 343.72 141.527 343.56 141.449C342.914 141.16 342.251 140.912 341.574 140.707C340.354 140.34 339.099 140.105 337.829 140.004L337.485 139.976V146.661C340.989 147.644 343.562 148.968 345.225 150.632C346.889 152.297 347.706 154.353 347.706 156.83C347.706 159.511 346.792 161.66 344.963 163.275C343.123 164.901 340.543 165.817 337.212 166.014V168.594C337.214 168.754 337.184 168.912 337.124 169.06C337.063 169.207 336.973 169.341 336.86 169.452C336.746 169.564 336.61 169.651 336.462 169.708C336.314 169.765 336.155 169.792 335.996 169.785H335.974C335.644 169.768 335.334 169.624 335.106 169.384C334.878 169.144 334.751 168.825 334.75 168.493V165.95L334.207 165.926C332.7 165.861 331.199 165.7 329.712 165.444C328.665 165.263 327.629 165.024 326.608 164.728C326.311 164.645 326.051 164.461 325.874 164.208C325.696 163.956 325.611 163.649 325.633 163.34L325.97 159.575C326.042 158.756 326.856 158.287 327.629 158.593C328.521 158.946 329.432 159.246 330.359 159.492C331.789 159.871 333.251 160.116 334.726 160.224L334.748 152.784C331.385 151.949 328.866 150.711 327.211 149.073C325.556 147.434 324.716 145.321 324.716 142.76C324.716 140.111 325.618 138.067 327.422 136.629C329.214 135.201 331.763 134.49 335.051 134.491V132.104C335.047 131.946 335.077 131.79 335.138 131.645C335.199 131.5 335.29 131.37 335.406 131.263C335.522 131.156 335.659 131.076 335.808 131.027C335.957 130.978 336.115 130.961 336.271 130.978ZM335.047 139.907C334.006 139.982 333.196 140.269 332.617 140.767C332.038 141.265 331.747 141.935 331.744 142.775C331.734 143.146 331.801 143.514 331.94 143.857C332.079 144.2 332.287 144.511 332.552 144.77C333.087 145.304 333.919 145.729 335.047 146.047V139.907ZM337.202 153.381V160.203C338.332 160.203 339.199 159.932 339.804 159.392C340.408 158.852 340.71 158.086 340.709 157.095C340.709 156.192 340.429 155.444 339.868 154.849C339.306 154.254 338.419 153.765 337.206 153.381H337.202Z" fill="url(#paint32_linear)"/>
<path style="mix-blend-mode:multiply" opacity="0.3" d="M332.323 155.028C333.085 147.486 339.993 144.294 339.091 137.358C338.535 133.082 335.305 129.479 331.703 126.666C320.774 127.816 312.322 136.898 312.322 148.767C312.322 162.327 323.305 173.69 336.4 174.131C337.643 174.172 338.887 174.112 340.121 173.949C334.919 168.758 331.669 161.5 332.323 155.028Z" fill="url(#paint33_linear)"/>
<path d="M240.2 199.34C240.669 195.793 240.93 193.61 239.566 191.873C236.513 187.992 227.032 188.537 221.514 193.143C217.434 196.554 218.888 199.362 215.123 202.273C209.704 206.46 204.743 201.864 196.813 204.901C190.547 207.303 183.487 213.483 182.562 221.898C182.073 226.343 183.106 233.163 187.788 236.601C194.348 241.416 203.785 236.454 205.216 239.438C206.725 242.586 196.155 247.966 197.255 254.296C198.037 258.798 204.301 261.422 207.898 262.251C216.525 264.243 226.927 259.839 232.284 252.243C238.11 243.981 231.971 240.447 237.193 219.992C237.748 217.809 238.565 211.652 240.2 199.34Z" fill="url(#paint34_linear)"/>
<path d="M249.6 368.99C249.6 368.99 248.848 370.672 248.68 372.173C248.615 372.754 248.782 373.337 249.145 373.795C249.508 374.252 250.037 374.546 250.616 374.612C253.57 374.952 258.899 375.501 262.116 375.447C266.196 375.378 256.869 370.408 254.609 369.236C254.296 369.074 253.95 368.99 253.598 368.99H249.6Z" fill="url(#paint35_linear)"/>
<path d="M250.807 363.511C250.374 363.694 250.185 369.569 250.185 369.569C250.185 369.569 252.089 370.701 253.349 369.968L255.854 362.641L250.807 363.511Z" fill="url(#paint36_linear)"/>
<path d="M197.346 362.064C196.756 362.399 196.304 362.934 196.072 363.574C195.839 364.213 195.841 364.914 196.076 365.552C196.831 367.599 198.044 370.494 199.351 372.018C200.758 373.655 203.246 373.671 204.807 373.481C204.957 373.463 205.101 373.405 205.223 373.314C205.345 373.224 205.441 373.103 205.503 372.964C205.565 372.825 205.59 372.672 205.576 372.52C205.562 372.369 205.509 372.223 205.423 372.098C204.664 370.994 203.554 369.329 203.033 368.278C202.2 366.597 200.24 360.41 200.24 360.41L197.346 362.064Z" fill="url(#paint37_linear)"/>
<path d="M202.317 356.184L199.222 361.095C199.083 361.315 199.025 361.576 199.059 361.834C199.092 362.092 199.213 362.33 199.403 362.507C199.611 362.703 199.887 362.811 200.173 362.808C200.458 362.806 200.732 362.694 200.938 362.495L205.761 357.821L202.317 356.184Z" fill="url(#paint38_linear)"/>
<path d="M258.66 261.981C269.675 267.324 267.754 292.283 266.019 314.797C264.677 332.097 261.689 349.228 257.096 365.957L248.655 366.271C247.311 359.032 246.683 351.678 246.779 344.316C246.973 329.875 249.906 321.544 250.994 313.892C252.51 303.24 251.333 287.658 238.802 266.688C249.662 259.7 255.532 260.467 258.66 261.981Z" fill="url(#paint39_linear)"/>
<path style="mix-blend-mode:multiply" opacity="0.3" d="M251.466 339.924C254.346 328.771 258.885 325.162 259.281 313.106C259.689 300.86 255.267 296.437 256.468 285.505C257.304 277.893 260.37 271.618 263.555 266.873C262.315 264.656 260.712 262.977 258.66 261.981C255.532 260.467 249.664 259.7 238.806 266.685C251.337 287.657 252.515 303.238 250.998 313.889C249.91 321.543 246.972 329.873 246.783 344.313C246.687 351.675 247.316 359.03 248.659 366.268L250.597 366.196C248.771 355.059 249.799 346.378 251.466 339.924Z" fill="url(#paint40_linear)"/>
<path d="M228.644 262.766C228.162 268.768 227.539 276.26 226.768 284.878C225.001 304.672 224.457 308.003 222.704 312.479C219.341 321.1 216.081 322.313 210.042 332.71C205.569 340.423 202.152 348.705 199.881 357.332L205.196 361.723C216.843 351.535 226.776 339.53 234.613 326.169C248.648 302.2 252.563 279.497 253.81 266.217L228.644 262.766Z" fill="url(#paint41_linear)"/>
<path d="M228.909 213.88C225.157 216.912 225.157 222.612 225.156 228.413C225.156 234.634 226.437 237.675 227.244 242.249C227.679 244.715 229.828 258.086 224.364 269.242C219.144 279.909 211.473 279.351 207.968 290.514C206.27 295.92 205.892 302.987 208.529 304.352C211.485 305.881 215.159 298.654 224.855 295.354C233.395 292.448 234.102 296.843 243.524 294.343C253.362 291.733 253.956 286.586 267.753 281.792C270.534 280.826 271.614 280.651 272.503 279.41C276.052 274.451 266.331 266.753 261.79 251.483C257.379 236.644 262.348 229.744 255.085 221.264C251.413 216.972 247.012 215.091 245.43 214.432C242.862 213.369 234.063 209.718 228.909 213.88Z" fill="url(#paint42_linear)"/>
<g style="mix-blend-mode:multiply" opacity="0.3">
<path style="mix-blend-mode:multiply" opacity="0.3" d="M261.787 251.483C257.376 236.644 262.345 229.744 255.082 221.264C251.41 216.972 247.01 215.091 245.427 214.432C243.48 213.624 237.927 211.322 233.112 212.095C235.069 214.646 237.159 217.597 239.252 220.946C245.254 230.552 248.255 235.356 248.753 241.281C249.796 253.711 240.438 257.978 243.053 268.606C244.868 275.987 250.055 276.655 250.97 282.269C251.431 285.092 250.717 288.606 247.472 292.978C253.854 290.167 256.069 285.852 267.756 281.79C270.537 280.825 271.616 280.65 272.506 279.408C276.052 274.451 266.331 266.753 261.787 251.483Z" fill="url(#paint43_linear)"/>
</g>
<path d="M236.766 202.512C236.766 202.512 235.854 209.83 233.162 211.507C230.471 213.183 231.948 214.84 231.468 215.433C230.988 216.026 239.418 219.683 247.922 215.378L251.469 212.878C248.67 212.889 245.077 212.688 243.656 211.875C242.081 210.961 240.729 209.706 239.698 208.202L239.729 204.15L236.766 202.512Z" fill="url(#paint44_linear)"/>
<path d="M235.93 205.703C235.93 205.703 239.166 208.603 242.775 206.322C246.008 204.276 241.959 195.643 238.957 195.207C237.955 195.063 236.283 195.584 235.296 196.544C234.604 197.218 233.036 200.348 234.904 203.071C233.963 203.004 233.233 203.407 233.137 203.89C233.009 204.502 233.923 205.1 234.129 205.236C234.666 205.576 235.296 205.739 235.93 205.703Z" fill="url(#paint45_linear)"/>
<path d="M261.014 174.686C261.014 174.686 260.381 173.62 258.48 171.185C256.579 168.75 254.575 169.492 256.264 172.615C257.952 175.738 260.192 174.886 261.014 174.686Z" fill="url(#paint46_linear)"/>
<path d="M301.35 167.256C301.35 167.256 302.988 163.027 304.016 161.126C305.044 159.226 306.733 166.502 301.35 167.256Z" fill="url(#paint47_linear)"/>
<path d="M304.934 180.52C304.934 180.52 303.274 178.746 304.723 178.432C306.173 178.118 309.06 179.948 309.38 180.52C309.699 181.091 304.934 180.52 304.934 180.52Z" fill="url(#paint48_linear)"/>
<path d="M304.384 182.297L304.792 180.387C304.811 180.297 304.851 180.213 304.91 180.142C304.969 180.071 305.043 180.015 305.128 179.98C305.213 179.944 305.305 179.93 305.397 179.938C305.488 179.946 305.576 179.976 305.654 180.026L305.726 180.072C305.805 180.124 305.871 180.195 305.916 180.278C305.962 180.362 305.985 180.456 305.985 180.551V182.698L304.384 182.297Z" fill="url(#paint49_linear)"/>
<path d="M311.855 186.997C311.855 186.997 310.195 185.224 311.644 184.91C313.092 184.596 315.982 186.426 316.301 186.997C316.621 187.569 311.855 186.997 311.855 186.997Z" fill="url(#paint50_linear)"/>
<path d="M311.304 188.775L311.712 186.865C311.731 186.775 311.771 186.691 311.83 186.62C311.888 186.549 311.963 186.493 312.048 186.458C312.132 186.422 312.224 186.408 312.316 186.416C312.407 186.424 312.495 186.454 312.573 186.503L312.645 186.55C312.725 186.601 312.791 186.672 312.836 186.756C312.882 186.839 312.906 186.933 312.906 187.029V189.176L311.304 188.775Z" fill="url(#paint51_linear)"/>
<path d="M290.102 190.696C290.102 190.696 293.725 190.506 295.784 190.999C297.843 191.491 300.213 191.097 301.854 188.406C303.495 185.716 303.793 181.747 303.793 181.747L306.287 182.02C306.287 182.02 306.974 186.363 306.763 188.958C306.552 191.553 305.161 197.689 297.41 198.278C289.659 198.868 290.102 190.696 290.102 190.696Z" fill="url(#paint52_linear)"/>
<path d="M291.93 194.085C291.93 194.085 294.992 193.866 297.737 194.641C300.481 195.416 305.08 195.937 307.061 194.169C309.042 192.401 310.901 188.13 310.901 188.13L313.361 188.402C313.361 188.402 313.84 194.775 311.304 199.329C308.768 203.883 301.075 208.579 292.307 203.371C283.538 198.164 291.93 194.085 291.93 194.085Z" fill="url(#paint53_linear)"/>
<path d="M259.996 173.755C259.276 174.383 259.035 175.292 258.94 175.927C260.861 178.331 263.402 180.16 266.287 181.215C269.173 182.27 272.291 182.511 275.303 181.911C275.109 184.599 275.155 189.398 277.626 194.408C279.867 198.954 285.279 206.055 289.924 204.787C292.284 204.145 294.428 201.349 294.623 198.75C294.82 196.104 292.9 194.913 293.619 192.611C294.338 190.31 296.817 189.685 296.522 188.692C296.26 187.803 294.31 188.419 291.719 187.054C290.151 186.216 288.852 184.949 287.971 183.401C287.669 182.856 287.425 182.28 287.244 181.683C288.74 181.618 293.147 181.226 297.209 177.893C302.122 173.86 303.043 168.39 303.226 167.089L301.866 165.766C299.515 168.9 296.589 171.554 293.245 173.586C291.11 174.88 285.29 178.403 277.947 178C268.815 177.488 262.905 171.221 259.996 173.755Z" fill="url(#paint54_linear)"/>
<path d="M281.641 172.739L282.955 176.986L284.914 177.259C284.914 177.259 279.986 180.648 276.755 177.889L278.69 177.142L278.639 173.806L281.641 172.739Z" fill="#A03A77"/>
<path d="M271.819 170.549C271.252 169.676 270.546 169.937 270.038 169.121C269.4 168.096 269.723 166.425 270.56 165.421C271.376 164.439 272.084 164.819 274.351 163.86C276.787 162.829 276.891 161.999 278.999 161.465C279.942 161.203 280.926 161.124 281.898 161.231C282.948 161.358 285.033 161.608 285.97 163.278C286.992 165.106 285.869 167.248 285.76 167.45C287.321 169.417 287.433 170.477 287.13 171.09C287.13 171.09 286.809 171.739 284.224 172.768C284.224 172.768 283.869 173.971 283.57 174.447C283.23 174.993 282.365 175.539 279.958 175.412C279.662 174.833 279.329 174.274 278.961 173.739C278.102 172.492 277.672 171.869 277.241 171.896C276.153 171.961 276.248 175.833 274.858 176.125C273.964 176.308 272.661 174.967 272.238 173.626C271.815 172.285 272.465 171.541 271.819 170.549Z" fill="url(#paint55_linear)"/>
<path d="M281.417 174.259C281.417 174.259 280.318 177.451 276.861 177.976C273.768 178.446 271.83 171.679 273.462 169.791C274.006 169.162 275.263 168.675 276.388 168.74C277.052 168.778 277.32 168.993 278.406 169.035C279.407 169.074 279.652 168.909 279.99 169.088C280.415 169.312 280.837 169.995 280.67 172.133C281.124 171.414 281.773 171.034 282.32 171.16C282.509 171.215 282.68 171.321 282.812 171.467C283.409 172.163 282.915 173.32 281.417 174.259Z" fill="#A03A77"/>
<path d="M283.33 193.524C283.376 193.303 283.75 190.907 283.352 189.034C282.954 187.161 282.425 184.404 283.534 186.417C284.644 188.431 285.452 189.716 287.264 187.962C289.077 186.207 288.76 184.239 289.288 184.375C289.815 184.511 291.294 187.863 289.288 190C287.282 192.136 284.954 194.366 284.954 194.366L283.33 193.524Z" fill="url(#paint56_linear)"/>
<path d="M229.748 216.815C229.404 220.973 234.078 224.385 234.987 225.05C243.719 231.424 262.424 226.901 274.086 216.182C282.04 208.872 285.409 199.881 286.913 193.782L282.554 192.306C276.411 202.748 269.874 206.519 265.218 208.079C252.844 212.231 239.381 205.598 232.281 212.26C231.612 212.884 229.939 214.498 229.748 216.815Z" fill="url(#paint57_linear)"/>
<path d="M172.023 371.986C172.023 371.986 163.395 374.997 162.459 375.711C161.524 376.424 170.491 376.321 173.397 376.321C176.303 376.321 175.42 372.588 175.42 372.588C175.42 372.588 175.213 371.506 172.023 371.986Z" fill="url(#paint58_linear)"/>
<path d="M171.724 368.679L172.245 371.832C172.293 372.122 172.442 372.386 172.667 372.576C172.891 372.766 173.175 372.869 173.469 372.867C173.765 372.869 174.053 372.763 174.278 372.568C174.503 372.374 174.65 372.105 174.693 371.81L175.081 369.166L171.724 368.679Z" fill="url(#paint59_linear)"/>
<path d="M129.464 367.728C129.464 367.728 118.029 373.539 118.052 373.907C118.075 374.275 129.312 373.546 130.835 372.424C132.358 371.303 132.445 366.982 129.464 367.728Z" fill="url(#paint60_linear)"/>
<path d="M132.692 364.983L130.603 369.258C130.51 369.45 130.362 369.61 130.179 369.72C129.996 369.83 129.786 369.884 129.573 369.876C129.413 369.87 129.257 369.829 129.115 369.757C128.973 369.685 128.849 369.583 128.75 369.457C128.651 369.332 128.581 369.187 128.543 369.031C128.506 368.876 128.503 368.714 128.534 368.558L129.464 363.83L132.692 364.983Z" fill="url(#paint61_linear)"/>
<path d="M152.122 282.439C139.965 308.153 131.834 335.594 128.016 363.795C127.942 364.34 128.087 364.891 128.419 365.329C128.75 365.766 129.241 366.054 129.783 366.129L131.722 366.402C132.059 366.451 132.402 366.415 132.721 366.298C133.041 366.182 133.326 365.988 133.553 365.734C136.792 362.072 140.664 356.619 142.728 349.299C144.659 342.451 143.231 340.266 145.048 333.935C147.529 325.283 151.665 324.248 158.782 313.416C164.02 305.45 171.837 293.563 167.842 287.062C167.173 285.969 164.163 281.767 152.122 282.439Z" fill="url(#paint62_linear)"/>
<path d="M165.114 292.862C168.073 307.248 169.978 321.832 170.813 336.497C171.389 346.998 171.435 357.521 170.949 368.026C170.921 368.629 171.121 369.221 171.508 369.684C171.896 370.147 172.443 370.446 173.04 370.522C173.344 370.562 173.647 370.601 173.953 370.638C174.422 370.695 174.898 370.612 175.321 370.398C175.743 370.184 176.093 369.849 176.326 369.436C178.661 365.252 181.327 358.828 181.686 351.855C181.908 347.552 181.193 345.864 181.159 340.84C181.108 333.498 182.584 329.652 184.603 320.899C188.248 305.099 190.07 297.2 187.176 293.709C186.114 292.425 181.651 288.018 165.114 292.862Z" fill="url(#paint63_linear)"/>
<path style="mix-blend-mode:multiply" opacity="0.3" d="M167.843 287.061C167.355 286.265 165.621 283.822 160.063 282.811C160.92 294.817 158.077 302.514 154.956 307.535C150.026 315.462 144.417 316.703 140.677 326.213C137.676 333.846 139.555 337.453 138.243 348.807C137.648 353.904 136.606 358.939 135.129 363.852C137.972 360.291 140.989 355.458 142.726 349.298C144.657 342.449 143.23 340.265 145.046 333.933C147.528 325.281 151.663 324.247 158.781 313.415C164.022 305.449 171.84 293.563 167.843 287.061Z" fill="url(#paint64_linear)"/>
<path d="M142.944 214.28C148.186 209.232 156.612 210.141 169.505 211.534C182.298 212.916 192.451 214.011 198.649 221.565C209.301 234.544 201.384 258.19 199.635 263.418C196.401 273.075 192.972 275.655 192.573 284.725C192.119 295.23 196.348 300.706 192.878 304.723C190.408 307.581 187.493 305.709 175.472 307.854C165.118 309.702 165.159 311.47 159.725 311.078C157.361 310.907 152.73 309.128 143.466 305.571C139.138 303.908 137.554 303.188 136.921 301.547C135.624 298.18 139.611 294.275 141.777 290.954C146.693 283.422 144.487 275.457 142.457 260.886C138.671 233.776 136.777 220.22 142.944 214.28Z" fill="url(#paint65_linear)"/>
<path d="M139.039 181.23C132.204 185.295 128.757 193.008 130.36 199.871C132.368 208.466 142.038 214.578 152.129 212.156C156.329 225.754 151.313 238.577 142.998 242.316C132.347 247.108 118.733 235.889 114.169 225.28C108.449 211.996 114.452 193.977 129.966 182.289L139.039 181.23Z" fill="url(#paint66_linear)"/>
<path style="mix-blend-mode:multiply" opacity="0.3" d="M199.642 263.412C201.391 258.184 209.308 234.538 198.656 221.56C194.232 216.168 187.792 214.067 179.817 212.803C194.451 221.68 197.862 227.59 197.107 231.638C195.638 239.526 178.791 238.065 171.772 251.557C168.273 258.277 168.898 265.472 170.083 279.095C171.262 292.657 173.84 294.728 173.038 302.182C172.8 304.381 172.324 306.547 171.619 308.642C172.726 308.386 173.995 308.121 175.484 307.855C187.5 305.71 190.415 307.582 192.89 304.724C196.361 300.708 192.131 295.235 192.586 284.726C192.965 275.655 196.401 273.075 199.642 263.412Z" fill="url(#paint67_linear)"/>
<path d="M176.819 201.502C176.57 203.558 176.546 205.636 176.749 207.697C176.917 209.37 177.121 209.822 177.404 210.202C177.828 210.777 178.51 211.294 182.532 212.734C184.727 213.519 185.018 213.541 185.045 213.749C185.181 214.771 178.681 217.392 172.465 215.796C168.674 214.823 165.402 212.385 165.731 211.362C166.06 210.339 169.835 211.362 171.191 209.588C172.133 208.35 171.448 206.347 170.564 204.65C171.778 203.025 175.602 203.134 176.819 201.502Z" fill="url(#paint68_linear)"/>
<path d="M157.265 202.111C164.608 202.303 169.185 210.31 170.565 215.297C172.817 223.435 169.101 232.798 161.269 239.274L157.894 238.173C159.037 236.369 162.005 231.145 161.221 224.351C159.833 212.332 148.039 206.976 147.444 206.717C148.575 205.539 152.27 201.98 157.265 202.111Z" fill="url(#paint69_linear)"/>
<path d="M140.931 208.958C140.345 213.487 145.335 217.441 147.219 218.935C151.799 222.563 154.019 221.183 155.364 223.761C157.595 228.042 152.278 233.407 155.296 239.586C155.484 239.97 155.695 240.341 155.929 240.698L158.305 241.653C161.022 238.132 162.917 234.045 163.852 229.692C164.416 227.025 165.66 220.736 162.738 213.692C159.461 205.79 153.067 202.067 151.02 200.982C145.554 201.974 141.413 205.232 140.931 208.958Z" fill="url(#paint70_linear)"/>
<path d="M182.849 152.223C182.849 152.223 184.116 149.955 183.64 147.629C183.164 145.303 182.058 141.729 182.136 140.696C182.215 139.663 184.04 142.444 185.066 144.27C186.091 146.097 187.124 148.09 186.333 148.957C185.542 149.823 184.373 153.564 184.373 153.564L182.849 152.223Z" fill="url(#paint71_linear)"/>
<path d="M99.0016 164.522C99.0016 164.522 96.9428 161.657 96.8639 159.359C96.7851 157.062 96.5471 151.257 95.8345 150.939C95.122 150.621 94.3305 156.182 93.618 157.373C92.9054 158.564 94.1619 161.088 94.9574 162.209C95.7529 163.331 96.8612 165.873 96.8612 165.873L99.0016 164.522Z" fill="url(#paint72_linear)"/>
<path d="M146.361 175.363C150.611 173.764 155.898 171.774 156.253 168.411C156.511 165.971 153.898 165.398 151.222 160.343C148.366 154.953 149.97 153.018 147.35 150.055C143.908 146.161 137.246 145.097 135.359 147.239C134.116 148.651 135.643 150.658 134.513 151.767C132.45 153.793 126.654 147.774 119.239 148.522C114.662 148.983 109.584 152.01 109.414 155.111C109.16 159.886 120.622 163.23 119.817 166.435C119.318 168.422 114.712 167.948 114.346 169.717C113.862 172.06 121.174 176.509 128.743 177.806C136.38 179.117 142.324 176.881 146.361 175.363Z" fill="url(#paint73_linear)"/>
<path d="M99.1335 163.649C102.135 166.901 107.256 171.537 114.757 174.451C128.58 179.821 141.247 175.758 149.441 173.129C166.089 167.789 176.936 157.554 182.498 151.332L186.333 153.058C184.825 158.666 181.775 166.238 174.932 171.487C167.526 177.165 159.602 177.11 158.886 181.653C158.399 184.732 161.831 186.069 166.275 194.999C168.723 199.91 169.947 202.366 169.019 204.107C167.018 207.894 159.005 203.513 149.384 207.927C143.004 210.849 141.089 215.269 138.3 214.212C136.241 213.429 135.677 210.007 134.604 203.266C133.199 194.431 134.275 192.472 132.334 190.345C129.394 187.121 125.596 190.165 117.966 187.889C110.687 185.716 106.031 180.536 102.495 176.566C99.4698 173.161 96.9327 169.35 94.9574 165.242L99.1335 163.649Z" fill="url(#paint74_linear)"/>
<path style="mix-blend-mode:multiply" opacity="0.3" d="M142.627 206.701C140.374 202.139 145.166 197.834 142.865 191.61C141.488 187.883 138.106 184.902 134.692 183.618C127.593 180.944 123.066 186.627 116.499 183.428C114.036 182.226 115.275 181.719 110.562 178.026C104.727 173.453 101.674 173.326 98.2768 169.341C97.1672 168.031 96.2395 166.577 95.519 165.017L94.9574 165.23C96.9327 169.338 99.4698 173.149 102.495 176.554C106.031 180.526 110.687 185.707 117.966 187.877C125.596 190.157 129.389 187.113 132.334 190.333C134.275 192.46 133.199 194.419 134.604 203.254C135.677 209.995 136.236 213.417 138.3 214.2C140.495 215.033 142.155 212.46 145.888 209.902C144.096 208.916 143.151 207.762 142.627 206.701Z" fill="url(#paint75_linear)"/>
<path d="M140.098 170.027L139.664 173.337C139.627 173.622 139.51 173.892 139.328 174.115C139.146 174.337 138.905 174.505 138.633 174.597L131.531 177.017C131.531 177.017 138.912 178.979 144.096 177.391C149.28 175.803 150.232 172.871 150.232 172.871L145.796 173.251C145.408 173.283 145.022 173.168 144.716 172.927C144.41 172.686 144.206 172.339 144.145 171.953L143.719 169.264C143.693 169.102 143.63 168.948 143.534 168.814C143.439 168.68 143.313 168.571 143.168 168.494C143.023 168.417 142.862 168.376 142.698 168.372C142.534 168.369 142.372 168.404 142.223 168.474L140.695 169.208C140.535 169.284 140.397 169.399 140.293 169.542C140.189 169.685 140.122 169.851 140.098 170.027Z" fill="url(#paint76_linear)"/>
<path d="M139.327 169.903C139.327 169.903 140.351 173.979 144.467 174.116C148.154 174.237 149.576 165.134 147.408 163.155C146.685 162.495 145.067 162.003 143.761 162.235C142.843 162.399 139.902 164.05 139.928 167.242C139.21 166.679 138.409 166.604 138.069 166.935C137.637 167.355 138.044 168.33 138.137 168.551C138.382 169.115 138.799 169.588 139.327 169.903Z" fill="url(#paint77_linear)"/>
<path d="M170.058 200.727C169.686 199.202 170.446 197.127 171.925 196.225C173.198 195.453 174.572 195.838 175.393 196.067C177.779 196.733 180.26 198.932 180.388 201.557C180.464 203.116 178.103 205.31 177.709 205.717C177.263 206.175 176.776 206.194 176.228 206.453C175.47 206.813 174.278 207.392 172.32 208.373C172.413 207.761 172.455 207.143 172.447 206.524C172.437 205.725 172.328 204.93 172.124 204.157C171.543 202.141 170.412 202.175 170.058 200.727Z" fill="url(#paint78_linear)"/>
<path d="M174.757 207.886C174.757 207.886 172.235 209.853 169.34 208.4C166.757 207.101 168.859 200.633 171.086 200.003C171.829 199.793 173.039 200.081 173.855 200.738C174.338 201.127 174.427 201.443 175.228 202.064C175.968 202.636 176.24 202.637 176.403 202.963C176.606 203.373 176.567 204.149 175.315 205.779C176.04 205.448 176.734 205.494 177.083 205.891C177.199 206.04 177.271 206.218 177.294 206.405C177.381 207.281 176.388 207.943 174.757 207.886Z" fill="url(#paint79_linear)"/>
<path d="M176.673 202.633C176.504 202.681 176.698 203.352 176.444 204.082C175.95 205.498 173.954 206.613 172.537 206.186C171.7 205.933 171.682 205.329 170.412 204.625C169.794 204.284 169.124 204.051 168.429 203.933C167.411 205.284 167.205 206.969 167.885 208.079C168.622 209.275 170.13 209.37 170.763 209.411C171.184 209.437 172.539 209.526 173.618 208.632C174.743 207.699 174.392 206.707 175.458 206.205C176.002 205.951 176.56 205.98 177.355 205.386C177.526 205.258 177.688 205.116 177.838 204.963C177.45 203.905 176.917 202.565 176.673 202.633Z" fill="url(#paint80_linear)"/>
<path d="M169.172 204.903C169.172 204.903 169.62 205.46 170.638 205.817C170.686 205.834 170.734 205.872 170.73 205.901C170.712 206.01 169.899 206.19 169.381 205.764C169.014 205.466 168.855 204.913 168.953 204.831C168.993 204.801 169.086 204.846 169.172 204.903Z" fill="url(#paint81_linear)"/>
<path d="M140.364 216.301L139.043 210.582C139.043 210.582 136.217 206.185 134.355 202.631C132.494 199.077 133.441 208.137 134.688 210.582C135.935 213.026 138.168 216.878 138.168 216.878L140.364 216.301Z" fill="url(#paint82_linear)"/>
<path d="M138.168 216.878L141.044 215.122C146.962 227.982 152.938 231.411 157.354 232.121C161.811 232.836 168.409 230.171 181.424 224.812C189.896 221.325 192.042 219.973 195.043 220.992C200.995 223.031 204.952 232.6 202.991 240.076C200.119 251.022 185.425 254.171 181.242 255.067C178.431 255.669 159.052 259.821 146.276 245.783C135.678 234.146 137.83 219.003 138.168 216.878Z" fill="url(#paint83_linear)"/>
<defs>
<linearGradient id="paint0_linear" x1="374.004" y1="-0.00134277" x2="0.00616455" y2="-0.00134277" gradientUnits="userSpaceOnUse">
<stop stop-color="#16D1C6"/>
<stop offset="0.925" stop-color="#0E5D89"/>
</linearGradient>
<linearGradient id="paint1_linear" x1="100.641" y1="126.3" x2="33.7833" y2="126.3" gradientUnits="userSpaceOnUse">
<stop stop-color="#16D1C6"/>
<stop offset="0.925" stop-color="#0E5D89"/>
</linearGradient>
<linearGradient id="paint2_linear" x1="115.525" y1="181.377" x2="12.6337" y2="181.377" gradientUnits="userSpaceOnUse">
<stop stop-color="#16D1C6"/>
<stop offset="0.925" stop-color="#0E5D89"/>
</linearGradient>
<linearGradient id="paint3_linear" x1="139.932" y1="68.4666" x2="234.556" y2="68.4666" gradientUnits="userSpaceOnUse">
<stop stop-color="#444B8C"/>
<stop offset="1" stop-color="#26264F"/>
</linearGradient>
<linearGradient id="paint4_linear" x1="235.585" y1="116.41" x2="178.729" y2="139.619" gradientUnits="userSpaceOnUse">
<stop stop-color="#311944"/>
<stop offset="1" stop-color="#A03976"/>
</linearGradient>
<linearGradient id="paint5_linear" x1="172.454" y1="32.927" x2="229.031" y2="32.927" gradientUnits="userSpaceOnUse">
<stop stop-color="#FE0555"/>
<stop offset="1" stop-color="#FF8700"/>
</linearGradient>
<linearGradient id="paint6_linear" x1="82.2958" y1="32.927" x2="200.739" y2="32.927" gradientUnits="userSpaceOnUse">
<stop stop-color="#FE0555"/>
<stop offset="1" stop-color="#FF8700"/>
</linearGradient>
<linearGradient id="paint7_linear" x1="118.06" y1="32.927" x2="200.739" y2="32.927" gradientUnits="userSpaceOnUse">
<stop stop-color="#FE0555"/>
<stop offset="1" stop-color="#FF8700"/>
</linearGradient>
<linearGradient id="paint8_linear" x1="200.739" y1="32.927" x2="319.183" y2="32.927" gradientUnits="userSpaceOnUse">
<stop stop-color="#FE0555"/>
<stop offset="1" stop-color="#FF8700"/>
</linearGradient>
<linearGradient id="paint9_linear" x1="200.739" y1="32.927" x2="283.419" y2="32.927" gradientUnits="userSpaceOnUse">
<stop stop-color="#FE0555"/>
<stop offset="1" stop-color="#FF8700"/>
</linearGradient>
<linearGradient id="paint10_linear" x1="82307.8" y1="105661" x2="59557.1" y2="130835" gradientUnits="userSpaceOnUse">
<stop stop-color="#311944"/>
<stop offset="1" stop-color="#A03976"/>
</linearGradient>
<linearGradient id="paint11_linear" x1="138.423" y1="4.76843" x2="28.6603" y2="4.76843" gradientUnits="userSpaceOnUse">
<stop stop-color="#16D1C6"/>
<stop offset="0.925" stop-color="#0E5D89"/>
</linearGradient>
<linearGradient id="paint12_linear" x1="138.89" y1="7.87097" x2="35.4868" y2="7.87097" gradientUnits="userSpaceOnUse">
<stop stop-color="#16D1C6"/>
<stop offset="0.925" stop-color="#0E5D89"/>
</linearGradient>
<linearGradient id="paint13_linear" x1="125.426" y1="20.3658" x2="47.4562" y2="20.3658" gradientUnits="userSpaceOnUse">
<stop stop-color="#16D1C6"/>
<stop offset="0.925" stop-color="#0E5D89"/>
</linearGradient>
<linearGradient id="paint14_linear" x1="235753" y1="299714" x2="316575" y2="299714" gradientUnits="userSpaceOnUse">
<stop stop-color="#6165D7"/>
<stop offset="1" stop-color="#AA80F9"/>
</linearGradient>
<linearGradient id="paint15_linear" x1="136064" y1="292161" x2="162942" y2="292161" gradientUnits="userSpaceOnUse">
<stop stop-color="#6165D7"/>
<stop offset="1" stop-color="#AA80F9"/>
</linearGradient>
<linearGradient id="paint16_linear" x1="104583" y1="57524.3" x2="103237" y2="65444.6" gradientUnits="userSpaceOnUse">
<stop stop-color="#6165D7"/>
<stop offset="1" stop-color="#AA80F9"/>
</linearGradient>
<linearGradient id="paint17_linear" x1="104583" y1="58302.5" x2="103237" y2="66222.1" gradientUnits="userSpaceOnUse">
<stop stop-color="#6165D7"/>
<stop offset="1" stop-color="#AA80F9"/>
</linearGradient>
<linearGradient id="paint18_linear" x1="121942" y1="69085.7" x2="140478" y2="69085.7" gradientUnits="userSpaceOnUse">
<stop stop-color="#6165D7"/>
<stop offset="1" stop-color="#AA80F9"/>
</linearGradient>
<linearGradient id="paint19_linear" x1="80045.9" y1="15213.4" x2="87636.4" y2="15213.4" gradientUnits="userSpaceOnUse">
<stop stop-color="#444B8C"/>
<stop offset="1" stop-color="#26264F"/>
</linearGradient>
<linearGradient id="paint20_linear" x1="108818" y1="56429.1" x2="123570" y2="56429.1" gradientUnits="userSpaceOnUse">
<stop stop-color="#6165D7"/>
<stop offset="1" stop-color="#AA80F9"/>
</linearGradient>
<linearGradient id="paint21_linear" x1="312.955" y1="293.384" x2="329.026" y2="353.422" gradientUnits="userSpaceOnUse">
<stop stop-color="#EBEFF2"/>
<stop offset="1" stop-color="white"/>
</linearGradient>
<linearGradient id="paint22_linear" x1="339.279" y1="215.26" x2="313.461" y2="223.518" gradientUnits="userSpaceOnUse">
<stop stop-color="#FCB148"/>
<stop offset="0.05" stop-color="#FDBA46"/>
<stop offset="0.14" stop-color="#FFC244"/>
<stop offset="0.32" stop-color="#FFC444"/>
<stop offset="0.48" stop-color="#FDB946"/>
<stop offset="0.78" stop-color="#F99C4D"/>
<stop offset="0.87" stop-color="#F8924F"/>
<stop offset="1" stop-color="#F8924F"/>
</linearGradient>
<linearGradient id="paint23_linear" x1="360.15" y1="189.492" x2="336.992" y2="240.419" gradientUnits="userSpaceOnUse">
<stop stop-color="#FFDB44"/>
<stop offset="1" stop-color="#FEEF06"/>
</linearGradient>
<linearGradient id="paint24_linear" x1="123456" y1="98596.6" x2="122019" y2="90907.4" gradientUnits="userSpaceOnUse">
<stop stop-color="#FCB148"/>
<stop offset="0.05" stop-color="#FDBA46"/>
<stop offset="0.14" stop-color="#FFC244"/>
<stop offset="0.32" stop-color="#FFC444"/>
<stop offset="0.48" stop-color="#FDB946"/>
<stop offset="0.78" stop-color="#F99C4D"/>
<stop offset="0.87" stop-color="#F8924F"/>
<stop offset="1" stop-color="#F8924F"/>
</linearGradient>
<linearGradient id="paint25_linear" x1="116424" y1="83201.7" x2="122110" y2="95019.2" gradientUnits="userSpaceOnUse">
<stop stop-color="#FCB148"/>
<stop offset="0.05" stop-color="#FDBA46"/>
<stop offset="0.14" stop-color="#FFC244"/>
<stop offset="0.32" stop-color="#FFC444"/>
<stop offset="0.48" stop-color="#FDB946"/>
<stop offset="0.78" stop-color="#F99C4D"/>
<stop offset="0.87" stop-color="#F8924F"/>
<stop offset="1" stop-color="#F8924F"/>
</linearGradient>
<linearGradient id="paint26_linear" x1="57543.8" y1="65799.2" x2="61001.6" y2="73478.9" gradientUnits="userSpaceOnUse">
<stop stop-color="#FFDB44"/>
<stop offset="1" stop-color="#FEEF06"/>
</linearGradient>
<linearGradient id="paint27_linear" x1="68612.6" y1="83752.5" x2="75687.8" y2="92545.8" gradientUnits="userSpaceOnUse">
<stop stop-color="#FCB148"/>
<stop offset="0.05" stop-color="#FDBA46"/>
<stop offset="0.14" stop-color="#FFC244"/>
<stop offset="0.32" stop-color="#FFC444"/>
<stop offset="0.48" stop-color="#FDB946"/>
<stop offset="0.78" stop-color="#F99C4D"/>
<stop offset="0.87" stop-color="#F8924F"/>
<stop offset="1" stop-color="#F8924F"/>
</linearGradient>
<linearGradient id="paint28_linear" x1="135557" y1="84260.5" x2="124552" y2="87718.6" gradientUnits="userSpaceOnUse">
<stop stop-color="#FCB148"/>
<stop offset="0.05" stop-color="#FDBA46"/>
<stop offset="0.14" stop-color="#FFC244"/>
<stop offset="0.32" stop-color="#FFC444"/>
<stop offset="0.48" stop-color="#FDB946"/>
<stop offset="0.78" stop-color="#F99C4D"/>
<stop offset="0.87" stop-color="#F8924F"/>
<stop offset="1" stop-color="#F8924F"/>
</linearGradient>
<linearGradient id="paint29_linear" x1="144429" y1="73114" x2="134294" y2="95005.8" gradientUnits="userSpaceOnUse">
<stop stop-color="#FFDB44"/>
<stop offset="1" stop-color="#FEEF06"/>
</linearGradient>
<linearGradient id="paint30_linear" x1="136131" y1="92011.9" x2="134253" y2="81969.6" gradientUnits="userSpaceOnUse">
<stop stop-color="#FCB148"/>
<stop offset="0.05" stop-color="#FDBA46"/>
<stop offset="0.14" stop-color="#FFC244"/>
<stop offset="0.32" stop-color="#FFC444"/>
<stop offset="0.48" stop-color="#FDB946"/>
<stop offset="0.78" stop-color="#F99C4D"/>
<stop offset="0.87" stop-color="#F8924F"/>
<stop offset="1" stop-color="#F8924F"/>
</linearGradient>
<linearGradient id="paint31_linear" x1="127802" y1="73146.7" x2="135227" y2="88578.5" gradientUnits="userSpaceOnUse">
<stop stop-color="#FCB148"/>
<stop offset="0.05" stop-color="#FDBA46"/>
<stop offset="0.14" stop-color="#FFC244"/>
<stop offset="0.32" stop-color="#FFC444"/>
<stop offset="0.48" stop-color="#FDB946"/>
<stop offset="0.78" stop-color="#F99C4D"/>
<stop offset="0.87" stop-color="#F8924F"/>
<stop offset="1" stop-color="#F8924F"/>
</linearGradient>
<linearGradient id="paint32_linear" x1="63076.3" y1="56945.9" x2="67593" y2="66972.1" gradientUnits="userSpaceOnUse">
<stop stop-color="#FFDB44"/>
<stop offset="1" stop-color="#FEEF06"/>
</linearGradient>
<linearGradient id="paint33_linear" x1="75100.5" y1="73964.5" x2="84340.3" y2="85448.1" gradientUnits="userSpaceOnUse">
<stop stop-color="#FCB148"/>
<stop offset="0.05" stop-color="#FDBA46"/>
<stop offset="0.14" stop-color="#FFC244"/>
<stop offset="0.32" stop-color="#FFC444"/>
<stop offset="0.48" stop-color="#FDB946"/>
<stop offset="0.78" stop-color="#F99C4D"/>
<stop offset="0.87" stop-color="#F8924F"/>
<stop offset="1" stop-color="#F8924F"/>
</linearGradient>
<linearGradient id="paint34_linear" x1="-76103.9" y1="5509.49" x2="-83936.6" y2="-3387.98" gradientUnits="userSpaceOnUse">
<stop stop-color="#311944"/>
<stop offset="1" stop-color="#6B3976"/>
</linearGradient>
<linearGradient id="paint35_linear" x1="31034.2" y1="21214.9" x2="32574.3" y2="21214.9" gradientUnits="userSpaceOnUse">
<stop stop-color="#444B8C"/>
<stop offset="1" stop-color="#26264F"/>
</linearGradient>
<linearGradient id="paint36_linear" x1="12742.5" y1="23322.4" x2="12307.6" y2="24318.8" gradientUnits="userSpaceOnUse">
<stop stop-color="#311944"/>
<stop offset="1" stop-color="#A03976"/>
</linearGradient>
<linearGradient id="paint37_linear" x1="17036.9" y1="42293.9" x2="17726.3" y2="42293.9" gradientUnits="userSpaceOnUse">
<stop stop-color="#444B8C"/>
<stop offset="1" stop-color="#26264F"/>
</linearGradient>
<linearGradient id="paint38_linear" x1="12669.4" y1="19689.4" x2="12366.4" y2="20629.1" gradientUnits="userSpaceOnUse">
<stop stop-color="#311944"/>
<stop offset="1" stop-color="#A03976"/>
</linearGradient>
<linearGradient id="paint39_linear" x1="63832.9" y1="336598" x2="44115.3" y2="284623" gradientUnits="userSpaceOnUse">
<stop stop-color="#444B8C"/>
<stop offset="1" stop-color="#26264F"/>
</linearGradient>
<linearGradient id="paint40_linear" x1="55170.4" y1="336671" x2="33328.7" y2="286778" gradientUnits="userSpaceOnUse">
<stop stop-color="#444B8C"/>
<stop offset="1" stop-color="#26264F"/>
</linearGradient>
<linearGradient id="paint41_linear" x1="108681" y1="318506" x2="98496.4" y2="264560" gradientUnits="userSpaceOnUse">
<stop stop-color="#444B8C"/>
<stop offset="1" stop-color="#26264F"/>
</linearGradient>
<linearGradient id="paint42_linear" x1="156098" y1="184724" x2="108961" y2="238408" gradientUnits="userSpaceOnUse">
<stop stop-color="#FFC444"/>
<stop offset="1" stop-color="#F36F56"/>
</linearGradient>
<linearGradient id="paint43_linear" x1="94541.6" y1="162122" x2="54149" y2="193804" gradientUnits="userSpaceOnUse">
<stop stop-color="#FFC444"/>
<stop offset="1" stop-color="#F36F56"/>
</linearGradient>
<linearGradient id="paint44_linear" x1="69499.7" y1="33518.6" x2="70442.9" y2="28945.1" gradientUnits="userSpaceOnUse">
<stop stop-color="#311944"/>
<stop offset="1" stop-color="#A03976"/>
</linearGradient>
<linearGradient id="paint45_linear" x1="37744.9" y1="26995.2" x2="38819.1" y2="23488.8" gradientUnits="userSpaceOnUse">
<stop stop-color="#311944"/>
<stop offset="1" stop-color="#A03976"/>
</linearGradient>
<linearGradient id="paint46_linear" x1="12187.6" y1="9833.35" x2="12117.1" y2="9444.52" gradientUnits="userSpaceOnUse">
<stop stop-color="#311944"/>
<stop offset="1" stop-color="#A03976"/>
</linearGradient>
<linearGradient id="paint47_linear" x1="9855.04" y1="11757.8" x2="9709.98" y2="11307.3" gradientUnits="userSpaceOnUse">
<stop stop-color="#311944"/>
<stop offset="1" stop-color="#A03976"/>
</linearGradient>
<linearGradient id="paint48_linear" x1="304.129" y1="179.585" x2="309.396" y2="179.585" gradientUnits="userSpaceOnUse">
<stop stop-color="#311944"/>
<stop offset="1" stop-color="#6B3976"/>
</linearGradient>
<linearGradient id="paint49_linear" x1="4408.36" y1="5130.08" x2="4361.31" y2="5188.17" gradientUnits="userSpaceOnUse">
<stop stop-color="#311944"/>
<stop offset="1" stop-color="#A03976"/>
</linearGradient>
<linearGradient id="paint50_linear" x1="13930.9" y1="4611.65" x2="14134.8" y2="4611.65" gradientUnits="userSpaceOnUse">
<stop stop-color="#311944"/>
<stop offset="1" stop-color="#6B3976"/>
</linearGradient>
<linearGradient id="paint51_linear" x1="4511.34" y1="5214.43" x2="4464.31" y2="5272.54" gradientUnits="userSpaceOnUse">
<stop stop-color="#311944"/>
<stop offset="1" stop-color="#A03976"/>
</linearGradient>
<linearGradient id="paint52_linear" x1="42119.4" y1="29886.2" x2="41915.2" y2="31789.5" gradientUnits="userSpaceOnUse">
<stop stop-color="#444B8C"/>
<stop offset="1" stop-color="#26264F"/>
</linearGradient>
<linearGradient id="paint53_linear" x1="63336.8" y1="33667.1" x2="63068.8" y2="37036.7" gradientUnits="userSpaceOnUse">
<stop stop-color="#444B8C"/>
<stop offset="1" stop-color="#26264F"/>
</linearGradient>
<linearGradient id="paint54_linear" x1="110405" y1="83998.7" x2="106949" y2="71591.3" gradientUnits="userSpaceOnUse">
<stop stop-color="#FF9085"/>
<stop offset="1" stop-color="#FB6FBB"/>
</linearGradient>
<linearGradient id="paint55_linear" x1="-22780" y1="1244.72" x2="-24191.5" y2="-1134.09" gradientUnits="userSpaceOnUse">
<stop stop-color="#311944"/>
<stop offset="1" stop-color="#6B3976"/>
</linearGradient>
<linearGradient id="paint56_linear" x1="18258.3" y1="20372.4" x2="18071.2" y2="18331.1" gradientUnits="userSpaceOnUse">
<stop stop-color="#311944"/>
<stop offset="1" stop-color="#A03976"/>
</linearGradient>
<linearGradient id="paint57_linear" x1="128863" y1="69228" x2="116374" y2="100919" gradientUnits="userSpaceOnUse">
<stop stop-color="#FFC444"/>
<stop offset="1" stop-color="#F36F56"/>
</linearGradient>
<linearGradient id="paint58_linear" x1="19803.6" y1="14831.8" x2="21076.2" y2="14831.8" gradientUnits="userSpaceOnUse">
<stop stop-color="#311944"/>
<stop offset="1" stop-color="#6B3976"/>
</linearGradient>
<linearGradient id="paint59_linear" x1="5513.3" y1="13085.9" x2="5392.31" y2="14036.4" gradientUnits="userSpaceOnUse">
<stop stop-color="#FFC444"/>
<stop offset="1" stop-color="#F36F56"/>
</linearGradient>
<linearGradient id="paint60_linear" x1="16247.5" y1="20827.2" x2="17651.6" y2="20827.2" gradientUnits="userSpaceOnUse">
<stop stop-color="#311944"/>
<stop offset="1" stop-color="#6B3976"/>
</linearGradient>
<linearGradient id="paint61_linear" x1="5469.75" y1="18528.5" x2="5268.33" y2="19893" gradientUnits="userSpaceOnUse">
<stop stop-color="#FFC444"/>
<stop offset="1" stop-color="#F36F56"/>
</linearGradient>
<linearGradient id="paint62_linear" x1="59517" y1="222116" x2="51041.4" y2="238792" gradientUnits="userSpaceOnUse">
<stop stop-color="#311944"/>
<stop offset="1" stop-color="#6B3976"/>
</linearGradient>
<linearGradient id="paint63_linear" x1="38242.5" y1="214824" x2="28399.7" y2="226500" gradientUnits="userSpaceOnUse">
<stop stop-color="#311944"/>
<stop offset="1" stop-color="#6B3976"/>
</linearGradient>
<linearGradient id="paint64_linear" x1="49740.1" y1="214490" x2="40862.6" y2="229455" gradientUnits="userSpaceOnUse">
<stop stop-color="#311944"/>
<stop offset="1" stop-color="#6B3976"/>
</linearGradient>
<linearGradient id="paint65_linear" x1="148.511" y1="236.537" x2="182.537" y2="280.596" gradientUnits="userSpaceOnUse">
<stop stop-color="#AA80F9"/>
<stop offset="1" stop-color="#6165D7"/>
</linearGradient>
<linearGradient id="paint66_linear" x1="58569.2" y1="138388" x2="74450.9" y2="152182" gradientUnits="userSpaceOnUse">
<stop stop-color="#AA80F9"/>
<stop offset="1" stop-color="#6165D7"/>
</linearGradient>
<linearGradient id="paint67_linear" x1="51181.5" y1="209118" x2="70304.3" y2="218181" gradientUnits="userSpaceOnUse">
<stop stop-color="#AA80F9"/>
<stop offset="1" stop-color="#6165D7"/>
</linearGradient>
<linearGradient id="paint68_linear" x1="67076.6" y1="33210.6" x2="68033.2" y2="28688.9" gradientUnits="userSpaceOnUse">
<stop stop-color="#311944"/>
<stop offset="1" stop-color="#A03976"/>
</linearGradient>
<linearGradient id="paint69_linear" x1="37327.4" y1="76101.4" x2="35383.1" y2="76952.3" gradientUnits="userSpaceOnUse">
<stop stop-color="#444B8C"/>
<stop offset="1" stop-color="#26264F"/>
</linearGradient>
<linearGradient id="paint70_linear" x1="34544.7" y1="81967.5" x2="31248.2" y2="87935.7" gradientUnits="userSpaceOnUse">
<stop stop-color="#444B8C"/>
<stop offset="1" stop-color="#26264F"/>
</linearGradient>
<linearGradient id="paint71_linear" x1="7714.88" y1="23610.3" x2="6673.04" y2="20703.2" gradientUnits="userSpaceOnUse">
<stop stop-color="#311944"/>
<stop offset="1" stop-color="#A03976"/>
</linearGradient>
<linearGradient id="paint72_linear" x1="5854.39" y1="28140.8" x2="4746.39" y2="24758.6" gradientUnits="userSpaceOnUse">
<stop stop-color="#311944"/>
<stop offset="1" stop-color="#A03976"/>
</linearGradient>
<linearGradient id="paint73_linear" x1="-61392.3" y1="2467.99" x2="-64069" y2="-3148.73" gradientUnits="userSpaceOnUse">
<stop stop-color="#311944"/>
<stop offset="1" stop-color="#6B3976"/>
</linearGradient>
<linearGradient id="paint74_linear" x1="91212.9" y1="116049" x2="152613" y2="116049" gradientUnits="userSpaceOnUse">
<stop stop-color="#FF9085"/>
<stop offset="1" stop-color="#FB6FBB"/>
</linearGradient>
<linearGradient id="paint75_linear" x1="50882.1" y1="93355" x2="69957.1" y2="93355" gradientUnits="userSpaceOnUse">
<stop stop-color="#FF9085"/>
<stop offset="1" stop-color="#FB6FBB"/>
</linearGradient>
<linearGradient id="paint76_linear" x1="24942.4" y1="18523.2" x2="25023.6" y2="16135.8" gradientUnits="userSpaceOnUse">
<stop stop-color="#311944"/>
<stop offset="1" stop-color="#A03976"/>
</linearGradient>
<linearGradient id="paint77_linear" x1="-18030.7" y1="10905.4" x2="-16415.4" y2="12213.6" gradientUnits="userSpaceOnUse">
<stop stop-color="#311944"/>
<stop offset="1" stop-color="#A03976"/>
</linearGradient>
<linearGradient id="paint78_linear" x1="-13512.3" y1="1109.04" x2="-14848.2" y2="-476.424" gradientUnits="userSpaceOnUse">
<stop stop-color="#311944"/>
<stop offset="1" stop-color="#6B3976"/>
</linearGradient>
<linearGradient id="paint79_linear" x1="31826.2" y1="20277.1" x2="32553.8" y2="17601.7" gradientUnits="userSpaceOnUse">
<stop stop-color="#311944"/>
<stop offset="1" stop-color="#A03976"/>
</linearGradient>
<linearGradient id="paint80_linear" x1="-13414.4" y1="694.911" x2="-13967.3" y2="-513.452" gradientUnits="userSpaceOnUse">
<stop stop-color="#311944"/>
<stop offset="1" stop-color="#6B3976"/>
</linearGradient>
<linearGradient id="paint81_linear" x1="6417.24" y1="2908.21" x2="6486.63" y2="2534.19" gradientUnits="userSpaceOnUse">
<stop stop-color="#311944"/>
<stop offset="1" stop-color="#A03976"/>
</linearGradient>
<linearGradient id="paint82_linear" x1="24544.3" y1="33804.9" x2="26649.5" y2="30238.5" gradientUnits="userSpaceOnUse">
<stop stop-color="#311944"/>
<stop offset="1" stop-color="#A03976"/>
</linearGradient>
<linearGradient id="paint83_linear" x1="105707" y1="83597.6" x2="102678" y2="96416.7" gradientUnits="userSpaceOnUse">
<stop stop-color="#AA80F9"/>
<stop offset="1" stop-color="#6165D7"/>
</linearGradient>
</defs>
</svg>
