<svg width="295" height="303" viewBox="0 0 295 303" fill="none" xmlns="http://www.w3.org/2000/svg">
<mask id="mask0" mask-type="alpha" maskUnits="userSpaceOnUse" x="57" y="40" width="238" height="263">
<path d="M57 80C57 57.9086 74.9086 40 97 40H255C277.091 40 295 57.9086 295 80V263C295 285.091 277.091 303 255 303H97C74.9086 303 57 285.091 57 263V80Z" fill="white"/>
</mask>
<g mask="url(#mask0)">
<path d="M251.59 103.804C246.908 40.5042 175.516 9.52429 132.24 34.0419C130.921 34.794 129.614 35.0939 128.051 33.1888C128.829 30.8219 129.448 27.9693 130.671 25.4294C134.958 16.4849 132.568 11.7535 122.658 9.29298C111.479 6.52924 100.556 2.57235 89.7356 -1.41921C83.2103 -3.83868 79.9755 -2.39367 77.7694 4.38427C52.5404 81.5216 27.1879 158.618 1.67069 235.661C-0.461467 242.075 1.47471 244.787 7.56587 246.585C18.294 249.748 28.8258 253.508 39.4524 256.98C52.9125 261.406 52.9604 261.399 57.3663 248.001C65.3392 223.825 73.2776 199.614 81.7172 173.95C83.5911 176.505 84.6638 177.473 85.1139 178.67C100.423 218.53 171.039 238.764 210.714 204.943C241.951 178.337 254.533 143.612 251.59 103.804ZM163.196 186.809C123.303 192.369 91.7652 156.363 100.944 117.007C107.274 89.7818 107.233 89.8368 133.621 99.1983C143.466 102.687 153.447 105.764 163.368 109.026C163.232 109.437 193.43 119.071 208.583 123.689C215.299 125.738 216.447 130.084 214.118 136.821C205.423 162.083 191.763 182.815 163.196 186.809Z" fill="url(#paint0_linear)"/>
</g>
<defs>
<linearGradient id="paint0_linear" x1="81.3019" y1="-6.49695" x2="277.473" y2="58.0122" gradientUnits="userSpaceOnUse">
<stop stop-color="#FE0555"/>
<stop offset="1" stop-color="#FF8700"/>
</linearGradient>
</defs>
</svg>
