<svg width="147" height="140" viewBox="0 0 147 140" fill="none" xmlns="http://www.w3.org/2000/svg">
<path d="M61.1784 138.634C24.8137 133.128 -4.7369 98.7465 0.631708 60.5328C5.21191 27.9426 33.7852 2.58008 68.0495 0.185013C70.5302 0.0105095 73.0382 -0.0407948 75.5734 0.0311008C94.6878 0.582882 111.672 8.22876 124.233 19.7984C136.735 31.3125 144.859 46.7131 146.336 62.8702C150.274 105.859 106.407 145.484 61.1784 138.634Z" fill="#FDDFF8"/>
<path d="M27.0516 136.659C18.5477 135.567 7.76594 132.696 3.43545 124.601C2.40518 122.676 1.37177 118.935 3.97205 117.526C6.34879 116.238 9.42233 117.599 11.1887 119.274C12.4875 120.506 13.501 123.256 14.9579 124.126C17.0939 125.398 18.2435 121.927 18.1985 120.493C18.098 117.288 14.1564 115.976 11.5373 115.28C7.18903 114.126 2.12615 113.134 2.3989 108.236C2.67165 103.337 7.44869 100.397 11.1243 102.54C14.1523 104.307 13.7261 108.076 15.795 110.34C17.6331 112.35 18.2728 109.088 18.1508 107.489C17.8838 104.016 14.8302 101.503 12.5828 99.1752C10.0443 96.5414 7.23719 91.2477 9.94584 87.7679C11.5043 85.7655 15.4631 85.2964 17.8032 85.6341C29.2571 87.2878 21.662 102.111 23.7445 103.764C25.8271 105.418 27.7976 102.523 27.7923 98.1214C27.7871 93.7197 28.4609 90.4729 33.0547 91.8817C37.6485 93.2904 38.5228 104.788 33.2772 109.21C28.0316 113.631 33.6065 118.449 35.0147 115.283C36.0314 112.996 36.925 107.008 39.8635 106.351C44.7588 105.259 44.6866 115.256 43.2773 117.582C41.3026 120.844 36.8381 121.552 34.3425 124.366C33.618 125.183 31.982 127.208 32.6149 128.403C33.5012 130.069 35.9738 128.287 36.8821 127.513C38.9238 125.776 41.7507 119.875 44.63 123.796C48.1826 128.633 42.2418 135.805 27.0516 136.659Z" fill="url(#paint0_linear)"/>
<g style="mix-blend-mode:soft-light" opacity="0.8">
<g style="mix-blend-mode:soft-light" opacity="0.8">
<path d="M25.8256 135.938C26.0256 135.938 26.1889 135.709 26.1921 135.508C26.1952 135.335 26.4318 117.869 18.8195 97.135C18.7871 97.0421 18.7198 96.9654 18.6318 96.9214C18.5438 96.8774 18.4421 96.8695 18.3483 96.8994C18.3032 96.9151 18.2617 96.9395 18.2262 96.9714C18.1907 97.0033 18.162 97.042 18.1416 97.0851C18.1213 97.1283 18.1098 97.1751 18.1078 97.2228C18.1058 97.2704 18.1133 97.318 18.13 97.3627C25.6953 117.966 25.4592 135.324 25.4592 135.496C25.4555 135.7 25.6162 135.935 25.8199 135.935L25.8256 135.938Z" fill="white"/>
</g>
</g>
<path d="M20.2847 135.223C20.57 133.436 23.9875 132.926 25.3627 132.665C26.1616 132.515 27.2997 132.36 27.7086 131.534C28.14 130.668 27.4845 129.998 26.6443 129.844C25.1397 129.569 23.5215 130.525 22.1232 130.96C20.6213 131.427 19.0633 131.647 17.5739 131.002C16.3866 130.488 15.1705 129.266 14.9124 127.98C14.1973 124.42 17.7629 124.625 20.0863 125.125C21.2139 125.368 23.4305 125.551 23.6294 123.958C23.8388 122.263 21.684 121.408 20.3517 121.357C18.6105 121.291 16.8965 121.671 15.1689 121.799C13.6115 121.912 11.7661 121.742 11.3353 119.95C11.0018 118.566 11.7813 116.974 12.9058 116.153C15.5082 114.254 18.9377 117.492 21.716 117.485C22.6981 117.485 24.3194 116.762 24.5911 115.705C24.867 114.631 23.4713 113.907 22.7064 113.515C20.4386 112.354 10.0212 110.867 13.7544 106.369C14.6936 105.237 16.5081 104.285 17.9729 104.245C20.7359 104.169 23.8409 106.044 25.9695 107.663C29.32 110.207 32.2474 113.709 34.1499 117.462C38.3537 125.755 36.3172 131.316 36.3172 131.316C35.0985 133.326 33.2123 135.416 31.1344 136.548C28.6928 137.879 24.9109 138.463 22.2552 137.429C21.4008 137.096 20.1083 136.328 20.2847 135.223Z" fill="url(#paint1_linear)"/>
<g style="mix-blend-mode:multiply" opacity="0.7">
<path d="M133.993 85.799L130.464 86.0372C130.065 84.4779 129.531 82.9565 128.867 81.4905L131.794 79.5258C131.984 79.3974 132.147 79.2327 132.273 79.0411C132.399 78.8495 132.486 78.6349 132.529 78.4095C132.571 78.1842 132.569 77.9526 132.522 77.7282C132.474 77.5038 132.383 77.2909 132.253 77.1019L128.838 72.0762C128.577 71.69 128.175 71.422 127.718 71.3306C127.261 71.2391 126.786 71.3316 126.397 71.5878L123.43 73.5682C122.302 72.4118 121.078 71.3539 119.77 70.4062L121.334 67.1935C121.756 66.3276 121.387 65.2753 120.509 64.8434L115.012 62.1379C114.131 61.7044 113.075 62.0562 112.649 62.9232L111.073 66.1459C109.514 65.6956 107.919 65.3803 106.306 65.2036L106.032 61.5914C105.992 61.1213 105.771 60.6854 105.414 60.3766C105.057 60.0679 104.594 59.9109 104.123 59.9392L97.9778 60.302C97.746 60.3136 97.5188 60.3714 97.3096 60.472C97.1004 60.5727 96.9135 60.7141 96.7598 60.888C96.606 61.0619 96.4886 61.2648 96.4144 61.4848C96.3402 61.7047 96.3107 61.9373 96.3277 62.1688L96.6025 65.7941C95.0208 66.1647 93.4744 66.6727 91.981 67.3123L89.9073 64.2927C89.6379 63.9006 89.2262 63.629 88.7597 63.5356C88.2932 63.4423 87.8087 63.5345 87.4091 63.7927L82.2656 67.172C82.0698 67.2997 81.9017 67.4655 81.7712 67.6596C81.6408 67.8536 81.5507 68.0719 81.5063 68.3014C81.4619 68.5309 81.4641 68.7671 81.5128 68.9957C81.5615 69.2244 81.6557 69.441 81.7898 69.6325L83.8697 72.6552C82.6899 73.7709 81.61 74.9877 80.6422 76.2915L77.3142 74.6844C76.4133 74.2488 75.3301 74.609 74.8951 75.489L72.1728 80.9974C71.7368 81.8795 72.1158 82.9464 73.0194 83.3799L76.3227 84.9656C75.8696 86.5317 75.5583 88.1354 75.3924 89.7573L71.7352 90.0038C70.7337 90.0714 69.9819 90.9221 70.0563 91.9037L70.5222 98.0418C70.5965 99.0234 71.4692 99.7621 72.4702 99.6914L76.0976 99.4365C76.5007 101.029 77.0456 102.583 77.7257 104.078L74.7417 106.068C74.5455 106.197 74.3772 106.364 74.2465 106.559C74.1159 106.754 74.0256 106.973 73.981 107.204C73.9364 107.434 73.9384 107.671 73.9869 107.901C74.0354 108.131 74.1293 108.348 74.2632 108.541L77.7896 113.619C78.0654 114.009 78.4823 114.275 78.9516 114.362C79.4209 114.449 79.9056 114.349 80.3025 114.084L83.2634 112.095C84.4267 113.272 85.691 114.345 87.0416 115.301L85.4941 118.467C85.3915 118.677 85.3318 118.906 85.3187 119.14C85.3055 119.373 85.3391 119.607 85.4175 119.828C85.4959 120.048 85.6175 120.251 85.7753 120.424C85.933 120.597 86.1236 120.736 86.3359 120.834L91.9375 123.472C92.3671 123.674 92.8589 123.7 93.3071 123.543C93.7554 123.387 94.1242 123.06 94.3342 122.634L95.8612 119.498C97.4596 119.938 99.0935 120.236 100.744 120.388L101.006 123.855C101.024 124.088 101.089 124.314 101.195 124.521C101.302 124.729 101.448 124.913 101.626 125.064C101.804 125.215 102.01 125.329 102.232 125.4C102.454 125.471 102.688 125.498 102.92 125.478L109.057 124.994C109.525 124.958 109.961 124.739 110.268 124.384C110.575 124.028 110.729 123.566 110.696 123.097L110.434 119.642C112.029 119.24 113.585 118.698 115.084 118.023L117.043 120.869C117.31 121.255 117.718 121.518 118.178 121.604C118.639 121.689 119.114 121.588 119.5 121.323L124.533 117.892C124.724 117.763 124.887 117.597 125.014 117.404C125.14 117.211 125.227 116.995 125.27 116.769C125.313 116.542 125.311 116.309 125.264 116.083C125.216 115.858 125.125 115.644 124.995 115.453L123.03 112.589C124.193 111.456 125.254 110.222 126.201 108.904L129.342 110.411C129.762 110.612 130.244 110.639 130.683 110.486C131.122 110.333 131.482 110.011 131.684 109.593L134.305 104.152C134.506 103.734 134.532 103.253 134.378 102.815C134.225 102.377 133.903 102.018 133.485 101.817L130.339 100.299C130.77 98.7465 131.063 97.1591 131.213 95.5551L134.714 95.3091C134.942 95.2933 135.165 95.2325 135.37 95.1301C135.575 95.0276 135.758 94.8857 135.908 94.7123C136.058 94.539 136.172 94.3377 136.243 94.1201C136.315 93.9025 136.343 93.6728 136.326 93.4444L135.869 87.4277C135.834 86.9638 135.617 86.5324 135.266 86.2274C134.915 85.9224 134.457 85.7685 133.993 85.799ZM102.181 74.9875C112.071 74.3593 120.646 81.7648 121.387 91.5246C122.128 101.284 114.76 109.789 104.877 110.524C94.9346 111.264 86.2234 103.87 85.4748 94.0009C84.7261 84.1316 92.2296 75.6199 102.181 74.9875Z" fill="#91B3FA"/>
</g>
<g style="mix-blend-mode:multiply" opacity="0.7">
<path d="M122.839 32.4188L120.899 32.5497C120.679 31.6924 120.385 30.856 120.02 30.0499L121.63 28.9699C121.734 28.8993 121.824 28.8087 121.893 28.7034C121.962 28.5981 122.01 28.4801 122.033 28.3562C122.057 28.2324 122.056 28.1051 122.029 27.9817C122.003 27.8584 121.953 27.7414 121.882 27.6376L120.005 24.875C119.861 24.6628 119.64 24.5156 119.389 24.4653C119.138 24.4151 118.877 24.4658 118.663 24.6065L117.031 25.6954C116.411 25.0595 115.738 24.4779 115.019 23.9568L115.879 22.191C115.99 21.9594 116.004 21.6935 115.919 21.4515C115.834 21.2094 115.657 21.0107 115.426 20.8989L112.403 19.4116C112.289 19.3544 112.166 19.3202 112.039 19.311C111.912 19.3018 111.784 19.3176 111.664 19.3578C111.543 19.3979 111.431 19.4615 111.335 19.5448C111.239 19.6282 111.161 19.7297 111.104 19.8435L110.237 21.6156C109.38 21.3676 108.504 21.1938 107.617 21.0963L107.466 19.1096C107.444 18.8517 107.322 18.6126 107.127 18.443C106.931 18.2734 106.677 18.1867 106.419 18.2013L103.04 18.4002C102.912 18.4064 102.787 18.438 102.672 18.4933C102.557 18.5485 102.454 18.6262 102.369 18.7219C102.284 18.8176 102.22 18.9292 102.179 19.0503C102.138 19.1713 102.121 19.2994 102.131 19.4268L102.282 21.4198C101.412 21.6244 100.562 21.9047 99.7415 22.2575L98.6018 20.5958C98.4536 20.3803 98.2272 20.231 97.9707 20.1797C97.7142 20.1284 97.4478 20.179 97.2281 20.321L94.4011 22.1779C94.2937 22.2481 94.2014 22.3393 94.1298 22.4458C94.0582 22.5524 94.0087 22.6723 93.9843 22.7984C93.9599 22.9244 93.961 23.0541 93.9877 23.1797C94.0143 23.3053 94.0659 23.4243 94.1394 23.5296L95.2827 25.1912C94.6342 25.8047 94.0405 26.4737 93.5085 27.1905L91.6763 26.3068C91.441 26.1909 91.1695 26.1723 90.9206 26.2551C90.6717 26.3379 90.4655 26.5154 90.3465 26.7492L88.8498 29.7777C88.7935 29.894 88.7609 30.0204 88.7538 30.1495C88.7468 30.2785 88.7654 30.4077 88.8087 30.5295C88.852 30.6512 88.9191 30.7632 89.0061 30.8588C89.093 30.9545 89.1981 31.0318 89.3152 31.0865L91.1313 31.9581C90.8822 32.8192 90.711 33.7008 90.6198 34.5925L88.609 34.7281C88.4793 34.7353 88.3524 34.7682 88.2356 34.825C88.1188 34.8817 88.0144 34.9611 87.9285 35.0585C87.8426 35.1559 87.777 35.2694 87.7354 35.3925C87.6937 35.5155 87.677 35.6455 87.6861 35.7751L87.9421 39.1496C87.9643 39.4118 88.0895 39.6544 88.2903 39.8244C88.491 39.9945 88.7509 40.078 89.0132 40.0569L91.0077 39.9161C91.2289 40.792 91.5283 41.6463 91.9024 42.4687L90.2638 43.5608C90.1558 43.6317 90.0631 43.7236 89.9912 43.831C89.9194 43.9384 89.8698 44.0591 89.8453 44.186C89.8209 44.3129 89.8222 44.4434 89.8492 44.5698C89.8761 44.6962 89.9281 44.8159 90.0021 44.9219L91.9391 47.7138C92.0904 47.9287 92.3198 48.0757 92.5783 48.1235C92.8367 48.1712 93.1036 48.1159 93.3217 47.9693L94.9498 46.8767C95.5893 47.5238 96.2842 48.1138 97.0265 48.6399L96.1758 50.38C96.1194 50.4956 96.0867 50.6213 96.0794 50.7498C96.0722 50.8782 96.0907 51.0068 96.1338 51.128C96.1769 51.2492 96.2437 51.3606 96.3304 51.4556C96.4171 51.5507 96.5219 51.6274 96.6386 51.6815L99.7174 53.1316C99.9539 53.2439 100.225 53.2584 100.472 53.172C100.72 53.0856 100.923 52.9051 101.038 52.6699L101.875 50.9454C102.754 51.1873 103.652 51.3511 104.56 51.4349L104.704 53.341C104.715 53.4686 104.751 53.5929 104.809 53.7067C104.868 53.8206 104.948 53.9217 105.046 54.0044C105.144 54.087 105.257 54.1496 105.379 54.1885C105.501 54.2274 105.63 54.2418 105.757 54.231L109.131 53.9645C109.388 53.9452 109.628 53.8246 109.797 53.6292C109.965 53.4337 110.05 53.1793 110.032 52.9217L109.888 51.0219C110.764 50.801 111.62 50.5032 112.444 50.1319L113.521 51.6972C113.667 51.9088 113.892 52.0538 114.145 52.1006C114.398 52.1474 114.659 52.0921 114.872 51.9469L117.639 50.0623C117.744 49.991 117.833 49.8998 117.903 49.7938C117.972 49.6878 118.02 49.5691 118.044 49.4446C118.067 49.32 118.066 49.1921 118.04 49.068C118.014 48.9439 117.964 48.8262 117.893 48.7215L116.812 47.1468C117.452 46.5236 118.035 45.8455 118.556 45.1203L120.284 45.949C120.514 46.0599 120.779 46.0749 121.02 45.9906C121.262 45.9063 121.46 45.7296 121.571 45.4993L123.012 42.5085C123.122 42.2784 123.137 42.0139 123.052 41.7732C122.968 41.5324 122.791 41.335 122.561 41.2243L120.834 40.3867C121.071 39.5334 121.232 38.6608 121.314 37.7791L123.235 37.6451C123.36 37.6364 123.483 37.603 123.596 37.5468C123.708 37.4905 123.809 37.4124 123.891 37.3171C123.974 37.2219 124.036 37.1112 124.076 36.9915C124.115 36.8719 124.13 36.7456 124.121 36.62L123.87 33.3125C123.85 33.0578 123.731 32.821 123.538 32.6537C123.345 32.4864 123.094 32.402 122.839 32.4188ZM105.349 26.4749C110.787 26.1294 115.501 30.2007 115.908 35.5667C116.315 40.9327 112.265 45.6077 106.832 46.0118C101.365 46.4186 96.5763 42.3525 96.1648 36.9279C95.7534 31.5032 99.8786 26.8225 105.349 26.4749Z" fill="#91B3FA"/>
</g>
<path d="M126.048 132.583C127.109 133.44 127.169 134.048 127.134 134.346C127.079 134.824 126.719 135.01 125.855 135.914C124.687 137.135 124.866 137.299 124.271 137.741C122.959 138.716 121.103 138.651 120.991 138.32C120.912 138.087 121.752 137.897 122.707 136.79C123.295 136.117 123.725 135.322 123.967 134.461C124.083 134.027 124.147 133.581 124.157 133.132L126.048 132.583Z" fill="url(#paint2_linear)"/>
<path d="M122.498 129.97L124.587 133.609C125.09 133.832 125.571 133.72 126.017 133.071L125.202 128.646L122.498 129.97Z" fill="url(#paint3_linear)"/>
<path d="M119.965 83.2856C117.93 86.7208 114.629 93.3506 113.961 102.316C113.302 111.163 115.532 117.908 116.47 120.423C118.222 125.135 121.268 130.084 123.038 132.442C124.232 131.943 124.934 131.16 126.127 130.662C125.948 130.013 125.394 127.868 125.046 126.59C124.776 125.601 124.278 123.769 124.176 123.378C123.319 120.101 123.996 117.641 123.757 113.588C123.482 108.861 122.399 109.41 122.562 106.573C122.805 102.336 125.206 101.347 127.963 95.2132C129.847 91.0147 131.831 86.6051 130.01 84.1944C127.721 81.1564 120.744 83.0641 119.965 83.2856Z" fill="url(#paint4_linear)"/>
<path d="M134.691 135.908C135.327 136.313 135.711 137.275 135.421 137.88C135.136 138.476 134.41 138.288 132.646 138.83C130.757 139.411 130.383 139.997 128.99 139.996C128.427 139.996 127.407 139.898 127.321 139.52C127.262 139.254 127.695 138.989 129.121 138.031C131.146 136.67 131.124 136.633 131.576 136.424C132.71 135.902 133.851 135.376 134.691 135.908Z" fill="url(#paint5_linear)"/>
<path d="M131.67 133.029L132.445 136.573C132.553 136.73 133.658 137.11 134.432 136.573L134.146 133.029H131.67Z" fill="url(#paint6_linear)"/>
<path style="mix-blend-mode:multiply" opacity="0.3" d="M130.013 84.1913C127.72 81.1549 120.743 83.0641 119.962 83.2856C118.861 85.1464 117.899 87.0852 117.082 89.0866C119.555 88.6003 120.628 89.0421 121.128 89.6284C123.069 91.9047 116.992 96.9304 118.241 104.557C118.73 107.541 120.006 108.882 119.772 112.525C119.599 115.236 118.756 116.608 118.174 118.593C117.757 120.031 117.544 121.52 117.542 123.017C119.29 126.86 121.587 130.515 123.033 132.441C124.227 131.941 124.929 131.159 126.122 130.661C125.943 130.012 125.389 127.867 125.041 126.589C124.771 125.599 124.273 123.768 124.171 123.377C123.314 120.099 123.99 117.64 123.752 113.587C123.477 108.86 122.394 109.409 122.557 106.572C122.8 102.335 125.201 101.345 127.958 95.2117C129.852 91.0116 131.834 86.602 130.013 84.1913Z" fill="url(#paint7_linear)"/>
<path d="M125.414 85.1482C124.999 101.768 126.916 118.364 131.111 134.45C131.346 134.583 132.169 135.01 133.223 134.81C133.767 134.704 134.274 134.454 134.689 134.086C134.422 132.174 134.349 130.241 134.47 128.315C134.731 124.138 135.717 123.287 136.139 118.963C136.509 115.173 136.119 112.076 135.93 110.64C135.348 106.22 134.558 106.128 134.542 103.482C134.518 99.405 136.382 97.9454 137.406 94.062C138.09 91.4711 138.453 87.6034 136.733 82.2992L125.414 85.1482Z" fill="url(#paint8_linear)"/>
<path d="M121.38 53.6064C119.455 54.6791 117.729 56.0733 116.275 57.7286C112.136 62.4674 109.577 70.2656 112.237 72.8166C114.047 74.5526 118.338 74.0264 119.817 71.967C120.904 70.4514 120.121 68.5908 119.746 65.9466C119.342 63.0998 119.359 58.9719 121.38 53.6064Z" fill="url(#paint9_linear)"/>
<path d="M137.451 84.2049C135.918 64.0073 131.033 55.7395 131.46 53.2853C130.845 52.8429 128.416 52.1403 122.912 52.8665C121.815 53.276 120.807 53.8927 119.943 54.683C119.701 54.9125 119.472 55.1552 119.258 55.4102C123.124 56.14 127.062 58.3419 128.48 61.4604C130.936 67.4243 126.375 74.0896 128.48 79.3519C129.586 82.1177 131.356 84.5687 133.468 86.8601C135.883 86.256 137.539 85.3692 137.451 84.2049Z" fill="url(#paint10_linear)"/>
<path style="mix-blend-mode:multiply" opacity="0.3" d="M136.734 82.3011L133.42 83.1351C133.996 85.1244 134.553 88.1132 133.886 91.5045C132.965 96.1878 130.584 97.2149 130.233 101.438C129.919 105.237 131.712 106.012 132.571 111.08C133.451 116.272 132.119 118.715 131.838 123.058C131.647 126.031 131.957 129.919 133.765 134.652C134.102 134.518 134.414 134.327 134.686 134.087C134.42 132.176 134.346 130.243 134.468 128.317C134.729 124.14 135.715 123.288 136.137 118.965C136.507 115.175 136.117 112.077 135.928 110.641C135.345 106.221 134.555 106.13 134.54 103.483C134.516 99.4069 136.379 97.9473 137.404 94.0639C138.091 91.4704 138.453 87.6027 136.734 82.3011Z" fill="url(#paint11_linear)"/>
<path d="M119.943 54.6815C119.943 54.6815 118.477 56.0138 117.625 57.9717C116.338 60.9207 117.724 63.4524 118.139 68.2682C118.595 73.5514 117.95 82.3506 116.464 85.5053C116.405 85.6334 116.383 85.7756 116.4 85.9157C116.802 88.9626 137.76 88.2715 137.451 84.2049C135.919 64.0073 131.033 55.7395 131.46 53.2853C130.845 52.8429 128.416 52.1403 122.913 52.8665C121.816 53.2755 120.807 53.8917 119.943 54.6815Z" fill="url(#paint12_linear)"/>
<path d="M126.172 47.7935C126.172 47.7935 127.526 52.0413 127.964 52.5528C128.402 53.0642 126.205 54.4003 124.52 53.7977C122.973 53.2443 124.52 50.8864 124.52 50.8864L126.172 47.7935Z" fill="url(#paint13_linear)"/>
<path d="M121.971 46.8009C121.44 45.9633 121.515 44.5833 122.269 43.7645C122.919 43.063 123.854 43.0316 124.416 43.0117C126.039 42.9552 128.014 43.7902 128.6 45.3272C128.948 46.2381 127.896 47.9877 127.728 48.3039C127.538 48.6615 127.236 48.7651 126.945 49.0232C126.541 49.3818 125.907 49.9525 124.871 50.9079C124.811 50.5281 124.718 50.1543 124.594 49.7907C124.538 49.6279 124.31 48.9902 123.933 48.4468C123.176 47.3574 122.473 47.5919 121.971 46.8009Z" fill="url(#paint14_linear)"/>
<path d="M126.302 50.1536C126.302 50.1536 125.105 51.8026 123.011 51.4959C121.137 51.221 121.202 46.9727 122.477 46.1728C122.903 45.9063 123.718 45.8467 124.357 46.0828C124.734 46.222 124.852 46.3932 125.473 46.6063C126.046 46.8052 126.217 46.7539 126.382 46.9167C126.588 47.1204 126.713 47.5894 126.244 48.7951C126.633 48.46 127.076 48.3553 127.37 48.5244C127.47 48.5894 127.55 48.6809 127.601 48.7888C127.826 49.2956 127.335 49.8767 126.302 50.1536Z" fill="url(#paint15_linear)"/>
<path d="M122.225 49.4521C122.225 49.4521 122.615 49.6976 123.322 49.7138C123.356 49.7138 123.393 49.7279 123.396 49.7457C123.407 49.8138 122.932 50.0766 122.525 49.9263C122.236 49.8216 122.03 49.5212 122.075 49.4552C122.094 49.4243 122.16 49.4353 122.225 49.4521Z" fill="url(#paint16_linear)"/>
<path style="mix-blend-mode:multiply" opacity="0.3" d="M131.542 66.3724C129.255 67.1755 126.22 69.4318 126.016 72.3226C125.702 76.763 132.317 79.1995 131.436 82.3107C131.195 83.1588 130.436 83.9241 125.485 85.7135C123.482 86.4365 121.621 87.0259 119.931 87.5139C125.989 88.4064 137.682 87.2547 137.451 84.2089C136.864 76.4772 135.786 70.4987 134.703 65.9201C133.63 65.8698 132.558 66.0233 131.542 66.3724Z" fill="url(#paint17_linear)"/>
<path d="M124.339 75.4568C128.06 79.2334 133.371 80.4233 137.453 78.534C143.124 75.9102 144.001 68.4705 142.679 63.8144C140.472 56.0413 130.852 51.5082 127.821 53.5787C125.629 55.0765 125.65 60.8702 128.262 63.7704C130.61 66.3775 134.216 65.7189 135.197 68.3773C135.93 70.3667 134.512 72.3707 134.39 72.5377C132.811 74.6987 129.37 75.4322 126.119 73.948L124.339 75.4568Z" fill="url(#paint18_linear)"/>
<path d="M116.975 68.9482C117.278 67.9755 118.263 67.4766 119.037 67.3688C119.794 67.2641 121.044 67.4353 121.541 68.4263C122.006 69.3529 121.64 70.6491 120.571 71.3522C120.421 70.9789 120.152 70.4879 119.676 70.3387C118.803 70.0649 118.046 71.203 117.4 70.9056C116.886 70.6685 116.753 69.6628 116.975 68.9482Z" fill="url(#paint19_linear)"/>
<path d="M120.549 74.8461L123.411 75.3435C123.539 75.3656 123.671 75.3561 123.794 75.3157C123.917 75.2754 124.029 75.2054 124.119 75.1119C124.209 75.0183 124.275 74.9042 124.31 74.7794C124.346 74.6546 124.351 74.5229 124.324 74.3959L123.282 69.5529C123.246 69.3822 123.154 69.2282 123.022 69.1146C122.89 69.001 122.723 68.9343 122.549 68.9247L119.122 68.741C118.991 68.7341 118.861 68.7595 118.743 68.8149C118.624 68.8704 118.521 68.9541 118.443 69.0588C118.365 69.1635 118.314 69.2859 118.294 69.4151C118.275 69.5443 118.287 69.6764 118.331 69.7995L119.937 74.3279C119.984 74.4607 120.065 74.5788 120.173 74.6699C120.28 74.7609 120.41 74.8218 120.549 74.8461Z" fill="white"/>
<path d="M125.546 74.4333C125.311 72.7471 124.6 72.3058 124.342 72.1822C123.91 71.9728 123.697 72.1351 122.192 72.111C120.846 72.0895 120.527 71.954 120.359 72.1822C120.037 72.6178 120.699 73.7632 121.45 74.4333C122.502 75.3757 123.806 75.4558 124.344 75.4568L125.546 74.4333Z" fill="url(#paint20_linear)"/>
<path d="M83.8138 6.6896L96.2017 131.28C96.3865 133.135 95.1091 134.757 93.3585 134.885L32.9977 139.94C29.3185 140.069 27.3328 138.087 27.1344 136.124L13.7121 4.24637C13.5105 2.2654 15.3486 0.512165 19.0655 0.58755L80.2466 3.16742C82.0239 3.23285 83.6269 4.81857 83.8138 6.6896Z" fill="url(#paint21_linear)"/>
<path d="M86.5581 6.53026L98.9968 131.762C99.1821 133.627 97.8974 135.257 96.1421 135.386L33.5652 139.974C31.6115 140.117 29.8446 138.619 29.6436 136.646L16.1632 4.06766C15.9606 2.07832 17.4238 0.507785 19.4089 0.583171L82.9773 2.98923C84.762 3.05519 86.3712 4.64928 86.5581 6.53026Z" fill="#26264F"/>
<path d="M85.2387 13.4404L96.7764 129.512C96.9496 131.254 95.7492 132.775 94.1065 132.892L35.2491 137.076C33.432 137.205 31.7892 135.807 31.6023 133.969L19.159 11.5128C18.9705 9.65956 20.3291 8.19111 22.1729 8.24974L81.8935 10.1506C83.5593 10.2035 85.0638 11.684 85.2387 13.4404Z" fill="#91B3FA"/>
<path d="M53.5813 5.76477C53.6488 6.43487 53.1761 6.95995 52.5244 6.93796C51.8726 6.91597 51.2889 6.35424 51.2214 5.68153C51.1538 5.00881 51.6281 4.48477 52.2804 4.50833C52.9327 4.53189 53.5143 5.09415 53.5813 5.76477Z" fill="white"/>
<g style="mix-blend-mode:soft-light" opacity="0.3">
<g style="mix-blend-mode:soft-light" opacity="0.3">
<path d="M47.791 66.8919C41.5717 48.5167 52.3979 39.2589 46.2661 22.2364C42.9287 12.9781 36.2544 6.07769 28.9096 0.942565L19.4089 0.58082C17.4238 0.505958 15.9606 2.07387 16.1632 4.06531L29.6451 136.643C29.8461 138.617 31.613 140.114 33.5667 139.971L87.593 136.011C87.4234 122.168 83.9064 112.316 79.9953 105.312C69.2466 86.0702 54.2307 85.9194 47.791 66.8919Z" fill="#F4F7FA"/>
</g>
</g>
<path d="M83.3875 22.8236L111.339 45.9785C87.3028 56.7875 90.1 89.8247 66.0635 100.633L38.1116 77.4787C62.1487 66.6698 59.351 33.632 83.3875 22.8236Z" fill="url(#paint22_linear)"/>
<path d="M106.627 45.5832C86.2364 57.0727 87.0049 86.0904 66.6142 97.5804L42.8232 77.8728C63.214 66.3828 62.4455 37.3651 82.8357 25.8756L106.627 45.5832Z" fill="white"/>
<path d="M47.0521 74.4845C47.1568 74.5714 47.249 74.6536 47.3443 74.7463L47.3683 74.7698C48.453 75.8132 48.9619 77.133 48.8342 78.3952C48.7263 79.4982 48.1279 80.5531 46.9946 81.3311C46.8235 81.4472 46.6463 81.554 46.4637 81.6509C45.7549 82.0326 44.9419 82.2865 44.0796 82.4247L38.1116 77.4795C40.5486 76.3869 42.8395 74.9938 44.9309 73.3328C45.6565 73.5432 46.4244 73.9647 47.0521 74.4845Z" fill="url(#paint23_linear)"/>
<path d="M71.3975 94.6512C72.0514 95.193 72.4869 95.7882 72.8518 96.5112C70.7687 98.1612 68.4884 99.5457 66.0635 100.633L59.9551 95.5725C60.4865 95.067 61.0855 94.6378 61.7351 94.2973C61.9225 94.1968 62.1146 94.1015 62.3109 94.0125C65.2122 92.6813 68.7695 92.6818 71.142 94.4486C71.1515 94.4549 71.1604 94.4622 71.1698 94.4695C71.2441 94.5266 71.3248 94.591 71.3975 94.6512Z" fill="url(#paint24_linear)"/>
<path d="M83.388 22.8236L89.356 27.7687C88.8247 28.2743 88.2257 28.7035 87.5761 29.044C87.3887 29.145 87.1971 29.2398 87.0029 29.3293C84.1309 30.6459 80.626 30.6669 78.2535 28.9534C78.1425 28.8744 78.0519 28.8052 77.9472 28.7189C77.319 28.199 76.8118 27.5624 76.5652 26.9703C78.6578 25.3092 80.9499 23.9162 83.388 22.8236Z" fill="url(#paint25_linear)"/>
<path d="M105.23 40.9176L111.339 45.9779C108.914 47.0649 106.634 48.4494 104.551 50.0995C103.667 49.7854 102.948 49.4273 102.295 48.8854C102.222 48.8247 102.144 48.7582 102.075 48.6938C102.066 48.686 102.057 48.6787 102.05 48.6708C100.993 47.6955 100.45 46.4632 100.47 45.257C100.491 44.0508 101.088 42.8661 102.323 42.0185C102.493 41.9011 102.669 41.793 102.851 41.6945C103.559 41.3134 104.368 41.0558 105.23 40.9176Z" fill="url(#paint26_linear)"/>
<path d="M79.5957 52.0804C84.0576 55.7764 85.3758 62.9952 82.8048 68.4224C80.2338 73.8497 74.2851 75.0491 69.7829 71.3201C65.321 67.6236 64.0028 60.4053 66.5738 54.9775C69.1447 49.5498 75.094 48.3509 79.5957 52.0804Z" fill="url(#paint27_linear)"/>
<path d="M76.3256 58.5579C75.5403 58.7421 74.7279 59.2756 73.7892 60.3692L71.8051 58.7254L71.8826 58.5893C72.1262 58.1664 72.4157 57.7717 72.7459 57.4124C72.923 57.2221 73.1131 57.0444 73.3149 56.8805C73.5369 56.702 73.5369 56.3151 73.3201 56.0953L72.504 55.2733C72.3328 55.1022 72.0852 55.0969 71.9281 55.2592C71.6601 55.5293 71.3957 55.8351 71.1533 56.1298C70.8193 56.5398 70.5124 56.9713 70.2346 57.4213L69.5409 56.8455C69.3383 56.6779 69.0729 56.7041 68.9379 56.9292C68.8743 57.042 68.8526 57.1736 68.8767 57.3008C68.9007 57.428 68.9689 57.5426 69.0693 57.6244L69.7776 58.2113C69.2117 59.3798 68.9745 60.4734 69.0829 61.4623C69.1912 62.4512 69.6394 63.282 70.4252 63.9328C71.1853 64.561 71.9562 64.7821 72.738 64.5961C73.5198 64.41 74.3246 63.8167 75.1524 62.8161L77.3564 64.6526C77.0759 65.1436 76.749 65.6066 76.3801 66.0352C76.1488 66.3026 75.9001 66.5544 75.6356 66.7891C75.41 66.9896 75.4063 67.3958 75.6356 67.6214L76.6936 68.6685C76.8701 68.8423 77.1172 68.837 77.2773 68.6632C77.5478 68.3677 77.8004 68.0564 78.0338 67.7308C78.3756 67.2511 78.6863 66.7499 78.9641 66.2305C78.9997 66.164 79.0353 66.0975 79.0688 66.031L79.8237 66.6561C80.0279 66.8246 80.2901 66.8006 80.4069 66.5592L80.4105 66.5514C80.4668 66.4337 80.4824 66.3006 80.4549 66.1731C80.4274 66.0456 80.3584 65.9308 80.2587 65.8467L79.4934 65.2127C79.8567 64.3442 80.0582 63.514 80.0886 62.7381C80.1048 62.4075 80.0887 62.0761 80.0404 61.7487C79.8834 60.6985 79.4038 59.8546 78.6086 59.196C77.87 58.5835 77.1077 58.3772 76.3256 58.5579ZM75.7408 62.1031C76.055 61.7801 76.3691 61.5529 76.6455 61.4984C76.9219 61.444 77.1931 61.5225 77.4606 61.7434C77.7397 61.9671 77.9253 62.2869 77.9809 62.6402C78.0364 62.9904 77.9684 63.3632 77.7653 63.7804L75.7408 62.1031ZM72.3904 61.6319C72.1391 61.6927 71.8948 61.6253 71.6575 61.4299C71.4112 61.2289 71.252 60.9407 71.213 60.6252C71.1664 60.2949 71.2408 59.897 71.3795 59.5442L73.2018 61.0534C72.904 61.3911 72.6406 61.5707 72.3888 61.6309L72.3904 61.6319Z" fill="white"/>
<path style="mix-blend-mode:multiply" opacity="0.2" d="M111.25 45.9024L111.34 45.9778C87.3038 56.7867 90.1009 89.824 66.0644 100.632C56.9441 93.0771 47.8239 85.522 38.7036 77.967C40.1329 77.8125 41.5704 77.7462 43.0079 77.7686C44.9658 77.8021 46.9167 78.0111 48.8372 78.3931C51.1831 78.857 53.7488 79.6176 56.5925 80.8196C70.6399 86.7808 74.6767 81.7619 77.1142 73.2852C77.7827 71.0378 78.3601 68.5642 79.0601 66.0492C79.3684 64.9436 79.7129 63.829 80.0966 62.7223C80.8494 60.5555 81.7551 58.418 82.8492 56.4328C86.4269 49.645 92.7069 45.0511 100.474 45.2564C101.93 45.2795 103.38 45.448 104.803 45.7595C105.197 45.8438 105.596 45.9069 105.998 45.9484C107.508 46.1123 109.265 46.0484 111.25 45.9024Z" fill="url(#paint28_linear)"/>
<path d="M87.8136 50.8443C88.6476 51.1746 89.08 52.0578 88.7737 52.8074L69.4635 100.29C69.1332 101.097 67.9757 101.678 67.1155 101.32L35.6583 88.2402C34.8159 87.89 34.4668 86.6697 34.8133 85.8797L54.288 39.1443C54.6083 38.4114 55.5381 38.0753 56.3542 38.3988L87.8136 50.8443Z" fill="url(#paint29_linear)"/>
<path d="M88.3277 49.9031C89.1679 50.2356 89.6025 51.126 89.2931 51.882L69.6274 99.9686C69.2949 100.782 68.3139 101.152 67.448 100.793L35.7944 87.6373C34.9468 87.2855 34.538 86.3463 34.8882 85.5516L54.5696 38.1367C54.8926 37.3964 55.8286 37.0572 56.6506 37.3828L88.3277 49.9031Z" fill="url(#paint30_linear)"/>
<g opacity="0.7">
<path opacity="0.7" d="M64.5681 82.8044L61.2359 90.6084C61.1599 90.7785 61.024 90.9148 60.854 90.9913C60.684 91.0677 60.4918 91.079 60.314 91.023L58.3493 90.3634C58.2654 90.3366 58.1881 90.2924 58.1225 90.2337C58.0569 90.1749 58.0044 90.103 57.9685 90.0226C57.9326 89.9422 57.9141 89.8551 57.9142 89.767C57.9144 89.679 57.9331 89.5919 57.9692 89.5116L61.3255 81.7113C61.4017 81.5433 61.5371 81.4091 61.7058 81.3342C61.8744 81.2593 62.0648 81.249 62.2406 81.3051L64.1886 81.9621C64.2717 81.9885 64.3483 82.0321 64.4134 82.09C64.4785 82.148 64.5306 82.2191 64.5664 82.2985C64.6022 82.378 64.6209 82.4641 64.6212 82.5513C64.6215 82.6385 64.6034 82.7247 64.5681 82.8044Z" fill="#F4F7FA"/>
<path opacity="0.7" d="M68.9542 72.5347L65.6833 80.1958C65.6076 80.3632 65.473 80.4969 65.3051 80.5714C65.1372 80.6459 64.9478 80.6561 64.7729 80.6L62.827 79.9456C62.7444 79.9193 62.6682 79.876 62.6034 79.8184C62.5386 79.7608 62.4867 79.6902 62.451 79.6112C62.4153 79.5321 62.3966 79.4465 62.3962 79.3598C62.3958 79.2731 62.4136 79.1873 62.4485 79.1079L65.7435 71.4511C65.8193 71.2857 65.9533 71.1541 66.1199 71.0811C66.2865 71.0081 66.4741 70.9989 66.6471 71.0553L68.5762 71.7092C68.6578 71.735 68.733 71.7776 68.7971 71.8343C68.8612 71.8909 68.9127 71.9604 68.9483 72.0381C68.9839 72.1159 69.0028 72.2003 69.0038 72.2858C69.0048 72.3714 68.9879 72.4561 68.9542 72.5347Z" fill="#F4F7FA"/>
<path opacity="0.7" d="M73.2595 62.4523L70.0466 69.9746C69.9713 70.1395 69.8379 70.2708 69.6719 70.3434C69.5059 70.416 69.3189 70.4249 69.1467 70.3683L67.2202 69.7155C67.1384 69.6899 67.0628 69.6473 66.9985 69.5905C66.9342 69.5338 66.8826 69.4641 66.8471 69.3861C66.8115 69.308 66.7928 69.2234 66.7921 69.1376C66.7915 69.0518 66.8089 68.9669 66.8433 68.8883L70.0786 61.3702C70.1539 61.208 70.2862 61.0792 70.4502 61.0081C70.6143 60.9371 70.7988 60.9288 70.9686 60.9849L72.8789 61.6351C72.9602 61.6598 73.0354 61.7015 73.0996 61.7573C73.1638 61.813 73.2155 61.8817 73.2515 61.9588C73.2874 62.0359 73.3066 62.1196 73.308 62.2047C73.3094 62.2897 73.2928 62.3741 73.2595 62.4523Z" fill="#F4F7FA"/>
<path opacity="0.7" d="M77.4845 52.5511L74.3303 59.9384C74.2556 60.1009 74.1233 60.2301 73.9589 60.3009C73.7946 60.3718 73.6099 60.3793 73.4404 60.3221L71.5321 59.6724C71.4513 59.6474 71.3766 59.6057 71.313 59.55C71.2493 59.4942 71.1981 59.4257 71.1627 59.3489C71.1273 59.272 71.1085 59.1886 71.1075 59.104C71.1064 59.0194 71.1232 58.9355 71.1568 58.8578L74.3335 51.4763C74.4732 51.1512 74.8701 50.9826 75.2156 51.1004L77.1076 51.7475C77.1875 51.7719 77.2615 51.8129 77.3247 51.8677C77.3879 51.9225 77.4389 51.9899 77.4744 52.0656C77.5099 52.1413 77.5292 52.2237 77.5309 52.3073C77.5326 52.3909 77.5168 52.4739 77.4845 52.5511Z" fill="#F4F7FA"/>
</g>
<path d="M55.1587 83.3362L53.5881 87.0375C53.3023 87.7107 52.4783 88.0185 51.7559 87.7206L47.8295 86.0978C47.1108 85.8009 46.7595 85.0089 47.0479 84.3377L48.6336 80.6522C48.9205 79.9858 49.7403 79.6816 50.456 79.9758L54.3671 81.5835C55.0875 81.8788 55.4429 82.6688 55.1587 83.3362Z" fill="url(#paint31_linear)"/>
<path d="M54.6699 83.4401L53.3197 86.6184C53.0548 87.2413 52.2968 87.524 51.6303 87.2466L48.2594 85.8535C47.5946 85.5787 47.271 84.85 47.5375 84.2306L48.8986 81.0634C49.1635 80.4467 49.9184 80.1666 50.5812 80.4388L53.9411 81.8204C54.6065 82.0947 54.9332 82.8208 54.6699 83.4401ZM47.7071 84.3003C47.4773 84.8348 47.7558 85.4624 48.3285 85.6991L51.6989 87.0916C52.2748 87.3288 52.926 87.0853 53.1538 86.5493L54.5044 83.371C54.7311 82.8376 54.4521 82.2125 53.8762 81.9774L50.5158 80.5954C49.9446 80.3608 49.2949 80.6016 49.0662 81.1335L47.7071 84.3003Z" fill="url(#paint32_linear)"/>
<path d="M48.7097 85.9507L50.9639 80.6895L48.7097 85.9507Z" fill="#F4F7FA"/>
<path d="M51.0492 80.7226L48.795 85.9839L48.6274 85.9148L50.8817 80.6541L51.0492 80.7226Z" fill="url(#paint33_linear)"/>
<path d="M49.9775 86.4745L52.2285 81.2096L49.9775 86.4745Z" fill="#F4F7FA"/>
<path d="M52.3091 81.2443L50.0595 86.5092L49.8914 86.4401L52.1421 81.1752L52.3091 81.2443Z" fill="url(#paint34_linear)"/>
<path d="M51.2454 86.9972L53.4918 81.728L51.2454 86.9972Z" fill="#F4F7FA"/>
<path d="M53.5745 81.7627L51.3287 87.0318L51.1606 86.9627L53.4075 81.6936L53.5745 81.7627Z" fill="url(#paint35_linear)"/>
<path d="M53.6155 84.0066L52.9873 85.4797C52.8302 85.854 52.369 86.0252 51.968 85.8598L49.0259 84.6452C48.6259 84.4798 48.4296 84.039 48.5898 83.6658L49.218 82.1968C49.3751 81.8246 49.8352 81.6544 50.2347 81.8188L53.1721 83.0281C53.5767 83.1914 53.7746 83.6333 53.6155 84.0066Z" fill="#FEC045"/>
<path d="M53.6999 84.0411L53.0717 85.5142C52.8937 85.9331 52.3838 86.1231 51.9352 85.9378L48.9931 84.7232C48.5455 84.5384 48.3277 84.0489 48.5067 83.6311L49.1376 82.1622C49.3166 81.7434 49.8249 81.557 50.2715 81.7407L53.2084 82.95C53.6586 83.1343 53.8774 83.6238 53.6999 84.0411ZM48.6743 83.7003C48.5319 84.0316 48.7052 84.4206 49.0601 84.5672L52.0022 85.7812C52.3582 85.9283 52.7628 85.7776 52.9042 85.4451L53.5324 83.972C53.6737 83.6406 53.4989 83.2521 53.1434 83.1061L50.2066 81.8967C49.8516 81.7507 49.448 81.9004 49.3061 82.2313L48.6743 83.7003Z" fill="url(#paint36_linear)"/>
<path style="mix-blend-mode:multiply" opacity="0.15" d="M68.061 80.7466C66.9139 84.9195 65.8983 87.4606 63.7221 89.8976C60.7328 93.2444 57.0091 94.7699 54.6816 95.4892L67.4432 100.793C68.3091 101.153 69.2902 100.782 69.6226 99.9689L89.2904 51.8823C89.5998 51.1263 89.1653 50.2358 88.325 49.9034L83.2532 47.8942C75.5194 53.1654 72.6003 58.5424 71.3847 62.5729C69.9152 67.4431 70.7848 70.8365 68.061 80.7466Z" fill="url(#paint37_linear)"/>
<g style="mix-blend-mode:multiply" opacity="0.42">
<path style="mix-blend-mode:multiply" opacity="0.42" d="M71.6365 82.9349L67.195 93.6988C67.1493 93.7998 67.0655 93.8785 66.9618 93.9177C66.8582 93.957 66.7433 93.9535 66.6422 93.9082L64.8366 93.1617C64.7334 93.1225 64.6499 93.0441 64.6042 92.9436C64.5585 92.8431 64.5544 92.7286 64.5926 92.6251L69.0488 81.8769C69.132 81.6759 69.3786 81.5838 69.5959 81.6727L71.3894 82.4057C71.6093 82.4952 71.7187 82.7334 71.6365 82.9349Z" fill="url(#paint38_linear)"/>
<path style="mix-blend-mode:multiply" opacity="0.42" d="M80.2178 62.2878L74.3074 76.6064C74.2231 76.8106 73.975 76.9043 73.7556 76.8158L71.9495 76.0829C71.8985 76.064 71.8517 76.0353 71.8118 75.9983C71.7719 75.9613 71.7397 75.9168 71.717 75.8674C71.6943 75.8179 71.6815 75.7645 71.6795 75.7101C71.6774 75.6557 71.6861 75.6015 71.7051 75.5505L77.6364 61.2549C77.7196 61.0554 77.9646 60.9633 78.1819 61.0502L79.9723 61.7685C80.1901 61.8533 80.3 62.0878 80.2178 62.2878Z" fill="url(#paint39_linear)"/>
</g>
<path style="mix-blend-mode:multiply" opacity="0.26" d="M61.8788 45.0221C64.0566 45.8885 65.0592 48.4071 64.1242 50.6273C63.1976 52.826 60.7177 53.8971 58.5796 53.0396C56.4416 52.1821 55.4291 49.7158 56.3165 47.5082C57.2091 45.2791 59.702 44.1567 61.8788 45.0221Z" fill="url(#paint40_linear)"/>
<g opacity="0.53">
<path opacity="0.53" d="M53.7461 78.5627C53.8139 78.7312 53.8127 78.9196 53.7428 79.0873C53.6729 79.2549 53.5398 79.3884 53.3723 79.4588C53.29 79.4941 53.2014 79.5126 53.1118 79.5133C53.0221 79.5139 52.9333 79.4967 52.8504 79.4625C52.7675 79.4284 52.6923 79.3781 52.6291 79.3145C52.5659 79.251 52.5161 79.1755 52.4824 79.0924C52.4167 78.9237 52.4198 78.736 52.4911 78.5696C52.5624 78.4032 52.6961 78.2714 52.8635 78.2025C52.9451 78.1682 53.0327 78.1503 53.1212 78.1498C53.2097 78.1493 53.2975 78.1663 53.3795 78.1997C53.4614 78.2332 53.536 78.2824 53.5989 78.3447C53.6618 78.407 53.7118 78.4811 53.7461 78.5627Z" fill="#F4F7FA"/>
<path opacity="0.53" d="M57.0536 77.5963C57.0415 77.627 57.0233 77.6551 57.0002 77.6787C56.9771 77.7024 56.9495 77.7212 56.919 77.734C56.8564 77.7598 56.7862 77.76 56.7235 77.7344C56.6608 77.7088 56.6107 77.6596 56.584 77.5973C55.7516 75.6781 53.5261 74.7704 51.5582 75.5457C51.4957 75.5715 51.4255 75.5716 51.3629 75.5461C51.3003 75.5205 51.2503 75.4713 51.2237 75.409C51.2118 75.378 51.2062 75.345 51.2072 75.3117C51.2082 75.2785 51.2158 75.2459 51.2295 75.2156C51.2433 75.1854 51.2629 75.1582 51.2872 75.1356C51.3116 75.1129 51.3401 75.0954 51.3713 75.0839C53.5916 74.216 56.1018 75.241 57.0473 77.4015C57.0611 77.432 57.0688 77.4649 57.0699 77.4983C57.0709 77.5317 57.0654 77.565 57.0536 77.5963Z" fill="#F4F7FA"/>
<path opacity="0.53" d="M56.1162 77.9909C56.1039 78.0221 56.0854 78.0505 56.062 78.0744C56.0385 78.0983 56.0105 78.1173 55.9796 78.1302C55.9166 78.1565 55.8458 78.1568 55.7826 78.131C55.7194 78.1052 55.669 78.0554 55.6424 77.9925C55.0351 76.568 53.3882 75.8953 51.9354 76.4775C51.8726 76.5038 51.8019 76.5041 51.7388 76.4784C51.6757 76.4527 51.6254 76.403 51.5988 76.3403C51.5868 76.309 51.581 76.2756 51.5819 76.242C51.5829 76.2084 51.5904 76.1754 51.6041 76.1447C51.6178 76.1141 51.6374 76.0865 51.6619 76.0634C51.6863 76.0404 51.715 76.0224 51.7464 76.0105C53.4568 75.3299 55.3943 76.121 56.1136 77.7946C56.1269 77.8256 56.1341 77.8588 56.1345 77.8925C56.135 77.9262 56.1287 77.9597 56.1162 77.9909Z" fill="#F4F7FA"/>
<path opacity="0.53" d="M55.1733 78.3897C55.1538 78.4372 55.1206 78.4777 55.078 78.5063C55.0354 78.5349 54.9853 78.5501 54.934 78.5501C54.8827 78.5501 54.8326 78.5349 54.79 78.5063C54.7474 78.4777 54.7142 78.4372 54.6948 78.3897C54.5071 77.9476 54.1524 77.5975 53.7078 77.4158C53.2632 77.2341 52.7648 77.2355 52.3212 77.4196C52.2896 77.4361 52.255 77.4458 52.2195 77.4481C52.1839 77.4504 52.1483 77.4453 52.1149 77.4331C52.0815 77.4208 52.051 77.4017 52.0254 77.377C51.9998 77.3522 51.9796 77.3224 51.9662 77.2894C51.9528 77.2565 51.9464 77.221 51.9475 77.1855C51.9486 77.1499 51.9571 77.1149 51.9725 77.0828C51.9878 77.0507 52.0098 77.0222 52.0368 76.999C52.0639 76.9759 52.0955 76.9587 52.1296 76.9485C52.7009 76.7144 53.3413 76.7144 53.9126 76.9485C54.1942 77.0626 54.4504 77.2313 54.6665 77.4449C54.8826 77.6584 55.0543 77.9127 55.1717 78.1929C55.1978 78.2558 55.1984 78.3264 55.1733 78.3897Z" fill="#F4F7FA"/>
</g>
<path d="M63.4044 73.9731C63.4044 82.5634 56.6872 89.3209 48.1022 89.057C39.1679 88.7827 31.6534 81.0667 31.6534 71.8335C31.6534 62.6004 39.1679 55.8963 48.1022 56.8266C56.6872 57.7202 63.4044 65.3833 63.4044 73.9731Z" fill="url(#paint41_linear)"/>
<path d="M65.7237 73.2337C65.7237 81.8235 59.0065 88.581 50.422 88.3176C41.4872 88.0428 33.9733 80.3268 33.9733 71.0941C33.9733 61.8615 41.4872 55.1574 50.422 56.0877C59.0065 56.9803 65.7237 64.6434 65.7237 73.2337Z" fill="url(#paint42_linear)"/>
<path d="M65.0497 73.1872C65.0497 81.399 58.6226 87.8455 50.4218 87.5838C41.9022 87.3079 34.7489 79.9442 34.7489 71.1455C34.7489 62.3469 41.9022 55.948 50.4218 56.8207C58.6226 57.6599 65.0497 64.9754 65.0497 73.1872Z" fill="url(#paint43_linear)"/>
<path d="M64.5683 73.1555C64.5683 81.0961 58.3495 87.3248 50.423 87.0589C42.1992 86.7825 35.303 79.67 35.303 71.1824C35.303 62.6947 42.1992 56.512 50.423 57.3444C58.3495 58.1474 64.5683 65.2143 64.5683 73.1555Z" fill="url(#paint44_linear)"/>
<path d="M50.3434 60.046C50.5518 60.0707 50.7442 60.1703 50.8845 60.3264C51.0249 60.4824 51.1037 60.6842 51.1062 60.8941V62.3552C51.959 62.451 52.8053 62.5979 53.6405 62.795C54.2642 62.9416 54.8836 63.1161 55.4989 63.3185C55.68 63.3788 55.8356 63.4979 55.9411 63.6569C56.0466 63.8159 56.0959 64.0057 56.0811 64.1959L55.9015 66.0282C55.8934 66.1397 55.8582 66.2476 55.7989 66.3424C55.7397 66.4372 55.6582 66.5162 55.5616 66.5724C55.4649 66.6286 55.356 66.6604 55.2443 66.665C55.1326 66.6696 55.0214 66.6469 54.9205 66.5988C54.515 66.4178 54.0985 66.2626 53.6735 66.1339C52.9073 65.9049 52.119 65.7576 51.3218 65.6947L51.1062 65.6769V69.865C53.3049 70.4807 54.9231 71.3089 55.967 72.3506C57.0108 73.3924 57.5244 74.6792 57.5244 76.2304C57.5244 77.9077 56.9503 79.2514 55.8021 80.2614C54.6465 81.2798 53.0227 81.8515 50.9308 81.9765V83.5904C50.9326 83.6904 50.9139 83.7897 50.8759 83.8821C50.838 83.9746 50.7814 84.0583 50.7099 84.1282C50.6384 84.198 50.5533 84.2525 50.4599 84.2882C50.3666 84.3239 50.2669 84.3402 50.167 84.3359H50.1528C49.9458 84.3246 49.7511 84.2343 49.6085 84.0838C49.466 83.9333 49.3865 83.7339 49.3864 83.5266V81.9351L49.0467 81.9194C48.1012 81.8796 47.1593 81.7797 46.2265 81.6205C45.5688 81.5063 44.9179 81.3565 44.2764 81.1718C44.0899 81.1196 43.9272 81.0046 43.8157 80.8463C43.7042 80.6879 43.6508 80.496 43.6644 80.3028L43.8739 77.947C43.9194 77.4376 44.4314 77.1413 44.9156 77.3324C45.4758 77.5535 46.0484 77.7414 46.6307 77.8952C47.5285 78.1325 48.4465 78.2858 49.3728 78.3532L49.3864 73.694C47.2746 73.1705 45.693 72.3967 44.6539 71.3717C43.6147 70.3466 43.0865 69.0232 43.0865 67.4202C43.0865 65.761 43.6529 64.4816 44.7858 63.5818C45.9121 62.6877 47.5091 62.2418 49.577 62.2442V60.7496C49.5744 60.6511 49.593 60.5531 49.6315 60.4624C49.67 60.3716 49.7275 60.2901 49.8001 60.2235C49.8727 60.1568 49.9588 60.1064 50.0525 60.0758C50.1462 60.0452 50.2454 60.0351 50.3434 60.046ZM49.577 65.635C48.924 65.6825 48.4151 65.8619 48.0504 66.1732C47.6857 66.4845 47.5032 66.9033 47.5028 67.4296C47.5028 67.928 47.6718 68.3444 48.0096 68.6787C48.3474 69.0131 48.8699 69.2796 49.577 69.4781V65.635ZM50.9303 74.0693V78.3401C51.6401 78.3401 52.1848 78.1709 52.5641 77.8323C52.9435 77.4938 53.133 77.0146 53.1327 76.3948C53.1327 75.8301 52.9566 75.3615 52.6044 74.9891C52.2523 74.6168 51.6944 74.3101 50.9308 74.0693H50.9303Z" fill="url(#paint45_linear)"/>
<path style="mix-blend-mode:multiply" opacity="0.3" d="M47.8631 75.0996C48.341 70.3796 52.6794 68.3814 52.1129 64.0394C51.7643 61.3632 49.7357 59.1079 47.473 57.3468C40.6098 58.0666 35.303 63.7494 35.303 71.1822C35.303 79.6699 42.1992 86.7829 50.423 87.0587C51.2037 87.0847 51.9851 87.0465 52.7595 86.9446C49.4933 83.6947 47.4526 79.1553 47.8631 75.0996Z" fill="url(#paint46_linear)"/>
<path d="M55.2185 39.7333C55.2185 45.5186 50.6943 50.07 44.9121 49.8926C38.8949 49.7078 33.8341 44.5109 33.8341 38.2916C33.8341 32.0723 38.8949 27.5596 44.9121 28.1847C50.6943 28.7867 55.2185 33.948 55.2185 39.7333Z" fill="url(#paint47_linear)"/>
<path d="M56.7809 39.2337C56.7809 45.0196 52.2573 49.5704 46.4751 49.393C40.4547 49.2082 35.3965 44.0113 35.3965 37.792C35.3965 31.5726 40.4573 27.06 46.4751 27.685C52.2573 28.2871 56.7809 33.4484 56.7809 39.2337Z" fill="url(#paint48_linear)"/>
<path d="M56.3281 39.2038C56.3281 44.7342 51.9992 49.0778 46.4756 48.8993C40.7374 48.7134 35.92 43.7537 35.92 37.8281C35.92 31.9024 40.7363 27.5918 46.4756 28.1797C51.9986 28.7467 56.3281 33.6729 56.3281 39.2038Z" fill="url(#paint49_linear)"/>
<path d="M56.0026 39.1805C56.0026 44.5287 51.8145 48.7236 46.4747 48.5446C40.9359 48.3587 36.2913 43.5681 36.2913 37.8513C36.2913 32.1346 40.9359 27.9711 46.4747 28.5328C51.814 29.0726 56.0026 33.8323 56.0026 39.1805Z" fill="url(#paint50_linear)"/>
<path d="M46.4197 30.3512C46.5601 30.3678 46.6898 30.435 46.7844 30.5402C46.879 30.6454 46.9321 30.7814 46.9337 30.9229V31.9076C47.508 31.9719 48.078 32.0707 48.6404 32.2034C49.0592 32.3025 49.4764 32.4201 49.8921 32.5562C50.0141 32.5967 50.119 32.6769 50.1901 32.7839C50.2612 32.8909 50.2946 33.0186 50.2847 33.1467L50.1638 34.3817C50.1583 34.4568 50.1345 34.5295 50.0945 34.5933C50.0546 34.6572 49.9997 34.7104 49.9345 34.7482C49.8694 34.7861 49.796 34.8075 49.7208 34.8106C49.6455 34.8137 49.5706 34.7983 49.5026 34.766C49.2303 34.6437 48.9505 34.5388 48.665 34.4519C48.1491 34.2975 47.6182 34.1983 47.0814 34.1561L46.9358 34.144V36.9647C48.4179 37.3793 49.5063 37.9369 50.2099 38.6399C50.9135 39.343 51.2569 40.2105 51.2569 41.2533C51.2569 42.3831 50.8704 43.2886 50.0973 43.9698C49.3187 44.6563 48.2251 45.0414 46.8165 45.1252V46.212C46.8176 46.2793 46.805 46.3462 46.7793 46.4084C46.7537 46.4707 46.7156 46.527 46.6675 46.574C46.6193 46.621 46.562 46.6577 46.4991 46.6818C46.4362 46.7059 46.3691 46.7169 46.3019 46.7141H46.293C46.1535 46.7064 46.0223 46.6457 45.9262 46.5444C45.8301 46.443 45.7765 46.3087 45.7763 46.1691V45.0969L45.5475 45.0865C44.9102 45.0592 44.2753 44.9916 43.6466 44.8839C43.2036 44.8072 42.7651 44.7063 42.3331 44.5818C42.2076 44.5465 42.0981 44.469 42.0231 44.3624C41.948 44.2558 41.912 44.1266 41.9211 43.9965L42.0635 42.4092C42.0944 42.0658 42.4389 41.8663 42.7655 41.9951C43.1427 42.144 43.5284 42.2706 43.9204 42.3742C44.5252 42.5338 45.1435 42.6372 45.7674 42.683L45.7763 39.5456C44.3537 39.1938 43.2913 38.6726 42.5891 37.9819C41.8869 37.2912 41.5349 36.404 41.5332 35.3204C41.5332 34.2035 41.9148 33.3418 42.6781 32.7353C43.4362 32.1332 44.5141 31.8338 45.9045 31.8343V30.8276C45.9026 30.7611 45.9149 30.695 45.9406 30.6337C45.9663 30.5724 46.0049 30.5174 46.0537 30.4722C46.1025 30.4271 46.1605 30.3929 46.2236 30.3721C46.2867 30.3512 46.3536 30.3441 46.4197 30.3512ZM45.904 34.1158C45.4642 34.1479 45.1217 34.2686 44.8763 34.478C44.631 34.6874 44.5088 34.9696 44.5099 35.3246C44.5059 35.4807 44.5342 35.636 44.5929 35.7807C44.6517 35.9255 44.7396 36.0566 44.8512 36.1658C45.0784 36.3909 45.4302 36.5705 45.9066 36.7045L45.904 34.1158ZM46.816 39.7964V42.6757C47.2941 42.6757 47.6606 42.5616 47.9153 42.3333C48.1701 42.1051 48.2977 41.7824 48.298 41.3654C48.298 40.9849 48.1793 40.6693 47.942 40.4183C47.7047 40.1674 47.3293 39.9601 46.816 39.7964Z" fill="url(#paint51_linear)"/>
<path style="mix-blend-mode:multiply" opacity="0.3" d="M44.7533 40.4917C45.0753 37.3124 47.9991 35.9664 47.6153 33.0421C47.3803 31.2397 46.0145 29.7204 44.4905 28.5347C39.8679 29.0194 36.2939 32.8468 36.2939 37.8532C36.2939 43.5699 40.9385 48.3601 46.4772 48.5459C47.003 48.5633 47.5293 48.5375 48.0509 48.469C45.8511 46.2802 44.4764 43.2228 44.7533 40.4917Z" fill="url(#paint52_linear)"/>
<path d="M88.5673 83.0555L92.0156 123.318C92.1046 124.356 91.7895 125.331 91.1257 126.03C90.5483 126.654 89.7591 127.04 88.9123 127.113L38.1155 131.391C35.9634 131.572 34.1201 130.041 33.9672 127.988L30.7738 85.1537C30.6236 83.1372 32.2229 81.3844 34.3625 81.3133L84.8441 79.671C86.7611 79.6108 88.405 81.1593 88.5673 83.0555Z" fill="url(#paint53_linear)"/>
<path style="mix-blend-mode:multiply" opacity="0.2" d="M91.1834 126.031C90.5973 126.655 89.8008 127.041 88.9474 127.113L38.1328 131.391C35.9807 131.572 34.1201 130.042 33.9672 127.991L30.7738 85.156C30.6236 83.1394 32.2229 81.3867 34.3625 81.3155L34.9504 81.2961C35.1635 82.4018 35.4493 83.643 35.7226 84.8346C35.7603 85 35.799 85.179 35.8367 85.3377C36.1534 86.7124 36.4251 87.8432 36.4733 87.9887C38.0574 92.7317 40.2949 98.182 45.028 100.834C52.2577 104.888 61.4113 104.16 69.0137 106.38C74.0206 107.842 79.1604 109.819 83.1438 113.126C86.0545 115.543 88.5103 118.523 89.9494 122.01C90.4764 123.312 90.8893 124.657 91.1834 126.031Z" fill="url(#paint54_linear)"/>
<g opacity="0.7">
<path opacity="0.7" d="M84.848 125.363H84.8454L83.0958 125.471C82.9983 125.475 82.903 125.441 82.83 125.376C82.757 125.311 82.7119 125.221 82.7042 125.124C82.6875 124.925 82.8341 124.777 83.033 124.761L84.7794 124.646C85.0784 124.646 85.37 124.527 85.6495 124.436C85.6931 124.42 85.7395 124.412 85.7861 124.414C85.8327 124.415 85.8785 124.426 85.9208 124.446C85.9632 124.465 86.0012 124.493 86.0327 124.527C86.0643 124.561 86.0886 124.602 86.1044 124.646C86.1673 124.833 86.0678 125.064 85.8799 125.126C85.5485 125.237 85.2045 125.363 84.848 125.363ZM80.3552 125.66L77.6011 125.885C77.5536 125.889 77.5059 125.884 77.4605 125.869C77.4152 125.855 77.3732 125.831 77.3369 125.801C77.3006 125.77 77.2707 125.732 77.2489 125.69C77.2271 125.647 77.2139 125.601 77.21 125.554C77.2061 125.506 77.2115 125.459 77.2261 125.413C77.2406 125.368 77.2639 125.326 77.2947 125.29C77.3255 125.253 77.3631 125.223 77.4054 125.202C77.4477 125.18 77.4939 125.167 77.5414 125.163L80.2956 124.939C80.3434 124.934 80.3918 124.939 80.4379 124.953C80.4839 124.967 80.5267 124.99 80.5638 125.021C80.6008 125.051 80.6313 125.089 80.6536 125.132C80.6758 125.175 80.6893 125.221 80.6933 125.269C80.6973 125.317 80.6916 125.365 80.6767 125.411C80.6618 125.457 80.6379 125.499 80.6064 125.536C80.5749 125.572 80.5365 125.602 80.4934 125.623C80.4502 125.645 80.4033 125.657 80.3552 125.66ZM74.8306 126.112L72.0435 126.34C71.993 126.35 71.9412 126.348 71.8913 126.336C71.8414 126.324 71.7946 126.302 71.7539 126.271C71.7131 126.24 71.6793 126.201 71.6547 126.156C71.6301 126.111 71.6153 126.061 71.6111 126.01C71.6069 125.959 71.6134 125.907 71.6304 125.859C71.6473 125.811 71.6742 125.766 71.7093 125.729C71.7445 125.692 71.787 125.662 71.8343 125.642C71.8816 125.622 71.9325 125.612 71.9838 125.614L74.771 125.387C74.8191 125.382 74.8678 125.387 74.9142 125.401C74.9605 125.415 75.0036 125.438 75.0409 125.469C75.0781 125.5 75.1089 125.538 75.1312 125.581C75.1536 125.624 75.1672 125.671 75.1711 125.719C75.1751 125.768 75.1694 125.816 75.1544 125.862C75.1393 125.908 75.1152 125.951 75.0835 125.988C75.0518 126.024 75.0131 126.054 74.9697 126.075C74.9262 126.097 74.879 126.109 74.8306 126.112ZM69.2395 126.57L66.4194 126.801C66.3222 126.809 66.2259 126.778 66.1516 126.714C66.0773 126.651 66.0312 126.561 66.0233 126.464C66.0155 126.367 66.0466 126.27 66.1098 126.196C66.1729 126.122 66.263 126.076 66.3602 126.068L69.1804 125.84C69.2298 125.833 69.2802 125.836 69.3283 125.849C69.3765 125.862 69.4215 125.885 69.4604 125.916C69.4994 125.948 69.5316 125.987 69.5551 126.031C69.5785 126.075 69.5927 126.123 69.5967 126.173C69.6007 126.223 69.5946 126.273 69.5785 126.32C69.5625 126.367 69.537 126.411 69.5036 126.448C69.4701 126.485 69.4294 126.515 69.384 126.536C69.3386 126.557 69.2895 126.568 69.2395 126.569V126.57ZM63.5814 127.033L60.7251 127.267C60.6275 127.275 60.5308 127.243 60.4563 127.18C60.3818 127.116 60.3356 127.026 60.3278 126.928C60.32 126.83 60.3513 126.734 60.4149 126.659C60.4784 126.585 60.5689 126.539 60.6665 126.531L63.5212 126.299C63.6184 126.292 63.7147 126.323 63.7889 126.386C63.8631 126.449 63.9092 126.539 63.917 126.636C63.9248 126.734 63.8936 126.83 63.8304 126.904C63.7672 126.978 63.677 127.024 63.5798 127.032L63.5814 127.033ZM57.8547 127.504L54.9665 127.738C54.9166 127.744 54.8659 127.74 54.8175 127.727C54.7691 127.713 54.7241 127.689 54.685 127.658C54.646 127.626 54.6138 127.586 54.5904 127.542C54.5671 127.497 54.553 127.448 54.549 127.398C54.5451 127.348 54.5514 127.298 54.5675 127.25C54.5837 127.202 54.6093 127.158 54.6429 127.121C54.6765 127.084 54.7174 127.053 54.763 127.032C54.8086 127.011 54.8581 126.999 54.9084 126.998L57.7977 126.764C57.8955 126.756 57.9925 126.787 58.0672 126.851C58.1418 126.915 58.1881 127.006 58.1958 127.104C58.2035 127.202 58.172 127.299 58.1082 127.373C58.0445 127.448 57.9537 127.494 57.8558 127.502L57.8547 127.504ZM52.0584 127.978L49.1335 128.217C49.0838 128.223 49.0336 128.218 48.9858 128.203C48.9379 128.189 48.8934 128.165 48.8547 128.134C48.8161 128.102 48.7841 128.063 48.7606 128.019C48.7371 127.975 48.7226 127.926 48.7179 127.877C48.712 127.776 48.7464 127.676 48.8135 127.601C48.8806 127.525 48.975 127.479 49.076 127.473L52.0003 127.235C52.0499 127.23 52.1001 127.235 52.1479 127.249C52.1957 127.263 52.2401 127.287 52.2786 127.319C52.317 127.351 52.3486 127.39 52.3716 127.434C52.3946 127.479 52.4084 127.527 52.4123 127.577C52.4162 127.627 52.4101 127.677 52.3943 127.724C52.3785 127.771 52.3533 127.815 52.3203 127.852C52.2873 127.89 52.2471 127.92 52.2021 127.942C52.1571 127.964 52.1083 127.976 52.0584 127.978ZM46.1909 128.458L43.2299 128.701C43.1799 128.706 43.1294 128.701 43.0812 128.686C43.0331 128.672 42.9882 128.648 42.9493 128.616C42.9104 128.584 42.8782 128.545 42.8545 128.501C42.8308 128.456 42.816 128.408 42.8111 128.358C42.806 128.256 42.8412 128.156 42.9092 128.08C42.9772 128.004 43.0725 127.957 43.1744 127.951L46.1349 127.711C46.1849 127.706 46.2354 127.711 46.2835 127.725C46.3316 127.74 46.3765 127.763 46.4154 127.795C46.4543 127.827 46.4866 127.866 46.5103 127.91C46.534 127.955 46.5488 128.003 46.5537 128.053C46.5587 128.155 46.5233 128.254 46.4554 128.329C46.3874 128.405 46.2923 128.451 46.1909 128.456V128.458ZM40.2517 128.857C40.225 128.86 40.1982 128.86 40.1716 128.857C39.0953 128.739 38.0876 128.27 37.3032 127.524C37.267 127.489 37.2383 127.447 37.2189 127.401C37.1995 127.355 37.1898 127.305 37.1904 127.255C37.191 127.205 37.2018 127.155 37.2223 127.11C37.2428 127.064 37.2725 127.023 37.3095 126.989C37.3857 126.918 37.4861 126.878 37.5904 126.878C37.6947 126.878 37.795 126.918 37.8713 126.989C38.528 127.615 39.372 128.008 40.2736 128.108C40.3238 128.112 40.3726 128.126 40.4171 128.15C40.4616 128.173 40.501 128.206 40.5327 128.245C40.5645 128.284 40.5881 128.329 40.6022 128.377C40.6162 128.426 40.6204 128.476 40.6145 128.526C40.6 128.614 40.5563 128.694 40.4904 128.754C40.4245 128.814 40.3404 128.849 40.2517 128.855V128.857ZM87.9079 123.48C87.841 123.485 87.7738 123.472 87.7142 123.441C87.6546 123.41 87.6049 123.363 87.5707 123.305C87.5364 123.247 87.5191 123.181 87.5206 123.114C87.5221 123.046 87.5424 122.981 87.5792 122.925C88.0382 122.232 88.2481 121.404 88.1744 120.576C88.1703 120.529 88.1754 120.482 88.1895 120.438C88.2037 120.393 88.2265 120.352 88.2568 120.316C88.287 120.28 88.324 120.251 88.3657 120.23C88.4074 120.208 88.4529 120.196 88.4995 120.192C88.5942 120.185 88.6877 120.216 88.7599 120.278C88.8321 120.339 88.8772 120.427 88.8853 120.521C88.9734 121.508 88.7235 122.496 88.1765 123.322C88.1466 123.366 88.1069 123.404 88.0604 123.431C88.0138 123.458 87.9617 123.474 87.9079 123.478V123.48ZM36.3541 125.089C36.141 125.106 35.9468 124.967 35.9238 124.764C35.9175 124.708 35.906 124.659 35.9018 124.604L35.6997 121.902C35.684 121.693 35.8154 121.511 36.0343 121.495C36.0829 121.49 36.1321 121.495 36.1787 121.51C36.2253 121.525 36.2683 121.549 36.305 121.582C36.3417 121.614 36.3713 121.654 36.392 121.698C36.4127 121.742 36.424 121.791 36.4253 121.84L36.6279 124.538C36.6316 124.585 36.6761 124.627 36.6803 124.674C36.6874 124.723 36.6842 124.773 36.6711 124.821C36.6579 124.869 36.635 124.914 36.6038 124.953C36.5725 124.992 36.5336 125.024 36.4895 125.047C36.4454 125.07 36.397 125.084 36.3473 125.087C36.3431 125.086 36.3588 125.086 36.3541 125.087V125.089ZM88.4843 119.544C88.288 119.559 88.1823 119.413 88.1655 119.216L87.9357 116.516C87.9195 116.32 87.998 116.15 88.1943 116.134C88.3906 116.119 88.4964 116.267 88.5131 116.464L88.7424 119.161C88.7592 119.355 88.6806 119.527 88.4843 119.542V119.544ZM35.8772 119.395C35.8285 119.4 35.7793 119.395 35.7327 119.379C35.6861 119.364 35.6432 119.34 35.6065 119.307C35.5697 119.275 35.5401 119.235 35.5193 119.191C35.4985 119.147 35.487 119.099 35.4856 119.05L35.272 116.2C35.2568 115.99 35.3877 115.81 35.6071 115.796C35.6558 115.791 35.7049 115.797 35.7514 115.812C35.7979 115.827 35.8407 115.852 35.8773 115.884C35.9139 115.917 35.9435 115.956 35.9642 116.001C35.9849 116.045 35.9962 116.093 35.9976 116.142L36.2112 118.99C36.2248 119.195 36.096 119.377 35.8772 119.393V119.395ZM88.0257 114.15C87.8294 114.164 87.7237 114.016 87.7069 113.82L87.4776 111.126C87.4614 110.93 87.5399 110.759 87.7362 110.747C87.9325 110.734 88.0383 110.882 88.0551 111.078L88.2838 113.77C88.3006 113.963 88.222 114.132 88.0257 114.148V114.15ZM35.45 113.701C35.4012 113.705 35.352 113.699 35.3055 113.684C35.259 113.669 35.2161 113.644 35.1795 113.611C35.1429 113.579 35.1133 113.539 35.0926 113.494C35.0718 113.45 35.0604 113.402 35.0589 113.353L34.8459 110.509C34.8302 110.3 34.9616 110.122 35.1804 110.109C35.2292 110.105 35.2783 110.111 35.3247 110.126C35.3712 110.142 35.4139 110.167 35.4505 110.199C35.487 110.232 35.5165 110.272 35.5372 110.316C35.5579 110.36 35.5694 110.408 35.5709 110.457L35.784 113.298C35.7997 113.504 35.6688 113.684 35.45 113.699V113.701ZM87.5682 108.767C87.3719 108.779 87.2656 108.631 87.2494 108.434L87.0206 105.746C87.0038 105.55 87.0829 105.38 87.2792 105.37C87.4755 105.361 87.5808 105.508 87.5975 105.703L87.8263 108.389C87.843 108.583 87.764 108.752 87.5682 108.765V108.767ZM35.0239 108.019C34.975 108.023 34.9258 108.017 34.8794 108.001C34.8329 107.985 34.7901 107.96 34.7536 107.928C34.717 107.895 34.6875 107.855 34.6667 107.811C34.646 107.766 34.6344 107.718 34.6328 107.669L34.4203 104.831C34.4051 104.625 34.536 104.446 34.7548 104.434C34.8037 104.431 34.8528 104.437 34.8992 104.453C34.9456 104.468 34.9883 104.494 35.0248 104.526C35.0612 104.559 35.0907 104.599 35.1113 104.643C35.1319 104.688 35.1433 104.736 35.1448 104.785L35.3579 107.619C35.3736 107.824 35.2427 108.004 35.0239 108.017V108.019ZM87.1133 103.395C86.9169 103.406 86.8112 103.256 86.7944 103.061L86.5667 100.378C86.55 100.182 86.629 100.016 86.8248 100.005C87.0206 99.9949 87.1263 100.145 87.1431 100.34L87.3713 103.02C87.386 103.213 87.307 103.381 87.1101 103.393L87.1133 103.395ZM34.6004 102.348C34.5515 102.351 34.5025 102.344 34.4562 102.328C34.41 102.312 34.3674 102.287 34.3311 102.254C34.2947 102.221 34.2653 102.181 34.2446 102.137C34.2238 102.093 34.2122 102.045 34.2103 101.996L33.9978 99.1646C33.9826 98.9584 34.1135 98.7819 34.3323 98.771C34.3813 98.7678 34.4303 98.7744 34.4767 98.7906C34.523 98.8067 34.5656 98.832 34.602 98.8649C34.6383 98.8978 34.6677 98.9377 34.6884 98.9821C34.7091 99.0266 34.7206 99.0748 34.7223 99.1238L34.9317 101.951C34.948 102.158 34.8171 102.334 34.5983 102.347L34.6004 102.348ZM86.6573 98.0323C86.4615 98.0427 86.3552 97.892 86.339 97.6967L86.1112 95.0195C86.0945 94.8247 86.1736 94.6598 86.3699 94.6499C86.5662 94.6399 86.6709 94.7917 86.6876 94.9865L86.9154 97.6611C86.93 97.8553 86.851 98.0208 86.6552 98.0312L86.6573 98.0323ZM34.1763 96.69C34.1273 96.6932 34.0782 96.6865 34.0319 96.6703C33.9855 96.6541 33.9429 96.6288 33.9065 96.5959C33.8701 96.5629 33.8407 96.523 33.8201 96.4784C33.7994 96.4339 33.7879 96.3857 33.7863 96.3366L33.5743 93.5097C33.5591 93.3039 33.69 93.1291 33.9088 93.1196C33.9578 93.1165 34.007 93.1233 34.0533 93.1396C34.0997 93.1558 34.1423 93.1812 34.1786 93.2143C34.215 93.2474 34.2443 93.2874 34.2648 93.332C34.2854 93.3767 34.2968 93.4249 34.2983 93.474L34.5077 96.2963C34.5234 96.5026 34.3925 96.6785 34.1742 96.6889L34.1763 96.69ZM86.2023 92.682C86.0065 92.6914 85.9008 92.5396 85.8841 92.3448L85.6568 89.6749C85.6406 89.4802 85.7197 89.3168 85.9155 89.3085C86.1112 89.3001 86.2165 89.4519 86.2332 89.6467L86.4604 92.3166C86.4746 92.5077 86.396 92.672 86.2003 92.6809L86.2023 92.682ZM33.7507 91.045C33.7016 91.0477 33.6525 91.0406 33.6062 91.0242C33.5599 91.0077 33.5174 90.9822 33.4811 90.9491C33.4448 90.916 33.4154 90.876 33.3947 90.8314C33.3741 90.7868 33.3625 90.7386 33.3607 90.6895L33.2036 88.5687C33.1866 88.3159 33.1918 88.0621 33.2193 87.8102C33.2397 87.606 33.4371 87.4631 33.6544 87.4861C33.8716 87.5092 33.9936 87.6955 33.9732 87.9013C33.9528 88.107 33.9109 88.3253 33.9271 88.5379L34.0842 90.6565C34.0999 90.8607 33.969 91.0345 33.7507 91.045ZM85.749 87.3416C85.5532 87.35 85.4469 87.1971 85.4307 87.0029L85.3867 86.4862C85.3307 85.8271 85.0438 85.1895 84.658 84.6398C84.5433 84.477 84.5533 84.2597 84.7135 84.1534C84.8737 84.0472 85.0689 84.0953 85.1846 84.2581C85.635 84.9105 85.904 85.6707 85.9641 86.4611L86.0076 86.9773C86.0207 87.171 85.9416 87.3338 85.749 87.3416ZM34.87 85.7465C34.7594 85.7505 34.6517 85.711 34.57 85.6365C34.5328 85.6042 34.5028 85.5646 34.4818 85.52C34.4608 85.4755 34.4492 85.4271 34.4479 85.3779C34.4466 85.3287 34.4555 85.2797 34.4741 85.2341C34.4926 85.1885 34.5205 85.1473 34.5559 85.113C35.3314 84.3827 36.3265 83.9292 37.3865 83.8231C37.4882 83.8119 37.5905 83.8393 37.673 83.8999C37.7555 83.9605 37.8123 84.0498 37.832 84.1503C37.8385 84.1992 37.835 84.2489 37.8216 84.2964C37.8082 84.3439 37.7853 84.3881 37.7541 84.4264C37.723 84.4646 37.6843 84.4961 37.6405 84.5189C37.5967 84.5416 37.5488 84.5551 37.4996 84.5586C36.6112 84.6479 35.7774 85.0286 35.1281 85.6413C35.057 85.7072 34.9642 85.7446 34.8673 85.7465H34.87ZM82.7603 83.1876C82.7162 83.189 82.6722 83.1824 82.6304 83.1682C82.1951 83.0223 81.737 82.9562 81.2782 82.9729L80.0642 83.0164C79.9683 83.0195 79.8749 82.9861 79.8028 82.9229C79.7307 82.8597 79.6852 82.7715 79.6757 82.6761C79.6715 82.6301 79.6769 82.5837 79.6914 82.5398C79.706 82.496 79.7294 82.4556 79.7603 82.4212C79.7911 82.3868 79.8287 82.3592 79.8708 82.34C79.9128 82.3208 79.9583 82.3104 80.0045 82.3096L81.219 82.2667C81.7661 82.2476 82.312 82.327 82.8309 82.5012C82.9217 82.5298 82.9977 82.5925 83.0431 82.6761C83.0884 82.7598 83.0994 82.8577 83.0738 82.9494C83.0531 83.0174 83.0113 83.0771 82.9545 83.1199C82.8976 83.1626 82.8287 83.1863 82.7576 83.1876H82.7603ZM77.3409 83.1143L74.6019 83.2127C74.5052 83.2161 74.4109 83.1826 74.3381 83.119C74.2653 83.0554 74.2194 82.9665 74.2097 82.8703C74.206 82.8241 74.2118 82.7775 74.2268 82.7336C74.2418 82.6897 74.2656 82.6493 74.2968 82.6149C74.328 82.5806 74.3659 82.553 74.4082 82.5339C74.4505 82.5148 74.4963 82.5046 74.5427 82.5039L77.2817 82.4075C77.3778 82.4044 77.4715 82.4379 77.5438 82.5013C77.6162 82.5647 77.6617 82.6532 77.6712 82.7489C77.6751 82.7951 77.6694 82.8416 77.6545 82.8856C77.6395 82.9295 77.6157 82.9699 77.5845 83.0042C77.5532 83.0385 77.5152 83.066 77.4728 83.0849C77.4305 83.1039 77.3847 83.1139 77.3382 83.1143H77.3409ZM71.8466 83.3116L69.072 83.4116C68.9746 83.4153 68.8794 83.3817 68.8059 83.3177C68.7324 83.2537 68.686 83.1641 68.6762 83.0672C68.6725 83.0203 68.6784 82.9732 68.6936 82.9287C68.7089 82.8842 68.733 82.8434 68.7647 82.8086C68.7964 82.7739 68.8348 82.746 68.8777 82.7267C68.9205 82.7074 68.9669 82.6971 69.0139 82.6965L71.7848 82.5991C71.8819 82.5957 71.9765 82.6293 72.0497 82.693C72.1229 82.7568 72.1691 82.846 72.179 82.9426C72.1828 82.9891 72.177 83.036 72.162 83.0802C72.147 83.1245 72.123 83.1652 72.0916 83.1998C72.0602 83.2344 72.022 83.2621 71.9794 83.2814C71.9368 83.3006 71.8907 83.3109 71.844 83.3116H71.8466ZM66.2869 83.5116L63.482 83.6127C63.3837 83.6166 63.2876 83.583 63.2133 83.5186C63.139 83.4542 63.092 83.3639 63.082 83.2661C63.0784 83.2188 63.0846 83.1713 63.1001 83.1265C63.1156 83.0817 63.1401 83.0406 63.1721 83.0056C63.2042 82.9707 63.2431 82.9427 63.2864 82.9234C63.3296 82.9041 63.3764 82.8939 63.4238 82.8933L66.2283 82.7949C66.3261 82.7909 66.4217 82.8244 66.4956 82.8886C66.5695 82.9527 66.6162 83.0426 66.6262 83.1399C66.6299 83.1872 66.6239 83.2347 66.6084 83.2795C66.5929 83.3243 66.5684 83.3654 66.5363 83.4003C66.5042 83.4352 66.4653 83.4631 66.4219 83.4823C66.3786 83.5014 66.3317 83.5114 66.2843 83.5116H66.2869ZM60.6581 83.7158L57.8202 83.8173C57.7211 83.8218 57.624 83.7882 57.5488 83.7235C57.4736 83.6588 57.4259 83.5679 57.4155 83.4692C57.4122 83.4215 57.4187 83.3736 57.4346 83.3284C57.4506 83.2833 57.4756 83.2419 57.5081 83.2068C57.5406 83.1717 57.5799 83.1436 57.6237 83.1243C57.6675 83.1049 57.7147 83.0948 57.7626 83.0944L60.6005 82.9944C60.6991 82.9904 60.7955 83.024 60.8702 83.0885C60.9448 83.1529 60.9922 83.2434 61.0026 83.3415C61.006 83.389 60.9997 83.4367 60.984 83.4817C60.9683 83.5267 60.9435 83.568 60.9113 83.6031C60.879 83.6381 60.8399 83.6662 60.7964 83.6856C60.7528 83.705 60.7058 83.7153 60.6581 83.7158ZM54.9649 83.9199L52.0924 84.0246C51.9925 84.0291 51.8946 83.9953 51.8186 83.9302C51.7427 83.865 51.6944 83.7734 51.6836 83.6739C51.6804 83.6257 51.6872 83.5774 51.7034 83.5319C51.7197 83.4864 51.745 83.4447 51.778 83.4094C51.811 83.3741 51.8508 83.3459 51.8951 83.3266C51.9393 83.3072 51.9871 83.2972 52.0354 83.297L54.9074 83.1959C55.0068 83.1914 55.1043 83.225 55.1798 83.2899C55.2553 83.3548 55.3032 83.4461 55.3136 83.5451C55.3165 83.5927 55.3097 83.6404 55.2937 83.6852C55.2776 83.7301 55.2526 83.7713 55.2201 83.8062C55.1876 83.8411 55.1484 83.869 55.1048 83.8883C55.0612 83.9076 55.0142 83.9178 54.9665 83.9184L54.9649 83.9199ZM49.2027 84.1294L46.2956 84.2341C46.1948 84.2391 46.0959 84.2054 46.0191 84.1399C45.9424 84.0744 45.8935 83.982 45.8825 83.8817C45.8795 83.833 45.8865 83.7842 45.9031 83.7383C45.9196 83.6924 45.9454 83.6504 45.9788 83.6148C46.0122 83.5792 46.0525 83.5508 46.0972 83.5313C46.142 83.5119 46.1903 83.5018 46.2391 83.5017L49.1461 83.397C49.2464 83.3922 49.3447 83.426 49.421 83.4912C49.4972 83.5565 49.5457 83.6484 49.5566 83.7482C49.5595 83.7966 49.5526 83.8451 49.5362 83.8907C49.5198 83.9363 49.4942 83.978 49.4611 84.0134C49.4279 84.0487 49.3879 84.0769 49.3435 84.0962C49.299 84.1155 49.2511 84.1256 49.2027 84.1257V84.1294ZM43.3707 84.3388L40.4281 84.4435C40.3262 84.4489 40.226 84.4152 40.1482 84.3492C40.0703 84.2832 40.0206 84.19 40.0093 84.0885C40.0066 84.0394 40.0139 83.9902 40.0308 83.944C40.0478 83.8978 40.0739 83.8555 40.1077 83.8198C40.1415 83.784 40.1823 83.7555 40.2274 83.736C40.2726 83.7165 40.3213 83.7064 40.3705 83.7064L43.3132 83.6017C43.4144 83.5965 43.5137 83.6302 43.5909 83.6959C43.6681 83.7616 43.7172 83.8543 43.7283 83.955C43.7311 84.0038 43.7239 84.0526 43.7072 84.0985C43.6905 84.1444 43.6647 84.1865 43.6312 84.2221C43.5978 84.2577 43.5574 84.2861 43.5126 84.3056C43.4679 84.3251 43.4196 84.3353 43.3707 84.3356V84.3388Z" fill="white"/>
</g>
<path d="M90.615 94.1439C90.4664 94.0509 90.2976 93.9952 90.1229 93.9814C89.9481 93.9676 89.7727 93.9962 89.6114 94.0648L79.282 98.4843C77.8 99.1246 76.7885 100.625 76.9225 102.239L77.2791 106.53C77.422 108.247 78.8108 109.683 80.5128 110.058L91.2023 112.398C91.3701 112.435 91.5442 112.433 91.7108 112.391C91.8775 112.35 92.0323 112.27 92.163 112.158C92.2919 112.048 92.3931 111.908 92.4585 111.751C92.5239 111.594 92.5516 111.424 92.5394 111.254L91.1432 95.0129C91.1296 94.8367 91.0747 94.6662 90.983 94.5152C90.8912 94.3642 90.7651 94.237 90.615 94.1439Z" fill="url(#paint55_linear)"/>
<path d="M83.7915 103.898C83.8156 104.18 83.783 104.463 83.6955 104.731C83.608 104.999 83.4674 105.247 83.2821 105.46C83.0967 105.673 82.8705 105.846 82.6168 105.97C82.3631 106.094 82.0871 106.165 81.8052 106.18C80.6042 106.253 79.5473 105.345 79.4494 104.153C79.4252 103.871 79.4581 103.587 79.5462 103.318C79.6344 103.049 79.7759 102.801 79.9622 102.588C80.1486 102.375 80.3761 102.202 80.6309 102.079C80.8858 101.956 81.1629 101.886 81.4455 101.872C82.6413 101.805 83.6909 102.712 83.7915 103.898Z" fill="url(#paint56_linear)"/>
<defs>
<linearGradient id="paint0_linear" x1="16.607" y1="65.2784" x2="38.5023" y2="234.79" gradientUnits="userSpaceOnUse">
<stop stop-color="#FF9085"/>
<stop offset="1" stop-color="#FB6FBB"/>
</linearGradient>
<linearGradient id="paint1_linear" x1="0.714292" y1="101.58" x2="82.5827" y2="175.556" gradientUnits="userSpaceOnUse">
<stop stop-color="#AA80F9"/>
<stop offset="1" stop-color="#6165D7"/>
</linearGradient>
<linearGradient id="paint2_linear" x1="121.119" y1="135.437" x2="127.074" y2="135.714" gradientUnits="userSpaceOnUse">
<stop stop-color="#444B8C"/>
<stop offset="1" stop-color="#26264F"/>
</linearGradient>
<linearGradient id="paint3_linear" x1="126.081" y1="128.53" x2="122.835" y2="133.863" gradientUnits="userSpaceOnUse">
<stop stop-color="#FFC444"/>
<stop offset="1" stop-color="#F36F56"/>
</linearGradient>
<linearGradient id="paint4_linear" x1="17630.4" y1="154859" x2="40528.6" y2="124251" gradientUnits="userSpaceOnUse">
<stop stop-color="#AA80F9"/>
<stop offset="1" stop-color="#6165D7"/>
</linearGradient>
<linearGradient id="paint5_linear" x1="14235.5" y1="13715.4" x2="15521.1" y2="13715.4" gradientUnits="userSpaceOnUse">
<stop stop-color="#444B8C"/>
<stop offset="1" stop-color="#26264F"/>
</linearGradient>
<linearGradient id="paint6_linear" x1="5158.26" y1="12142.2" x2="5430.41" y2="11735" gradientUnits="userSpaceOnUse">
<stop stop-color="#FFC444"/>
<stop offset="1" stop-color="#F36F56"/>
</linearGradient>
<linearGradient id="paint7_linear" x1="12956.4" y1="154673" x2="36930.4" y2="128650" gradientUnits="userSpaceOnUse">
<stop stop-color="#AA80F9"/>
<stop offset="1" stop-color="#6165D7"/>
</linearGradient>
<linearGradient id="paint8_linear" x1="21700" y1="142288" x2="35384.5" y2="137110" gradientUnits="userSpaceOnUse">
<stop stop-color="#AA80F9"/>
<stop offset="1" stop-color="#6165D7"/>
</linearGradient>
<linearGradient id="paint9_linear" x1="112.949" y1="50.3057" x2="119" y2="71.7691" gradientUnits="userSpaceOnUse">
<stop stop-color="#311944"/>
<stop offset="1" stop-color="#893976"/>
</linearGradient>
<linearGradient id="paint10_linear" x1="29917" y1="48885.7" x2="42277.5" y2="72139.2" gradientUnits="userSpaceOnUse">
<stop stop-color="#311944"/>
<stop offset="1" stop-color="#893976"/>
</linearGradient>
<linearGradient id="paint11_linear" x1="13811.2" y1="143237" x2="22954.1" y2="141096" gradientUnits="userSpaceOnUse">
<stop stop-color="#AA80F9"/>
<stop offset="1" stop-color="#6165D7"/>
</linearGradient>
<linearGradient id="paint12_linear" x1="31855.1" y1="47601.1" x2="43682.7" y2="72664" gradientUnits="userSpaceOnUse">
<stop stop-color="#311944"/>
<stop offset="1" stop-color="#893976"/>
</linearGradient>
<linearGradient id="paint13_linear" x1="895.96" y1="10394.2" x2="360.817" y2="9328.22" gradientUnits="userSpaceOnUse">
<stop stop-color="#FFC444"/>
<stop offset="1" stop-color="#F36F56"/>
</linearGradient>
<linearGradient id="paint14_linear" x1="6381.54" y1="17894.9" x2="6515.68" y2="19024.1" gradientUnits="userSpaceOnUse">
<stop stop-color="#444B8C"/>
<stop offset="1" stop-color="#26264F"/>
</linearGradient>
<linearGradient id="paint15_linear" x1="-3768.97" y1="9141.21" x2="-4012.65" y2="11018.5" gradientUnits="userSpaceOnUse">
<stop stop-color="#FFC444"/>
<stop offset="1" stop-color="#F36F56"/>
</linearGradient>
<linearGradient id="paint16_linear" x1="122.718" y1="48.9055" x2="122.78" y2="51.1349" gradientUnits="userSpaceOnUse">
<stop stop-color="#FFC444"/>
<stop offset="1" stop-color="#F36F56"/>
</linearGradient>
<linearGradient id="paint17_linear" x1="26957.4" y1="29450.5" x2="32923.4" y2="46384.2" gradientUnits="userSpaceOnUse">
<stop stop-color="#311944"/>
<stop offset="1" stop-color="#893976"/>
</linearGradient>
<linearGradient id="paint18_linear" x1="35175.6" y1="43141.2" x2="35702.3" y2="58749" gradientUnits="userSpaceOnUse">
<stop stop-color="#311944"/>
<stop offset="1" stop-color="#893976"/>
</linearGradient>
<linearGradient id="paint19_linear" x1="7755.98" y1="7725.83" x2="7772.97" y2="7177.18" gradientUnits="userSpaceOnUse">
<stop stop-color="#FFC444"/>
<stop offset="1" stop-color="#F36F56"/>
</linearGradient>
<linearGradient id="paint20_linear" x1="8749.77" y1="6826.73" x2="8759.35" y2="6431.05" gradientUnits="userSpaceOnUse">
<stop stop-color="#FFC444"/>
<stop offset="1" stop-color="#F36F56"/>
</linearGradient>
<linearGradient id="paint21_linear" x1="230065" y1="261126" x2="364101" y2="263793" gradientUnits="userSpaceOnUse">
<stop stop-color="#444B8C"/>
<stop offset="1" stop-color="#26264F"/>
</linearGradient>
<linearGradient id="paint22_linear" x1="-155290" y1="33550.3" x2="-15148.2" y2="89882" gradientUnits="userSpaceOnUse">
<stop stop-color="#AA80F9"/>
<stop offset="1" stop-color="#6165D7"/>
</linearGradient>
<linearGradient id="paint23_linear" x1="-23072.3" y1="11533" x2="-3671.93" y2="20721" gradientUnits="userSpaceOnUse">
<stop stop-color="#AA80F9"/>
<stop offset="1" stop-color="#6165D7"/>
</linearGradient>
<linearGradient id="paint24_linear" x1="-26947.7" y1="17869.4" x2="-10328.6" y2="27317.2" gradientUnits="userSpaceOnUse">
<stop stop-color="#AA80F9"/>
<stop offset="1" stop-color="#6165D7"/>
</linearGradient>
<linearGradient id="paint25_linear" x1="-18410.5" y1="3139.2" x2="-2123.73" y2="12422.3" gradientUnits="userSpaceOnUse">
<stop stop-color="#AA80F9"/>
<stop offset="1" stop-color="#6165D7"/>
</linearGradient>
<linearGradient id="paint26_linear" x1="-20519.5" y1="1053.12" x2="-823.781" y2="10392.2" gradientUnits="userSpaceOnUse">
<stop stop-color="#AA80F9"/>
<stop offset="1" stop-color="#6165D7"/>
</linearGradient>
<linearGradient id="paint27_linear" x1="-30443.3" y1="12014.3" x2="-22044" y2="14908.2" gradientUnits="userSpaceOnUse">
<stop stop-color="#AA80F9"/>
<stop offset="1" stop-color="#6165D7"/>
</linearGradient>
<linearGradient id="paint28_linear" x1="-118882" y1="104438" x2="-56058.6" y2="28605.7" gradientUnits="userSpaceOnUse">
<stop stop-color="#AA80F9"/>
<stop offset="1" stop-color="#6165D7"/>
</linearGradient>
<linearGradient id="paint29_linear" x1="-126366" y1="190123" x2="-149670" y2="253506" gradientUnits="userSpaceOnUse">
<stop stop-color="#311944"/>
<stop offset="1" stop-color="#893976"/>
</linearGradient>
<linearGradient id="paint30_linear" x1="51.0699" y1="93.0654" x2="79.3597" y2="5.1818" gradientUnits="userSpaceOnUse">
<stop stop-color="#E38DDD"/>
<stop offset="1" stop-color="#9571F6"/>
</linearGradient>
<linearGradient id="paint31_linear" x1="38.4603" y1="94.6266" x2="63.5071" y2="71.0555" gradientUnits="userSpaceOnUse">
<stop stop-color="#F68252"/>
<stop offset="0.04" stop-color="#F99A4D"/>
<stop offset="0.08" stop-color="#FCAD49"/>
<stop offset="0.13" stop-color="#FEBA46"/>
<stop offset="0.2" stop-color="#FFC244"/>
<stop offset="0.32" stop-color="#FFC444"/>
<stop offset="0.45" stop-color="#FDB946"/>
<stop offset="0.69" stop-color="#F99C4C"/>
<stop offset="1" stop-color="#F36F56"/>
</linearGradient>
<linearGradient id="paint32_linear" x1="-19519.3" y1="32509.6" x2="-19283.1" y2="31670" gradientUnits="userSpaceOnUse">
<stop stop-color="#FF9085"/>
<stop offset="1" stop-color="#FB6FBB"/>
</linearGradient>
<linearGradient id="paint33_linear" x1="-9225.86" y1="9891.32" x2="-9154.34" y2="9637.04" gradientUnits="userSpaceOnUse">
<stop stop-color="#FF9085"/>
<stop offset="1" stop-color="#FB6FBB"/>
</linearGradient>
<linearGradient id="paint34_linear" x1="-9089.24" y1="9913.92" x2="-9017.82" y2="9659.97" gradientUnits="userSpaceOnUse">
<stop stop-color="#FF9085"/>
<stop offset="1" stop-color="#FB6FBB"/>
</linearGradient>
<linearGradient id="paint35_linear" x1="-8952.55" y1="9939.11" x2="-8881.2" y2="9685.4" gradientUnits="userSpaceOnUse">
<stop stop-color="#FF9085"/>
<stop offset="1" stop-color="#FB6FBB"/>
</linearGradient>
<linearGradient id="paint36_linear" x1="-13390.8" y1="23632.3" x2="-13292.6" y2="23283.3" gradientUnits="userSpaceOnUse">
<stop stop-color="#FF9085"/>
<stop offset="1" stop-color="#FB6FBB"/>
</linearGradient>
<linearGradient id="paint37_linear" x1="62.0741" y1="96.7103" x2="89.5004" y2="11.5098" gradientUnits="userSpaceOnUse">
<stop stop-color="#FB6FBB"/>
<stop offset="1" stop-color="#FF9085"/>
</linearGradient>
<linearGradient id="paint38_linear" x1="-19824.6" y1="31574.5" x2="-19365.4" y2="29941.8" gradientUnits="userSpaceOnUse">
<stop stop-color="#FB6FBB"/>
<stop offset="1" stop-color="#FF9085"/>
</linearGradient>
<linearGradient id="paint39_linear" x1="-23362.4" y1="35213.7" x2="-22640.7" y2="32647.8" gradientUnits="userSpaceOnUse">
<stop stop-color="#FB6FBB"/>
<stop offset="1" stop-color="#FF9085"/>
</linearGradient>
<linearGradient id="paint40_linear" x1="-22621.6" y1="30478" x2="-22400.6" y2="29096.3" gradientUnits="userSpaceOnUse">
<stop stop-color="#FF9085"/>
<stop offset="1" stop-color="#FB6FBB"/>
</linearGradient>
<linearGradient id="paint41_linear" x1="42.0875" y1="74.6453" x2="23.571" y2="80.5877" gradientUnits="userSpaceOnUse">
<stop stop-color="#FCB148"/>
<stop offset="0.05" stop-color="#FDBA46"/>
<stop offset="0.14" stop-color="#FFC244"/>
<stop offset="0.32" stop-color="#FFC444"/>
<stop offset="0.48" stop-color="#FDB946"/>
<stop offset="0.78" stop-color="#F99C4D"/>
<stop offset="0.87" stop-color="#F8924F"/>
<stop offset="1" stop-color="#F8924F"/>
</linearGradient>
<linearGradient id="paint42_linear" x1="57.0664" y1="56.2144" x2="40.5355" y2="92.6842" gradientUnits="userSpaceOnUse">
<stop stop-color="#FFDB44"/>
<stop offset="1" stop-color="#FEEF06"/>
</linearGradient>
<linearGradient id="paint43_linear" x1="45092.7" y1="71853.6" x2="43181.2" y2="61597.5" gradientUnits="userSpaceOnUse">
<stop stop-color="#FCB148"/>
<stop offset="0.05" stop-color="#FDBA46"/>
<stop offset="0.14" stop-color="#FFC244"/>
<stop offset="0.32" stop-color="#FFC444"/>
<stop offset="0.48" stop-color="#FDB946"/>
<stop offset="0.78" stop-color="#F99C4D"/>
<stop offset="0.87" stop-color="#F8924F"/>
<stop offset="1" stop-color="#F8924F"/>
</linearGradient>
<linearGradient id="paint44_linear" x1="39772.9" y1="53351.2" x2="47340.5" y2="69128.5" gradientUnits="userSpaceOnUse">
<stop stop-color="#FCB148"/>
<stop offset="0.05" stop-color="#FDBA46"/>
<stop offset="0.14" stop-color="#FFC244"/>
<stop offset="0.32" stop-color="#FFC444"/>
<stop offset="0.48" stop-color="#FDB946"/>
<stop offset="0.78" stop-color="#F99C4D"/>
<stop offset="0.87" stop-color="#F8924F"/>
<stop offset="1" stop-color="#F8924F"/>
</linearGradient>
<linearGradient id="paint45_linear" x1="19503.1" y1="40725.2" x2="24104.6" y2="50973.7" gradientUnits="userSpaceOnUse">
<stop stop-color="#FFDB44"/>
<stop offset="1" stop-color="#FEEF06"/>
</linearGradient>
<linearGradient id="paint46_linear" x1="22448.9" y1="54236.9" x2="31877.3" y2="65992.6" gradientUnits="userSpaceOnUse">
<stop stop-color="#FCB148"/>
<stop offset="0.05" stop-color="#FDBA46"/>
<stop offset="0.14" stop-color="#FFC244"/>
<stop offset="0.32" stop-color="#FFC444"/>
<stop offset="0.48" stop-color="#FDB946"/>
<stop offset="0.78" stop-color="#F99C4D"/>
<stop offset="0.87" stop-color="#F8924F"/>
<stop offset="1" stop-color="#F8924F"/>
</linearGradient>
<linearGradient id="paint47_linear" x1="26455.5" y1="28014.4" x2="21344.6" y2="29625.7" gradientUnits="userSpaceOnUse">
<stop stop-color="#FCB148"/>
<stop offset="0.05" stop-color="#FDBA46"/>
<stop offset="0.14" stop-color="#FFC244"/>
<stop offset="0.32" stop-color="#FFC444"/>
<stop offset="0.48" stop-color="#FDB946"/>
<stop offset="0.78" stop-color="#F99C4D"/>
<stop offset="0.87" stop-color="#F8924F"/>
<stop offset="1" stop-color="#F8924F"/>
</linearGradient>
<linearGradient id="paint48_linear" x1="30578.1" y1="22851.7" x2="25893.5" y2="33003.2" gradientUnits="userSpaceOnUse">
<stop stop-color="#FFDB44"/>
<stop offset="1" stop-color="#FEEF06"/>
</linearGradient>
<linearGradient id="paint49_linear" x1="28385.7" y1="32105.7" x2="27518.8" y2="27453.4" gradientUnits="userSpaceOnUse">
<stop stop-color="#FCB148"/>
<stop offset="0.05" stop-color="#FDBA46"/>
<stop offset="0.14" stop-color="#FFC244"/>
<stop offset="0.32" stop-color="#FFC444"/>
<stop offset="0.48" stop-color="#FDB946"/>
<stop offset="0.78" stop-color="#F99C4D"/>
<stop offset="0.87" stop-color="#F8924F"/>
<stop offset="1" stop-color="#F8924F"/>
</linearGradient>
<linearGradient id="paint50_linear" x1="25703.3" y1="23727.6" x2="29135.7" y2="30884.4" gradientUnits="userSpaceOnUse">
<stop stop-color="#FCB148"/>
<stop offset="0.05" stop-color="#FDBA46"/>
<stop offset="0.14" stop-color="#FFC244"/>
<stop offset="0.32" stop-color="#FFC444"/>
<stop offset="0.48" stop-color="#FDB946"/>
<stop offset="0.78" stop-color="#F99C4D"/>
<stop offset="0.87" stop-color="#F8924F"/>
<stop offset="1" stop-color="#F8924F"/>
</linearGradient>
<linearGradient id="paint51_linear" x1="12637.7" y1="18093.3" x2="14725.8" y2="22742.7" gradientUnits="userSpaceOnUse">
<stop stop-color="#FFDB44"/>
<stop offset="1" stop-color="#FEEF06"/>
</linearGradient>
<linearGradient id="paint52_linear" x1="14760.7" y1="24131.8" x2="19037.5" y2="29464.4" gradientUnits="userSpaceOnUse">
<stop stop-color="#FCB148"/>
<stop offset="0.05" stop-color="#FDBA46"/>
<stop offset="0.14" stop-color="#FFC244"/>
<stop offset="0.32" stop-color="#FFC444"/>
<stop offset="0.48" stop-color="#FDB946"/>
<stop offset="0.78" stop-color="#F99C4D"/>
<stop offset="0.87" stop-color="#F8924F"/>
<stop offset="1" stop-color="#F8924F"/>
</linearGradient>
<linearGradient id="paint53_linear" x1="70.0209" y1="28.2891" x2="53.7743" y2="171.478" gradientUnits="userSpaceOnUse">
<stop stop-color="#AB316D"/>
<stop offset="1" stop-color="#792D3D"/>
</linearGradient>
<linearGradient id="paint54_linear" x1="293887" y1="64652.3" x2="41529.6" y2="179475" gradientUnits="userSpaceOnUse">
<stop stop-color="#AB316D"/>
<stop offset="1" stop-color="#792D3D"/>
</linearGradient>
<linearGradient id="paint55_linear" x1="49346.2" y1="39303.7" x2="26817.8" y2="46507.7" gradientUnits="userSpaceOnUse">
<stop stop-color="#AB316D"/>
<stop offset="1" stop-color="#792D3D"/>
</linearGradient>
<linearGradient id="paint56_linear" x1="10012.8" y1="10478.6" x2="8496.29" y2="11056.6" gradientUnits="userSpaceOnUse">
<stop stop-color="#FFC444"/>
<stop offset="1" stop-color="#F36F56"/>
</linearGradient>
</defs>
</svg>
