<svg width="143" height="140" viewBox="0 0 143 140" fill="none" xmlns="http://www.w3.org/2000/svg">
<path opacity="0.3" d="M126.095 120.605C123.233 123.572 120.526 125.485 118.386 126.997C93.2395 144.766 63.4846 139.587 57.1606 138.322C47.8223 136.454 29.7717 132.843 16.7215 117.73C-3.02234 94.8633 0.0518396 58.8388 15.3669 35.0583C18.1685 30.7082 32.9657 6.56574 63.0414 2.69424C81.2428 0.351238 102.46 5.07674 117.825 17.7542C150.077 44.3643 147.781 98.1223 126.095 120.605Z" fill="url(#paint0_linear)"/>
<path d="M9.03128 0.988971C8.80078 0.288971 9.62987 -0.286029 10.2285 0.153971C16.3098 4.62047 31.2695 18.3605 31.0486 45.3235C30.7719 79.1525 39.2349 90.5375 48.8773 96.981C48.8773 96.981 36.409 94.839 27.3926 83.3345C5.25443 55.0875 13.1254 13.434 9.03128 0.988971Z" fill="url(#paint1_linear)"/>
<path d="M14.416 10.9425C15.532 14.58 16.5748 18.2375 17.4806 21.927C18.4056 25.6115 19.2169 29.3215 19.9095 33.0515C20.5872 36.7835 21.194 40.5275 21.6387 44.2915C22.1002 48.0535 22.3972 51.8305 22.6821 55.6235C22.9882 59.413 23.2746 63.2325 23.9589 67.0345C24.6383 70.829 25.7887 74.605 27.6053 78.062C28.0592 78.9235 28.5309 79.78 29.0487 80.601C29.5514 81.4315 30.0921 82.2405 30.6465 83.0395C31.7645 84.6325 32.9916 86.155 34.3279 87.581C37.0081 90.4265 40.1265 92.868 43.4809 94.854C43.8338 95.063 44.2922 94.9505 44.5045 94.603C44.7131 94.2615 44.6065 93.8205 44.2684 93.6065L44.2658 93.605C43.4642 93.099 42.6691 92.585 41.8999 92.0375C41.511 91.77 41.1348 91.4855 40.7535 91.2085C40.3834 90.9175 40.0011 90.641 39.6406 90.339C38.1774 89.156 36.8 87.873 35.5256 86.496C32.9662 83.7575 30.8095 80.6285 29.068 77.329C28.2161 75.669 27.4896 73.9505 26.9001 72.1825C26.3117 70.414 25.8608 68.598 25.5146 66.7555C24.8215 63.0685 24.5063 59.2905 24.1727 55.5035C23.834 51.716 23.467 47.912 22.942 44.129C22.6846 42.237 22.3927 40.35 22.0667 38.469C21.9093 37.5275 21.7331 36.5895 21.559 35.651C21.3757 34.714 21.1868 33.7785 20.9909 32.8445C20.1983 29.11 19.2906 25.401 18.2655 21.7255C17.2221 18.055 16.0803 14.413 14.7978 10.82C14.7613 10.7175 14.647 10.6635 14.5424 10.6995C14.4399 10.7345 14.3856 10.8425 14.416 10.9425Z" fill="white"/>
<path d="M37.7428 119.56C37.5041 120.895 35.9582 121.556 34.795 120.832C28.3755 116.833 11.2642 103.911 8.16663 78.2684C5.5504 56.6144 2.04264 45.1174 0.0828764 40.0069C-0.331415 38.9264 0.89572 37.9529 1.88068 38.5799C12.7492 45.4979 46.3951 71.1804 37.7428 119.56Z" fill="url(#paint2_linear)"/>
<path d="M35.909 119.887C35.8841 119.91 35.8567 119.931 35.8272 119.95C35.5769 120.107 35.2444 120.034 35.0855 119.787C34.9052 119.508 16.98 91.4763 11.9618 61.5298C11.9136 61.2418 12.1116 60.9693 12.4045 60.9213C12.6975 60.8738 12.9742 61.0688 13.0224 61.3573C18.0041 91.0858 35.8135 118.941 35.9927 119.219C36.1324 119.437 36.0917 119.717 35.909 119.887Z" fill="white"/>
<path d="M34.5315 2.79817C31.0608 3.09517 28.3999 5.95817 28.3897 9.38867C28.3293 30.3702 28.2298 102.741 29.6184 128.356C29.7656 131.069 32.0244 133.201 34.7838 133.231C48.4316 133.375 87.6882 133.641 109.975 132.237C114.617 131.945 118.229 128.159 118.223 123.578C118.196 101.557 117.839 39.6272 114.776 11.3197C114.409 7.92817 111.64 5.28067 108.187 5.01567C93.3025 3.87417 53.7757 1.15017 34.5315 2.79817Z" fill="url(#paint3_linear)"/>
<path d="M33.8679 14.8875C33.5999 32.835 32.8368 92.54 34.169 114.576C34.3634 117.797 36.904 120.34 40.0412 120.448C52.9568 120.891 86.0762 121.749 104.949 119.704C108.347 119.336 110.944 116.435 111.035 112.922C111.507 94.6065 112.782 38.9985 111.487 17.2085C111.28 13.7325 108.584 10.959 105.204 10.7345C91.2193 9.80651 55.309 7.66651 39.2608 8.98251C36.2481 9.22951 33.9146 11.78 33.8679 14.8875Z" fill="url(#paint4_linear)"/>
<path d="M65.0734 5.91881C65.0845 6.41481 65.4861 6.81531 65.9893 6.83031C68.4745 6.90481 75.4753 7.11581 78.6043 7.22681C79.2212 7.24881 79.6929 6.69281 79.5624 6.09831C79.5517 6.07981 79.4715 5.31781 78.6815 5.26331C76.5649 5.11831 70.1789 4.72781 65.9588 4.96731C65.0927 5.01681 65.0454 5.98731 65.0734 5.91881Z" fill="#1F5AA9"/>
<path d="M54.9434 55.0644C64.2987 55.0644 71.8826 47.5957 71.8826 38.3824C71.8826 29.1692 64.2987 21.7004 54.9434 21.7004C45.5881 21.7004 38.0042 29.1692 38.0042 38.3824C38.0042 47.5957 45.5881 55.0644 54.9434 55.0644Z" fill="white"/>
<path d="M55.0088 41.0982C58.6599 41.0982 61.6197 38.1833 61.6197 34.5877C61.6197 30.992 58.6599 28.0771 55.0088 28.0771C51.3577 28.0771 48.3979 30.992 48.3979 34.5877C48.3979 38.1833 51.3577 41.0982 55.0088 41.0982Z" fill="url(#paint5_linear)"/>
<path d="M44.9669 54.1385H66.0293C67.3204 54.1385 68.0942 52.495 67.3991 51.241C65.6099 48.0144 61.8671 43.2749 55.3846 43.4889C49.1368 43.6949 45.4335 47.9765 43.5717 51.047C42.7812 52.3505 43.5875 54.1385 44.9669 54.1385Z" fill="url(#paint6_linear)"/>
<path d="M80.5641 112.238H59.4941C58.8057 112.238 58.2421 111.683 58.2421 111.005V105.103C58.2421 104.425 58.8057 103.87 59.4941 103.87H80.5641C81.2526 103.87 81.8161 104.425 81.8161 105.103V111.005C81.8161 111.683 81.2526 112.238 80.5641 112.238Z" fill="url(#paint7_linear)"/>
<g opacity="0.8">
<g opacity="0.8">
<path opacity="0.8" d="M96.3355 73.5709H48.8026C48.4249 73.5709 48.1162 73.2664 48.1162 72.8949V69.6399C48.1162 69.2679 48.4254 68.9639 48.8026 68.9639H96.3355C96.7132 68.9639 97.0219 69.2684 97.0219 69.6399V72.8949C97.0219 73.2664 96.7132 73.5709 96.3355 73.5709Z" fill="white"/>
<path opacity="0.8" d="M41.8425 74.0457C43.4088 74.0457 44.6786 72.7952 44.6786 71.2527C44.6786 69.7102 43.4088 68.4597 41.8425 68.4597C40.2762 68.4597 39.0065 69.7102 39.0065 71.2527C39.0065 72.7952 40.2762 74.0457 41.8425 74.0457Z" fill="white"/>
</g>
<g opacity="0.8">
<path opacity="0.8" d="M96.3355 82.2152H48.8026C48.4249 82.2152 48.1162 81.9107 48.1162 81.5392V78.2842C48.1162 77.9121 48.4254 77.6082 48.8026 77.6082H96.3355C96.7132 77.6082 97.0219 77.9126 97.0219 78.2842V81.5392C97.0219 81.9112 96.7132 82.2152 96.3355 82.2152Z" fill="white"/>
<path opacity="0.8" d="M44.6437 80.3459C44.8947 78.8233 43.8447 77.3887 42.2986 77.1415C40.7525 76.8944 39.2957 77.9284 39.0448 79.4511C38.7939 80.9737 39.8438 82.4083 41.3899 82.6554C42.936 82.9026 44.3928 81.8686 44.6437 80.3459Z" fill="white"/>
</g>
<g opacity="0.8">
<path opacity="0.8" d="M96.3355 90.8615H48.8026C48.4249 90.8615 48.1162 90.557 48.1162 90.1855V86.9305C48.1162 86.5585 48.4254 86.2545 48.8026 86.2545H96.3355C96.7132 86.2545 97.0219 86.559 97.0219 86.9305V90.1855C97.0219 90.5575 96.7132 90.8615 96.3355 90.8615Z" fill="white"/>
<path opacity="0.8" d="M41.8425 91.3367C43.4088 91.3367 44.6786 90.0863 44.6786 88.5437C44.6786 87.0012 43.4088 85.7507 41.8425 85.7507C40.2762 85.7507 39.0065 87.0012 39.0065 88.5437C39.0065 90.0863 40.2762 91.3367 41.8425 91.3367Z" fill="white"/>
</g>
<g opacity="0.8">
<path opacity="0.8" d="M96.3355 99.5068H48.8026C48.4249 99.5068 48.1162 99.2023 48.1162 98.8308V95.5758C48.1162 95.2038 48.4254 94.8998 48.8026 94.8998H96.3355C96.7132 94.8998 97.0219 95.2043 97.0219 95.5758V98.8308C97.0219 99.2023 96.7132 99.5068 96.3355 99.5068Z" fill="white"/>
<path opacity="0.8" d="M41.8425 99.9825C43.4088 99.9825 44.6786 98.732 44.6786 97.1895C44.6786 95.647 43.4088 94.3965 41.8425 94.3965C40.2762 94.3965 39.0065 95.647 39.0065 97.1895C39.0065 98.732 40.2762 99.9825 41.8425 99.9825Z" fill="white"/>
</g>
</g>
<path d="M77.0104 64.5668H39.7268C39.3917 64.5668 39.1176 64.2968 39.1176 63.9668V60.5598C39.1176 60.2298 39.3917 59.9598 39.7268 59.9598H77.0104C77.3455 59.9598 77.6197 60.2298 77.6197 60.5598V63.9668C77.6197 64.2968 77.3455 64.5668 77.0104 64.5668Z" fill="white"/>
<path d="M120.057 18.1145C119.957 16.5905 119.022 15.24 117.621 14.585L99.4705 6.095C98.3079 5.5515 96.9589 5.5515 95.7967 6.095L77.6456 14.585C76.2449 15.2405 75.3102 16.5905 75.2097 18.1145C73.5073 44.0325 90.3815 53.4755 95.913 55.861C97.0102 56.334 98.2566 56.334 99.3532 55.861C104.885 53.4755 121.759 44.0325 120.057 18.1145Z" fill="url(#paint8_linear)"/>
<path d="M92.1433 9.84289C91.9823 9.84289 91.8275 9.75339 91.7538 9.60039C91.6518 9.38889 91.7432 9.13589 91.9579 9.03539L96.2466 7.02939C96.4618 6.92839 96.7188 7.01889 96.8203 7.23039C96.9223 7.44189 96.831 7.69489 96.6162 7.79539L92.3275 9.80139C92.2676 9.82989 92.2052 9.84289 92.1433 9.84289Z" fill="white"/>
<path d="M76.5976 23.8316C76.3666 23.8316 76.1752 23.6511 76.1676 23.4216C76.1097 21.7301 76.1401 19.9671 76.2574 18.1811C76.3326 17.0336 77.0373 16.0136 78.0958 15.5186L90.3063 9.80758C90.521 9.70658 90.7779 9.79708 90.88 10.0086C90.982 10.2201 90.8906 10.4731 90.6759 10.5736L78.4655 16.2846C77.6887 16.6476 77.1723 17.3956 77.117 18.2356C77.0017 19.9936 76.9718 21.7286 77.0286 23.3926C77.0368 23.6266 76.8504 23.8231 76.6128 23.8311C76.6072 23.8316 76.6022 23.8316 76.5976 23.8316Z" fill="white"/>
<path d="M115.668 19.1261C115.648 18.7396 115.414 18.3946 115.059 18.2286L98.0911 10.2921C97.8012 10.1566 97.4651 10.1566 97.1752 10.2921L80.2071 18.2286C79.8522 18.3946 79.6186 18.7396 79.5983 19.1261C79.0967 28.794 81.3641 36.861 86.3427 43.113C90.1384 47.88 94.5788 50.4345 97.1808 51.626C97.4677 51.7575 97.7972 51.7575 98.084 51.626C100.686 50.434 105.126 47.8795 108.922 43.113C113.902 36.861 116.17 28.794 115.668 19.1261Z" fill="url(#paint9_linear)"/>
<path d="M86.8581 29.7234C88.2609 28.8674 90.1044 29.3144 90.9431 30.7144L94.8875 37.2989C95.2825 37.9579 96.2715 37.8924 96.5726 37.1869L105.446 16.4044C105.889 15.3674 107.448 15.6774 107.459 16.8019C107.517 23.0934 106.116 35.0874 96.1573 45.3359C96.1573 45.3359 90.4816 43.3169 85.7137 33.6324C85.0248 32.2334 85.5162 30.5424 86.8581 29.7234Z" fill="url(#paint10_linear)"/>
<path d="M123.025 133.661C123.025 133.661 123.35 135.472 123.509 137.266C123.572 137.967 123.023 138.575 122.309 138.604C119.884 138.704 114.697 138.897 112.836 138.815C112.556 138.803 112.373 138.521 112.477 138.265C112.564 138.05 112.731 137.876 112.944 137.78L121.512 133.902L123.025 133.661Z" fill="url(#paint11_linear)"/>
<path d="M123.291 132.596L123.03 134.763C123.03 134.763 121.529 135.451 120.504 134.677L121.126 132.262L123.291 132.596Z" fill="url(#paint12_linear)"/>
<path d="M123.095 91.857C123.208 92.423 123.7 120.096 120.696 132.497C120.647 132.699 120.752 132.908 120.947 132.986C121.408 133.172 122.311 133.44 123.393 133.476C123.728 133.487 124.029 133.272 124.123 132.955C124.982 130.078 129.096 115.662 129.633 101.891C130.233 86.503 129.633 101.367 129.633 101.367L129.281 91.855L123.095 91.857Z" fill="url(#paint13_linear)"/>
<path d="M132.881 134.606C132.881 134.606 133.398 135.52 133.899 137.951C133.989 138.39 133.678 138.81 133.225 138.854C132.425 138.931 131.192 139.031 130.204 139.024C129.749 139.021 129.394 138.631 129.449 138.186C129.558 137.299 129.899 135.843 130.952 134.709L132.881 134.606Z" fill="url(#paint14_linear)"/>
<path d="M133.335 131.819L132.725 135.096C132.725 135.096 132.122 135.538 130.929 135.217L131.22 131.691L133.335 131.819Z" fill="url(#paint15_linear)"/>
<path d="M134.983 92.7061C137.44 107.307 134.45 128.793 133.442 132.998C133.381 133.255 133.17 133.452 132.905 133.496C132.455 133.569 131.714 133.629 130.984 133.42C130.732 133.348 130.555 133.125 130.545 132.867C130.41 129.467 130.653 108.595 128.364 100.346C128.249 99.9281 127.989 99.5636 127.631 99.3126L123.188 96.2021L122.847 91.1741L134.983 92.7061Z" fill="url(#paint16_linear)"/>
<path d="M119.33 65.0412C126.692 64.9212 134.815 66.9447 134.815 66.9447C137.009 79.5547 135.199 94.0997 135.199 94.0997C129.499 95.5717 123.07 93.1997 123.07 93.1997C122.123 87.9292 117.703 73.0957 117.703 73.0957C114.106 72.6562 111.143 71.6342 108.703 70.2827C110.564 68.1577 111.441 65.4542 111.823 63.8562C114.425 64.6527 117.059 65.0782 119.33 65.0412Z" fill="url(#paint17_linear)"/>
<path d="M97.584 54.3624C98.307 53.5024 99.2224 53.9089 99.2224 53.9089C100.306 58.4159 105.986 62.0699 111.822 63.8559C111.441 65.4539 110.564 68.1579 108.702 70.2823C99.0173 64.9199 97.584 54.3624 97.584 54.3624Z" fill="url(#paint18_linear)"/>
<path d="M97.7597 54.5808C97.6841 54.8178 98.5604 55.1783 99.0762 54.2093C99.0945 53.7448 99.3809 51.7553 99.0991 51.3773C97.5983 49.3623 94.6891 46.8368 94.6891 46.8368C94.1971 47.3148 94.6023 47.7838 94.6023 47.7838L96.0137 49.2318C95.7187 49.7573 95.3583 50.2008 95.1897 50.8363C95.0618 51.3178 95.14 51.8318 95.3867 52.2698C95.6345 52.7093 95.9726 53.2808 96.2919 53.7278C96.8971 54.5743 97.7597 54.5808 97.7597 54.5808Z" fill="url(#paint19_linear)"/>
<path d="M96.6309 50.1718L97.917 51.2458L98.3206 52.3148L97.1737 53.5678C97.1737 53.5678 96.7883 51.4463 96.5015 50.9873C96.2156 50.5278 96.3644 50.3058 96.6309 50.1718Z" fill="url(#paint20_linear)"/>
<path d="M131.991 73.9653L134.815 66.9453C134.815 66.9453 141.691 71.5468 142.822 77.3803C141.523 77.4743 139.158 77.8073 136.844 78.9583C136.336 76.2033 131.991 73.9653 131.991 73.9653Z" fill="url(#paint21_linear)"/>
<path d="M125.982 80.5712C125.982 80.5712 133.702 84.8682 136.307 81.1992C136.848 80.4372 136.977 79.6802 136.844 78.9582C139.158 77.8073 141.523 77.4747 142.822 77.3802C143.163 79.1387 142.983 81.0097 141.934 82.9002C137.37 91.1207 124.96 82.4457 124.96 82.4457L125.982 80.5712Z" fill="url(#paint22_linear)"/>
<path d="M126.909 86.0071L122.696 71.5156C122.648 71.3511 122.506 71.2311 122.333 71.2111C121.569 71.1236 119.357 70.8771 116.803 70.6646C113.727 70.4081 110.154 70.2006 108.019 70.3771C107.715 70.4021 107.532 70.7186 107.667 70.9871C108.881 73.4061 113.875 83.2456 116.376 86.4686C116.459 86.5756 116.587 86.6376 116.723 86.6366L126.499 86.5471C126.784 86.5451 126.988 86.2761 126.909 86.0071Z" fill="url(#paint23_linear)"/>
<path d="M116.366 69.4081L113.311 68.9066C113.149 68.8801 113.015 69.0331 113.067 69.1871L113.37 70.0896C113.396 70.1681 113.466 70.2251 113.549 70.2361L116.489 70.6226C116.641 70.6426 116.766 70.5066 116.731 70.3596L116.544 69.5716C116.524 69.4871 116.454 69.4226 116.366 69.4081Z" fill="url(#paint24_linear)"/>
<path d="M118.654 71.9549L118.402 70.6639C118.376 70.5344 118.268 70.4364 118.135 70.4234L111.964 69.8069C111.757 69.7859 111.59 69.9734 111.639 70.1734L112.031 71.7819C112.063 71.9104 112.177 72.0034 112.311 72.0104L118.34 72.3095C118.537 72.319 118.691 72.1449 118.654 71.9549Z" fill="url(#paint25_linear)"/>
<path d="M125.892 82.5058C125.892 82.5058 126.478 80.1288 126.242 79.2858C126.005 78.4428 125.546 77.3583 124.017 77.5993C122.488 77.8403 120.684 78.4748 120.684 78.4748C120.684 78.4748 120.775 79.5733 121.937 79.2188L121.217 79.7678C121.217 79.7678 121.32 80.6473 122.301 80.1773L121.631 80.9058C121.631 80.9058 122.053 81.6283 122.775 81.1648C123.497 80.7013 123.843 82.7923 125.892 82.5058Z" fill="url(#paint26_linear)"/>
<path d="M126.787 59.1553L129.13 65.8268C129.168 65.9373 129.122 66.0598 129.018 66.1163C128.38 66.4638 126.079 67.4688 123.307 65.7378C123.018 65.5573 122.822 65.2633 122.778 64.9293L122.02 59.1553H126.787Z" fill="url(#paint27_linear)"/>
<path d="M121.69 52.9769C121.69 52.9769 119.118 57.7454 119.447 59.6714C119.777 61.5974 122.965 61.4594 125.749 59.8949L127.694 54.7459L121.69 52.9769Z" fill="url(#paint28_linear)"/>
<path d="M125.626 57.3666C125.513 57.3171 125.471 57.1811 125.538 57.0791C125.745 56.7691 126.131 56.1366 126.254 55.5826C126.254 55.5826 126.717 55.2911 125.077 54.9046C123.438 54.5181 120.993 53.9186 120.48 52.5441C119.979 51.2041 121.295 47.8351 123.395 50.5196C123.475 50.6216 123.631 50.6241 123.711 50.5216C124.055 50.0801 124.961 49.1646 126.217 49.7196C127.393 50.2391 127.526 51.0876 127.509 51.5156C127.505 51.6416 127.619 51.7391 127.744 51.7156C128.339 51.6041 129.766 51.5081 130.432 52.9496C130.98 54.1371 130.624 54.8091 130.299 55.1376C130.194 55.2441 130.24 55.4196 130.385 55.4631C130.776 55.5811 131.28 55.9071 131.229 56.8086C131.159 58.0551 129.744 57.9451 129.342 57.8886C129.276 57.8791 129.209 57.9016 129.165 57.9501C128.819 58.3266 127.263 59.9251 125.578 60.1176C125.432 60.1341 125.319 59.9926 125.367 59.8556L126.096 57.7686C126.13 57.6716 126.083 57.5656 125.988 57.5241L125.626 57.3666Z" fill="url(#paint29_linear)"/>
<path d="M125.333 57.6634C125.333 57.6634 127.164 56.4259 127.298 57.4679C127.432 58.5099 125.649 58.9774 124.766 58.5889L125.333 57.6634Z" fill="url(#paint30_linear)"/>
<defs>
<linearGradient id="paint0_linear" x1="160.369" y1="180.697" x2="38.0905" y2="26.4931" gradientUnits="userSpaceOnUse">
<stop stop-color="#B37CFF"/>
<stop offset="1" stop-color="#F895E7"/>
</linearGradient>
<linearGradient id="paint1_linear" x1="-2.33685" y1="39.5777" x2="60.2796" y2="57.7997" gradientUnits="userSpaceOnUse">
<stop stop-color="#A737D5"/>
<stop offset="1" stop-color="#EF497A"/>
</linearGradient>
<linearGradient id="paint2_linear" x1="14.9159" y1="119.043" x2="22.7869" y2="40.5387" gradientUnits="userSpaceOnUse">
<stop stop-color="#CE1567"/>
<stop offset="1" stop-color="#7A1DBC"/>
</linearGradient>
<linearGradient id="paint3_linear" x1="28.069" y1="68.5221" x2="117.565" y2="66.5315" gradientUnits="userSpaceOnUse">
<stop stop-color="#2B3582"/>
<stop offset="1" stop-color="#150E42"/>
</linearGradient>
<linearGradient id="paint4_linear" x1="38.2751" y1="18.4893" x2="223.923" y2="280.597" gradientUnits="userSpaceOnUse">
<stop stop-color="#FDF53F"/>
<stop offset="1" stop-color="#D93C65"/>
</linearGradient>
<linearGradient id="paint5_linear" x1="40.2896" y1="84.6761" x2="74.1228" y2="-34.0349" gradientUnits="userSpaceOnUse">
<stop stop-color="#FDF53F"/>
<stop offset="1" stop-color="#D93C65"/>
</linearGradient>
<linearGradient id="paint6_linear" x1="45.4842" y1="86.1564" x2="79.3175" y2="-32.5549" gradientUnits="userSpaceOnUse">
<stop stop-color="#FDF53F"/>
<stop offset="1" stop-color="#D93C65"/>
</linearGradient>
<linearGradient id="paint7_linear" x1="83.1798" y1="54.507" x2="63.9777" y2="135.124" gradientUnits="userSpaceOnUse">
<stop stop-color="#FDF53F"/>
<stop offset="1" stop-color="#D93C65"/>
</linearGradient>
<linearGradient id="paint8_linear" x1="161.68" y1="-42.4107" x2="78.3194" y2="51.003" gradientUnits="userSpaceOnUse">
<stop stop-color="#53D8FF"/>
<stop offset="1" stop-color="#3840F7"/>
</linearGradient>
<linearGradient id="paint9_linear" x1="116.992" y1="2.42466" x2="33.8092" y2="110.109" gradientUnits="userSpaceOnUse">
<stop stop-color="#53D8FF"/>
<stop offset="1" stop-color="#3840F7"/>
</linearGradient>
<linearGradient id="paint10_linear" x1="65.2576" y1="59.8171" x2="121.262" y2="10.735" gradientUnits="userSpaceOnUse">
<stop stop-color="#A737D5"/>
<stop offset="1" stop-color="#EF497A"/>
</linearGradient>
<linearGradient id="paint11_linear" x1="113.107" y1="131.157" x2="143.964" y2="165.238" gradientUnits="userSpaceOnUse">
<stop stop-color="#CB236D"/>
<stop offset="1" stop-color="#4C246D"/>
</linearGradient>
<linearGradient id="paint12_linear" x1="123.291" y1="133.653" x2="120.504" y2="133.653" gradientUnits="userSpaceOnUse">
<stop stop-color="#F9B776"/>
<stop offset="1" stop-color="#F47960"/>
</linearGradient>
<linearGradient id="paint13_linear" x1="129.9" y1="112.666" x2="120.684" y2="112.666" gradientUnits="userSpaceOnUse">
<stop stop-color="#2B3582"/>
<stop offset="1" stop-color="#150E42"/>
</linearGradient>
<linearGradient id="paint14_linear" x1="120.145" y1="124.784" x2="151.002" y2="158.865" gradientUnits="userSpaceOnUse">
<stop stop-color="#CB236D"/>
<stop offset="1" stop-color="#4C246D"/>
</linearGradient>
<linearGradient id="paint15_linear" x1="133.335" y1="133.512" x2="130.929" y2="133.512" gradientUnits="userSpaceOnUse">
<stop stop-color="#F9B776"/>
<stop offset="1" stop-color="#F47960"/>
</linearGradient>
<linearGradient id="paint16_linear" x1="135.929" y1="112.369" x2="122.846" y2="112.369" gradientUnits="userSpaceOnUse">
<stop stop-color="#2B3582"/>
<stop offset="1" stop-color="#150E42"/>
</linearGradient>
<linearGradient id="paint17_linear" x1="127.024" y1="68.7531" x2="112.431" y2="108.607" gradientUnits="userSpaceOnUse">
<stop stop-color="#CE1567"/>
<stop offset="1" stop-color="#7A1DBC"/>
</linearGradient>
<linearGradient id="paint18_linear" x1="111.822" y1="62.0477" x2="97.5841" y2="62.0477" gradientUnits="userSpaceOnUse">
<stop stop-color="#F9B776"/>
<stop offset="1" stop-color="#F47960"/>
</linearGradient>
<linearGradient id="paint19_linear" x1="100.756" y1="59.6972" x2="110.068" y2="81.2102" gradientUnits="userSpaceOnUse">
<stop stop-color="#F9B776"/>
<stop offset="1" stop-color="#F47960"/>
</linearGradient>
<linearGradient id="paint20_linear" x1="97.6523" y1="52.5675" x2="93.7509" y2="46.4766" gradientUnits="userSpaceOnUse">
<stop stop-color="#F9B776"/>
<stop offset="1" stop-color="#F47960"/>
</linearGradient>
<linearGradient id="paint21_linear" x1="138.441" y1="72.9335" x2="123.848" y2="112.788" gradientUnits="userSpaceOnUse">
<stop stop-color="#CE1567"/>
<stop offset="1" stop-color="#7A1DBC"/>
</linearGradient>
<linearGradient id="paint22_linear" x1="142.979" y1="81.9101" x2="124.96" y2="81.9101" gradientUnits="userSpaceOnUse">
<stop stop-color="#F9B776"/>
<stop offset="1" stop-color="#F47960"/>
</linearGradient>
<linearGradient id="paint23_linear" x1="119.509" y1="69.2932" x2="109.884" y2="110.016" gradientUnits="userSpaceOnUse">
<stop stop-color="#9CFFFB"/>
<stop offset="1" stop-color="#9BFFFA"/>
</linearGradient>
<linearGradient id="paint24_linear" x1="113.306" y1="62.8847" x2="115.355" y2="72.0237" gradientUnits="userSpaceOnUse">
<stop stop-color="#53D8FF"/>
<stop offset="1" stop-color="#3840F7"/>
</linearGradient>
<linearGradient id="paint25_linear" x1="114.41" y1="66.7123" x2="115.389" y2="72.6804" gradientUnits="userSpaceOnUse">
<stop stop-color="#53D8FF"/>
<stop offset="1" stop-color="#3840F7"/>
</linearGradient>
<linearGradient id="paint26_linear" x1="126.298" y1="80.0491" x2="120.684" y2="80.0491" gradientUnits="userSpaceOnUse">
<stop stop-color="#F9B776"/>
<stop offset="1" stop-color="#F47960"/>
</linearGradient>
<linearGradient id="paint27_linear" x1="129.143" y1="62.939" x2="122.019" y2="62.939" gradientUnits="userSpaceOnUse">
<stop stop-color="#F9B776"/>
<stop offset="1" stop-color="#F47960"/>
</linearGradient>
<linearGradient id="paint28_linear" x1="120.325" y1="58.4753" x2="128.092" y2="53.6646" gradientUnits="userSpaceOnUse">
<stop stop-color="#F9B776"/>
<stop offset="1" stop-color="#F47960"/>
</linearGradient>
<linearGradient id="paint29_linear" x1="132.304" y1="48.8111" x2="122.304" y2="56.831" gradientUnits="userSpaceOnUse">
<stop stop-color="#2B3582"/>
<stop offset="1" stop-color="#150E42"/>
</linearGradient>
<linearGradient id="paint30_linear" x1="122.382" y1="60.2303" x2="129.37" y2="55.9021" gradientUnits="userSpaceOnUse">
<stop stop-color="#F9B776"/>
<stop offset="1" stop-color="#F47960"/>
</linearGradient>
</defs>
</svg>
