<svg width="141" height="140" viewBox="0 0 141 140" fill="none" xmlns="http://www.w3.org/2000/svg">
<path opacity="0.3" d="M123.848 120.36C120.975 123.365 118.256 125.302 116.108 126.833C90.8587 144.826 60.982 139.581 54.6328 138.3C45.2565 136.409 27.132 132.753 14.0283 117.448C-5.79632 94.2927 -2.70952 57.8125 12.6678 33.7314C15.4807 29.3267 30.3382 4.87841 60.5365 0.95787C78.812 -1.41473 100.116 3.37082 115.543 16.2083C147.927 43.1547 145.622 97.5929 123.848 120.36Z" fill="url(#paint0_linear)"/>
<path opacity="0.81" d="M71.1071 134.256C71.1071 134.256 98.6785 64.2288 139.638 56.5789C140.365 56.4432 141.027 57.0273 140.991 57.7697C140.577 66.4077 135.33 112.123 71.1071 134.256Z" fill="url(#paint1_linear)"/>
<path opacity="0.62" d="M132.279 67.9374C130.187 70.9385 127.996 73.8603 125.774 76.76C125.219 77.4853 124.653 78.201 124.092 78.9223C123.527 79.64 122.975 80.3668 122.4 81.077L120.683 83.211C120.108 83.9202 119.544 84.6394 118.956 85.337C117.785 86.7387 116.626 88.1499 115.447 89.544L111.871 93.694C109.446 96.4232 107.022 99.155 104.521 101.817L102.661 103.827C102.048 104.503 101.398 105.145 100.769 105.806L96.9712 109.754L93.0757 113.606C92.425 114.246 91.7804 114.894 91.1172 115.521L89.1075 117.382C87.765 118.62 86.4365 119.874 85.0715 121.086L80.9217 124.661L79.8797 125.549C79.5295 125.842 79.1889 126.146 78.8307 126.429L76.687 128.133C75.9746 128.703 75.2517 129.26 74.5348 129.824C73.8169 130.388 73.0986 130.949 72.3756 131.505C72.3205 131.548 72.2412 131.537 72.1986 131.482C72.1579 131.428 72.1659 131.352 72.2161 131.309L72.2196 131.306C72.9104 130.709 73.6052 130.12 74.3006 129.531C74.9969 128.943 75.6877 128.348 76.3885 127.766L78.485 126.014C79.1763 125.421 79.8461 124.802 80.5319 124.203L84.637 120.596L88.658 116.893L90.6702 115.044C91.0063 114.736 91.3264 114.412 91.656 114.097L92.6423 113.151L96.5869 109.365C99.1525 106.775 101.761 104.225 104.238 101.547C105.49 100.221 106.756 98.9073 107.964 97.5409C109.183 96.1842 110.413 94.837 111.623 93.4721L115.211 89.3392C116.395 87.9512 117.558 86.5455 118.733 85.1494C119.324 84.4548 119.89 83.7381 120.467 83.032L122.191 80.906C122.768 80.1994 123.323 79.4746 123.889 78.7599C124.452 78.0417 125.021 77.3285 125.579 76.6057C127.799 73.7095 129.987 70.7851 132.071 67.7922L132.073 67.7902C132.113 67.7327 132.192 67.719 132.248 67.7589C132.305 67.8007 132.319 67.8799 132.279 67.9374Z" fill="white"/>
<g opacity="0.79">
<path opacity="0.79" d="M64.4257 94.0948C64.4257 94.0948 77.8289 32.2569 118.291 0.201582C118.819 -0.216548 119.6 0.0477462 119.761 0.703439C122.306 11.0583 135.558 77.1038 64.4257 94.0948Z" fill="url(#paint2_linear)"/>
<path opacity="0.62" d="M113.996 18.0412C113.531 19.8348 112.99 21.6022 112.42 23.3614C111.849 25.1197 111.248 26.8694 110.61 28.6045C109.33 32.0741 107.937 35.5013 106.435 38.8807C106.062 39.727 105.669 40.5638 105.287 41.4061C104.903 42.2469 104.488 43.0736 104.09 43.9078C103.695 44.7441 103.268 45.5637 102.853 46.3899L102.226 47.6266L101.577 48.8518C99.847 52.1196 98.025 55.3406 96.0614 58.4743C94.0918 61.603 92.0445 64.6857 89.8361 67.6505C89.5627 68.0232 89.2943 68.3995 89.0169 68.7687L88.1696 69.8657L87.3222 70.9627C87.0383 71.3269 86.7629 71.6981 86.4649 72.0517L84.7055 74.1938L84.264 74.7279L83.8065 75.2479L82.8915 76.2885C78.0352 81.8593 72.5996 86.9163 66.722 91.3679C66.6733 91.4047 66.6046 91.3951 66.568 91.3462C66.5324 91.2988 66.5409 91.2317 66.586 91.1944L66.5885 91.1924L68.7222 89.4427L69.7907 88.5706L70.8247 87.6572L72.8906 85.8298L74.8877 83.9268C75.2183 83.6075 75.559 83.2983 75.8846 82.974L76.8518 81.9905C77.4934 81.3318 78.1481 80.6867 78.7787 80.0169C80.0179 78.6576 81.2861 77.3255 82.4655 75.9132L83.365 74.8676L83.8145 74.3446L84.2485 73.8084L85.9883 71.6674C86.2833 71.3148 86.5562 70.9441 86.8376 70.5804L87.6769 69.4854L88.5162 68.3904C88.7911 68.0217 89.057 67.6459 89.3279 67.2742C91.5152 64.315 93.542 61.2378 95.4915 58.1157C97.4515 54.9991 99.2832 51.8014 101.017 48.5511L101.669 47.3331L102.298 46.1034C102.715 45.2818 103.144 44.4662 103.54 43.635C104.355 41.9821 105.141 40.3156 105.914 38.6431C107.45 35.2925 108.877 31.891 110.195 28.4466C110.863 26.7282 111.494 24.9951 112.097 23.252C112.399 22.3809 112.69 21.5053 112.972 20.6277C113.258 19.7516 113.531 18.8689 113.784 17.9847L113.784 17.9827C113.801 17.9242 113.862 17.8904 113.92 17.9071C113.977 17.9237 114.011 17.9837 113.996 18.0412Z" fill="white"/>
</g>
<g opacity="0.76">
<path opacity="0.76" d="M43.3987 90.7757C43.3987 90.7757 38.1717 35.92 6.48751 3.99933C6.07464 3.58322 5.37229 3.7305 5.1656 4.28027C1.8992 12.9682 -16.3512 68.69 43.3987 90.7757Z" fill="url(#paint3_linear)"/>
<path opacity="0.62" d="M8.56985 19.8411C9.11065 23.0041 9.81049 26.1448 10.6102 29.2543C11.3973 32.3679 12.2837 35.4557 13.269 38.5102C13.7677 40.0359 14.2764 41.5576 14.8102 43.0708C15.068 43.8309 15.355 44.5799 15.6304 45.3334L16.0483 46.4617L16.4863 47.5819C17.6511 50.5709 18.9068 53.5245 20.2804 56.4217C21.6435 59.3229 23.0777 62.1933 24.6635 64.9785C24.8592 65.328 25.0503 65.6806 25.25 66.0276L25.8625 67.0616L26.4751 68.0956C26.6808 68.439 26.8784 68.7881 27.0972 69.1235L28.3799 71.1556L28.699 71.6645L29.0336 72.1634L29.7029 73.1615C30.5758 74.5057 31.534 75.7894 32.4641 77.0937C32.9396 77.7378 33.4388 78.3642 33.9249 79.0007L34.6589 79.952C34.9067 80.2667 35.1691 80.5689 35.4214 80.8801L36.9495 82.7347L38.5449 84.5312L39.3435 85.429L40.1763 86.2951L41.8378 88.0327L41.8398 88.0347C41.882 88.0786 41.8805 88.1487 41.8368 88.191C41.7942 88.2324 41.727 88.2319 41.6848 88.1915C37.0524 83.7394 32.8669 78.804 29.2368 73.4833L28.5515 72.4887L28.2089 71.9914L27.8813 71.484L26.5789 69.4488C26.3577 69.1124 26.1575 68.7628 25.9493 68.4179L25.3293 67.3814L24.7092 66.3443C24.507 65.9963 24.3139 65.6428 24.1152 65.2922C22.5099 62.4985 21.056 59.62 19.6734 56.7097C18.2978 53.7954 17.0547 50.8196 15.8963 47.8135L15.4613 46.6862L15.0465 45.5513C14.773 44.7937 14.4881 44.0397 14.2327 43.2756C13.9744 42.5124 13.701 41.7549 13.4556 40.9872C13.2128 40.219 12.96 39.4544 12.7252 38.6837C10.8409 32.5227 9.2757 26.2553 8.35212 19.8714C8.34359 19.8108 8.38523 19.7548 8.44493 19.7463C8.50413 19.7377 8.55881 19.778 8.56884 19.8371L8.56985 19.8411Z" fill="white"/>
</g>
<path d="M15.3019 7.26189C14.8484 28.7883 13.3765 103.041 14.0793 129.354C14.1536 132.142 16.0539 134.379 18.4238 134.47C30.1459 134.922 73.1178 136.065 92.2912 135.119C96.2846 134.922 99.4607 131.117 99.5434 126.417C99.9418 103.823 100.821 40.2725 98.7317 11.1597C98.4814 7.67145 96.1536 4.89383 93.1923 4.54531C80.4257 3.04326 37.2687 -0.628111 20.7044 0.635863C17.7169 0.863842 15.3761 3.74233 15.3019 7.26189Z" fill="url(#paint4_linear)"/>
<path d="M20.5318 13.8666C19.9007 31.2414 17.9105 89.0443 18.5421 110.418C18.6344 113.542 20.7279 116.068 23.3813 116.251C34.3057 117.004 71.5766 118.661 87.6001 117.152C90.4852 116.88 92.7493 114.136 92.9053 110.737C93.7175 93.0107 96.0488 39.1879 95.4432 18.0534C95.3464 14.6817 93.126 11.9282 90.2695 11.6266C78.451 10.3783 38.8464 7.40901 25.2304 8.28259C22.6744 8.44652 20.6411 10.8585 20.5318 13.8666Z" fill="url(#paint5_linear)"/>
<path opacity="0.61" d="M49.8356 4.90561C49.8356 5.56635 50.273 6.11108 50.8339 6.14538C53.6026 6.31586 61.4022 6.79855 64.8878 7.03611C65.5751 7.08302 66.1144 6.35621 65.984 5.56131L65.9619 5.42563C65.8731 4.88292 65.4903 4.47487 65.0228 4.42444C62.6664 4.17023 55.5572 3.46662 50.8464 3.66434C50.2806 3.68855 49.8356 4.23983 49.8356 4.90561Z" fill="url(#paint6_linear)"/>
<path d="M55.2831 50.3088C64.313 50.3088 71.6332 42.9492 71.6332 33.8706C71.6332 24.792 64.313 17.4324 55.2831 17.4324C46.2533 17.4324 38.9331 24.792 38.9331 33.8706C38.9331 42.9492 46.2533 50.3088 55.2831 50.3088Z" fill="url(#paint7_linear)"/>
<path d="M60.289 27.6587C60.289 30.4424 58.0445 33.447 55.2763 33.447C52.5075 33.447 50.2635 30.4419 50.2635 27.6587C50.2635 24.8755 52.508 22.9004 55.2763 22.9004C58.045 22.9009 60.289 24.8755 60.289 27.6587Z" fill="white"/>
<path d="M49.0554 44.1632H61.2927C62.581 44.1632 63.7213 43.3264 64.1136 42.0927L64.7723 40.0237C65.2544 38.5086 64.4708 36.8684 62.9848 36.3221C58.0047 34.4912 52.855 34.7263 47.5799 36.4911C46.102 36.9854 45.2823 38.5747 45.6896 40.0858L46.1968 41.9651C46.547 43.2624 47.7184 44.1632 49.0554 44.1632Z" fill="white"/>
<g opacity="0.71">
<path opacity="0.65" d="M86.6344 76.5608H26.9794C26.7923 76.5608 26.6407 76.4085 26.6407 76.2203V67.5692C26.6407 67.3811 26.7923 67.2288 26.9794 67.2288H86.6344C86.8215 67.2288 86.973 67.3811 86.973 67.5692V76.2203C86.973 76.4085 86.821 76.5608 86.6344 76.5608Z" fill="white"/>
<path opacity="0.65" d="M86.3088 91.787H26.6538C26.4666 91.787 26.3151 91.6346 26.3151 91.4465V82.7954C26.3151 82.6073 26.4666 82.455 26.6538 82.455H86.3088C86.4959 82.455 86.6474 82.6073 86.6474 82.7954V91.4465C86.6474 91.6341 86.4954 91.787 86.3088 91.787Z" fill="white"/>
<path opacity="0.65" d="M74.656 109.947H36.5168C36.286 109.947 36.0989 109.758 36.0989 109.526V98.4695C36.0989 98.2375 36.286 98.0493 36.5168 98.0493H74.6555C74.8863 98.0493 75.0734 98.2375 75.0734 98.4695V109.526C75.0739 109.758 74.8868 109.947 74.656 109.947Z" fill="white"/>
</g>
<path opacity="0.75" d="M64.6465 74.5278H29.9156C29.583 74.5278 29.3136 74.2569 29.3136 73.9225V69.9485C29.3136 69.6141 29.583 69.3433 29.9156 69.3433H64.6465C64.9791 69.3433 65.2485 69.6141 65.2485 69.9485V73.9225C65.2485 74.2564 64.9786 74.5278 64.6465 74.5278Z" fill="white"/>
<g opacity="0.75">
<path opacity="0.75" d="M31.3736 88.829C32.4539 88.3791 32.9669 87.134 32.5194 86.0479C32.0719 84.9619 30.8335 84.4461 29.7533 84.896C28.673 85.3459 28.16 86.591 28.6075 87.6771C29.055 88.7632 30.2934 89.2789 31.3736 88.829Z" fill="white"/>
<path opacity="0.75" d="M37.1826 88.938C38.2628 88.4881 38.7758 87.243 38.3283 86.157C37.8809 85.0709 36.6424 84.5551 35.5622 85.005C34.4819 85.4549 33.9689 86.7 34.4164 87.7861C34.8639 88.8722 36.1023 89.3879 37.1826 88.938Z" fill="white"/>
<path opacity="0.75" d="M42.7728 89.2112C43.853 88.7613 44.366 87.5162 43.9185 86.4301C43.4711 85.3441 42.2326 84.8284 41.1524 85.2782C40.0721 85.7281 39.5592 86.9732 40.0066 88.0593C40.4541 89.1453 41.6925 89.6611 42.7728 89.2112Z" fill="white"/>
<path opacity="0.75" d="M49.2653 88.8571C50.092 88.0259 50.092 86.6782 49.2653 85.847C48.4385 85.0158 47.0981 85.0158 46.2713 85.847C45.4446 86.6782 45.4446 88.0259 46.2713 88.8571C47.0981 89.6883 48.4385 89.6883 49.2653 88.8571Z" fill="white"/>
<path opacity="0.75" d="M55.6357 87.7935C55.9044 86.6495 55.1998 85.5031 54.0619 85.233C52.924 84.9628 51.7838 85.6712 51.5151 86.8153C51.2464 87.9593 51.951 89.1057 53.0889 89.3758C54.2268 89.646 55.367 88.9376 55.6357 87.7935Z" fill="white"/>
<path opacity="0.75" d="M61.4776 87.7488C61.665 86.5884 60.8812 85.4951 59.727 85.3068C58.5729 85.1185 57.4854 85.9065 57.2981 87.0668C57.1108 88.2272 57.8946 89.3205 59.0487 89.5088C60.2029 89.6972 61.2903 88.9092 61.4776 87.7488Z" fill="white"/>
</g>
<path d="M83.5606 94.3542L90.0463 95.9844L88.4249 108.211C88.4249 108.211 90.857 110.656 91.6677 113.916C92.4784 117.176 93.2259 130.866 93.2259 130.866L94.765 131.801L94.9522 132.582L90.4747 138.634L91.2172 133.817C91.3351 133.052 91.1309 131.501 91.1951 131.469C88.763 124.948 83.5606 106.58 83.5606 106.58V94.3542Z" fill="url(#paint8_linear)"/>
<path d="M81.6652 132.665C81.7354 132.664 81.8046 132.67 81.8749 132.665C81.5613 128.735 80.129 111.434 78.6958 104.95C77.0744 97.6141 81.1279 82.9427 81.1279 82.9427L88.4242 90.2784L84.3707 104.135C87.1484 108.324 83.9177 132.857 83.9869 132.847L83.9824 132.901L85.0399 134.363L84.9115 135.156L78.4499 138.989L80.9924 134.838C81.3968 134.18 81.62 133.433 81.6652 132.665Z" fill="url(#paint9_linear)"/>
<path d="M89.8721 50.4087C89.8721 50.4087 104.078 66.5059 89.8721 74.7596L88.4248 73.706C88.4248 73.706 95.4778 66.916 88.4248 58.6038L89.8721 50.4087Z" fill="url(#paint10_linear)"/>
<path d="M78.0258 139.591H80.0876C80.4734 139.591 80.8376 139.413 81.0729 139.105C81.7156 138.265 83.0475 136.627 83.6841 136.584C84.5415 136.527 84.4316 139.591 84.4316 139.591H84.9122L85.5207 135.783C85.6737 134.826 85.2002 133.876 84.3443 133.427C84.3443 133.427 84.1482 134.885 83.0856 135.529C82.0231 136.174 78.7617 138.482 78.7617 138.482C78.7617 138.482 78.3624 138.424 77.9234 138.504C77.2737 138.622 77.3645 139.591 78.0258 139.591Z" fill="url(#paint11_linear)"/>
<path d="M90.3142 139.355L92.215 138.551C92.5707 138.401 92.8376 138.094 92.9359 137.719C93.2043 136.695 93.8003 134.665 94.3707 134.378C95.1388 133.99 96.2194 136.858 96.2194 136.858L96.6624 136.671L95.7548 132.924C95.5266 131.981 94.7239 131.291 93.7617 131.211C93.7617 131.211 94.143 132.63 93.412 133.638C92.6811 134.647 90.565 138.046 90.565 138.046C90.565 138.046 90.1747 138.148 89.801 138.393C89.2476 138.755 89.7052 139.613 90.3142 139.355Z" fill="url(#paint12_linear)"/>
<path d="M79.2702 70.5388C79.2702 70.5388 79.5085 72.0081 79.1593 76.0472C78.8101 80.0862 77.14 89.569 77.4802 98.6418C77.4802 98.6418 82.227 99.754 90.4746 99.2274C90.4746 99.2274 93.9552 85.0619 93.1074 79.6762C92.2595 74.2909 87.6602 70.4274 87.6602 70.4274L79.2702 70.5388Z" fill="url(#paint13_linear)"/>
<path d="M82.7779 43.5492L82.1974 50.4083H87.7098L86.3393 39.9384L82.7779 43.5492Z" fill="url(#paint14_linear)"/>
<path d="M89.343 49.4606C87.4406 49.3552 83.1874 49.16 80.1738 49.325C78.5876 49.4117 77.2586 50.5561 76.934 52.1197L76.1991 55.6605C75.9252 56.9794 75.9663 58.3448 76.3185 59.6446L79.2703 70.5392C79.2703 70.5392 81.8961 72.1254 87.6598 70.4277C87.6598 70.4277 92.7217 58.2918 90.6498 50.5284C90.4888 49.9257 89.963 49.4949 89.343 49.4606Z" fill="url(#paint15_linear)"/>
<path d="M77.0779 51.4842C76.2662 53.6344 75.5327 55.8895 74.7446 58.0013C74.3437 59.058 73.9379 60.0945 73.5029 61.0457C73.2832 61.5198 73.0414 61.9551 72.8197 62.35C72.5979 62.7409 72.3481 63.0663 72.2176 63.2156C72.1921 63.2378 72.2778 63.2549 72.3064 63.2559C72.3235 63.2579 71.7576 63.3492 71.584 63.3785L70.9053 63.3744C69.9325 63.324 68.8308 63.152 67.7262 62.9361C65.4977 62.5185 63.1805 61.9319 60.8011 61.4881L60.783 61.4845C60.328 61.3998 59.89 61.7019 59.8057 62.1594C59.7501 62.461 59.8629 62.7561 60.0761 62.9457C61.0353 63.7946 62.0522 64.4921 63.1073 65.171C63.638 65.4974 64.1783 65.8171 64.7277 66.1243C65.2875 66.4113 65.8489 66.7003 66.4323 66.9681C67.6068 67.4826 68.8193 67.9562 70.217 68.2609C70.5842 68.3224 70.9469 68.3875 71.3247 68.4384C71.7486 68.453 72.1334 68.4909 72.5959 68.4641C72.8417 68.4394 73.0886 68.4092 73.3349 68.3733C73.4663 68.3501 73.5626 68.3476 73.7217 68.3032C73.8907 68.2523 74.0588 68.1953 74.2248 68.1327C74.572 68.0077 74.7962 67.8558 75.0782 67.6985C75.312 67.5431 75.5257 67.3812 75.7324 67.2148C76.4964 66.5606 76.9705 65.9115 77.3889 65.2881C77.8058 64.6651 78.1364 64.0412 78.4329 63.4294C79.0279 62.2078 79.4924 60.9973 79.8697 59.7787C80.6337 57.3365 81.1514 54.9362 81.3697 52.386C81.4745 51.1649 80.5745 50.0896 79.3595 49.9842C78.3541 49.8969 77.4481 50.5017 77.1065 51.4055L77.0779 51.4842Z" fill="url(#paint16_linear)"/>
<path d="M61.5501 62.5846L60.5664 60.2372L55.3891 58.9404C55.3891 58.9404 54.9747 59.8428 57.1495 60.2372C57.1495 60.2372 56.3729 61.1002 56.7873 62.1155C57.2016 63.1298 61.6023 64.1466 61.5501 62.5846Z" fill="url(#paint17_linear)"/>
<path d="M80.4441 35.6283C80.2475 35.7448 78.6963 41.2441 79.9961 43.5496C81.2954 45.8551 85.2642 43.2727 86.3398 39.9387C87.4149 36.6048 85.6871 32.5193 80.4441 35.6283Z" fill="url(#paint18_linear)"/>
<path d="M90.7294 39.9388C91.6194 44.3233 94.5687 43.1234 96.6577 45.0743C100.043 48.2358 104.887 44.977 109.595 47.973C112.994 50.1358 114.632 55.6698 113.001 60.1376C110.741 66.3258 103.02 68.8704 99.0196 66.9856C95.1958 65.1844 95.7401 59.7896 90.595 57.7045C88.4107 56.8193 87.3321 57.3943 86.0242 56.0824C83.7341 53.786 84.3521 49.3293 84.5904 47.6124C85.1072 43.887 86.3493 43.2127 85.7553 41.575C84.6005 38.3903 79.2135 39.0475 78.7645 36.7995C78.3556 34.7522 82.2602 30.8715 85.9344 31.4833C91.6194 32.4296 90.3326 37.9853 90.7294 39.9388Z" fill="url(#paint19_linear)"/>
<path opacity="0.6" d="M111.303 59.0886C111.37 59.0886 111.432 59.0427 111.448 58.9741C112.176 55.9362 111.846 53.4446 110.466 51.5688C108.177 48.4553 103.727 48.1476 103.683 48.1446C103.613 48.133 103.53 48.2021 103.525 48.2848C103.52 48.367 103.582 48.4381 103.665 48.4432C103.708 48.4457 108.023 48.7468 110.228 51.7484C111.552 53.5495 111.865 55.9569 111.159 58.904C111.14 58.9842 111.189 59.0654 111.269 59.0846C111.28 59.0871 111.292 59.0886 111.303 59.0886Z" fill="white"/>
<path opacity="0.72" d="M96.73 61.8701C96.736 61.8701 96.7425 61.8691 96.7491 61.8676C96.7887 61.857 96.8123 61.8161 96.8022 61.7763C96.0934 59.0415 94.8492 57.1421 93.1049 56.1308C91.8361 55.3949 90.6477 55.3263 89.5997 55.2663C88.5888 55.2078 87.7159 55.1573 87.0135 54.5294C85.5612 53.2311 85.6455 50.109 87.2634 45.2503C87.2764 45.211 87.2553 45.1686 87.2162 45.1555C87.1771 45.1424 87.1349 45.1636 87.1219 45.2029C85.4829 50.1236 85.4132 53.2987 86.9142 54.6408C87.6557 55.3036 88.5522 55.3555 89.5906 55.4156C90.6221 55.4751 91.7915 55.5427 93.0301 56.2609C94.7383 57.2515 95.9589 59.1202 96.6577 61.8146C96.6668 61.8479 96.6969 61.8701 96.73 61.8701Z" fill="white"/>
<path opacity="0.72" d="M88.6235 38.8507C88.6316 38.8507 88.6391 38.8497 88.6476 38.8472C88.6867 38.8341 88.7073 38.7912 88.6943 38.7524C88.1309 37.0667 86.5069 37.3169 84.7862 37.5832C83.6971 37.7517 82.5713 37.9247 81.6166 37.6407C80.9042 37.4284 80.4808 37.099 80.3584 36.6622C80.1492 35.9183 80.8812 35.0891 80.8887 35.0805C80.9163 35.0497 80.9138 35.0023 80.8832 34.9751C80.8531 34.9473 80.8054 34.9499 80.7783 34.9806C80.7457 35.0169 79.9842 35.8789 80.2149 36.7026C80.3519 37.1918 80.8094 37.556 81.574 37.784C82.5613 38.078 83.7036 37.9015 84.8088 37.731C86.5355 37.4647 88.029 37.2332 88.5528 38.8003C88.5633 38.8311 88.5924 38.8507 88.6235 38.8507Z" fill="white"/>
<defs>
<linearGradient id="paint0_linear" x1="157.626" y1="181.774" x2="32.6381" y2="27.3795" gradientUnits="userSpaceOnUse">
<stop stop-color="#B37CFF"/>
<stop offset="1" stop-color="#F895E7"/>
</linearGradient>
<linearGradient id="paint1_linear" x1="137.696" y1="98.0874" x2="74.5136" y2="92.8852" gradientUnits="userSpaceOnUse">
<stop stop-color="#B37CFF"/>
<stop offset="1" stop-color="#F895E7"/>
</linearGradient>
<linearGradient id="paint2_linear" x1="116.579" y1="55.0671" x2="80.0488" y2="43.4097" gradientUnits="userSpaceOnUse">
<stop stop-color="#A737D5"/>
<stop offset="1" stop-color="#EF497A"/>
</linearGradient>
<linearGradient id="paint3_linear" x1="2.32447" y1="51.613" x2="35.0959" y2="45.2944" gradientUnits="userSpaceOnUse">
<stop stop-color="#A737D5"/>
<stop offset="1" stop-color="#EF497A"/>
</linearGradient>
<linearGradient id="paint4_linear" x1="94.2602" y1="-0.0576178" x2="-55.0125" y2="269.313" gradientUnits="userSpaceOnUse">
<stop stop-color="#2B3582"/>
<stop offset="1" stop-color="#150E42"/>
</linearGradient>
<linearGradient id="paint5_linear" x1="63.9928" y1="16.1591" x2="35.879" y2="192.581" gradientUnits="userSpaceOnUse">
<stop stop-color="#53D8FF"/>
<stop offset="1" stop-color="#3840F7"/>
</linearGradient>
<linearGradient id="paint6_linear" x1="49.8474" y1="-77.4264" x2="54.9606" y2="-25.5516" gradientUnits="userSpaceOnUse">
<stop stop-color="#53D8FF"/>
<stop offset="1" stop-color="#3840F7"/>
</linearGradient>
<linearGradient id="paint7_linear" x1="61.2621" y1="-2.79754" x2="48.9206" y2="72.0823" gradientUnits="userSpaceOnUse">
<stop stop-color="#53D8FF"/>
<stop offset="1" stop-color="#3840F7"/>
</linearGradient>
<linearGradient id="paint8_linear" x1="98.0834" y1="137.557" x2="79.6014" y2="90.2326" gradientUnits="userSpaceOnUse">
<stop stop-color="#F9B776"/>
<stop offset="1" stop-color="#F47960"/>
</linearGradient>
<linearGradient id="paint9_linear" x1="98.3613" y1="289.994" x2="37.1935" y2="-421.07" gradientUnits="userSpaceOnUse">
<stop stop-color="#F9B776"/>
<stop offset="1" stop-color="#F47960"/>
</linearGradient>
<linearGradient id="paint10_linear" x1="96.1861" y1="62.5842" x2="88.4248" y2="62.5842" gradientUnits="userSpaceOnUse">
<stop stop-color="#F9B776"/>
<stop offset="1" stop-color="#F47960"/>
</linearGradient>
<linearGradient id="paint11_linear" x1="82.7576" y1="138.901" x2="64.1552" y2="110.513" gradientUnits="userSpaceOnUse">
<stop stop-color="#CB236D"/>
<stop offset="1" stop-color="#4C246D"/>
</linearGradient>
<linearGradient id="paint12_linear" x1="99.3927" y1="147.574" x2="78.7413" y2="112.071" gradientUnits="userSpaceOnUse">
<stop stop-color="#CB236D"/>
<stop offset="1" stop-color="#4C246D"/>
</linearGradient>
<linearGradient id="paint13_linear" x1="90.3851" y1="74.1244" x2="64.3641" y2="124.365" gradientUnits="userSpaceOnUse">
<stop stop-color="#CB236D"/>
<stop offset="1" stop-color="#4C246D"/>
</linearGradient>
<linearGradient id="paint14_linear" x1="87.7099" y1="45.1733" x2="82.1976" y2="45.1733" gradientUnits="userSpaceOnUse">
<stop stop-color="#F9B776"/>
<stop offset="1" stop-color="#F47960"/>
</linearGradient>
<linearGradient id="paint15_linear" x1="77.7788" y1="51.1784" x2="107.164" y2="88.6744" gradientUnits="userSpaceOnUse">
<stop stop-color="#FDF53F"/>
<stop offset="1" stop-color="#D93C65"/>
</linearGradient>
<linearGradient id="paint16_linear" x1="55.3686" y1="48.3331" x2="103.169" y2="75.5703" gradientUnits="userSpaceOnUse">
<stop stop-color="#F9B776"/>
<stop offset="1" stop-color="#F47960"/>
</linearGradient>
<linearGradient id="paint17_linear" x1="50.6317" y1="56.6469" x2="98.4324" y2="83.884" gradientUnits="userSpaceOnUse">
<stop stop-color="#F9B776"/>
<stop offset="1" stop-color="#F47960"/>
</linearGradient>
<linearGradient id="paint18_linear" x1="78.5289" y1="45.1715" x2="89.3193" y2="29.4776" gradientUnits="userSpaceOnUse">
<stop stop-color="#F9B776"/>
<stop offset="1" stop-color="#F47960"/>
</linearGradient>
<linearGradient id="paint19_linear" x1="84.2025" y1="33.9201" x2="99.48" y2="53.6744" gradientUnits="userSpaceOnUse">
<stop stop-color="#2B3582"/>
<stop offset="1" stop-color="#150E42"/>
</linearGradient>
</defs>
</svg>
