<svg width="142" height="140" viewBox="0 0 142 140" fill="none" xmlns="http://www.w3.org/2000/svg">
<path opacity="0.3" d="M122.367 118.305C119.538 121.256 116.86 123.159 114.744 124.662C89.8771 142.334 60.4524 137.182 54.1989 135.925C44.9642 134.067 27.114 130.476 14.2086 115.445C-5.31595 92.7045 -2.27595 56.8776 12.8687 33.2277C15.6391 28.9017 30.2717 4.8916 60.0133 1.04086C78.0123 -1.28952 98.9941 3.41058 114.188 16.0179C146.082 42.4824 143.812 95.9455 122.367 118.305Z" fill="url(#paint0_linear)"/>
<path d="M9.87076 122.725C9.87076 123.936 10.8722 124.927 12.0964 124.927H132.438C133.662 124.927 134.664 123.936 134.664 122.725L135.665 54.2306C135.665 53.0196 134.225 50.6554 131.584 50.8327L13.973 47.8189C12.4375 47.7795 10.9522 48.3649 9.86473 49.4384C8.77729 50.5119 8.18227 51.98 8.21848 53.4993L9.87076 122.725Z" fill="url(#paint1_linear)"/>
<path d="M12.0667 120.614C12.0667 121.761 13.0144 122.699 14.1722 122.699H129.535C130.693 122.699 131.641 121.761 131.641 120.614L132.586 58.4341C132.475 54.6924 129.162 53.3474 127.154 53.4266L14.4343 50.4317C13.3554 50.4028 12.3122 50.8148 11.5482 51.5695C10.7842 52.3242 10.3637 53.3574 10.3908 54.4259L12.0667 120.614Z" fill="url(#paint2_linear)"/>
<path d="M130.393 91.0726C130.392 91.0726 130.39 91.0726 130.389 91.0726C130.218 91.0702 130.082 90.9317 130.085 90.7623L130.159 85.7195C130.162 85.5521 130.3 85.4186 130.468 85.4186C130.469 85.4186 130.471 85.4186 130.472 85.4186C130.643 85.4211 130.779 85.5596 130.776 85.7289L130.702 90.7718C130.699 90.9386 130.562 91.0726 130.393 91.0726Z" fill="white"/>
<path d="M130.578 78.7143C130.576 78.7143 130.575 78.7143 130.573 78.7143C130.403 78.7118 130.266 78.5728 130.269 78.4039L130.555 59.0905C130.55 57.9432 130.198 57.0271 129.51 56.374C128.226 55.155 126.186 55.2173 126.101 55.2213L90.0728 54.2643C89.9023 54.2599 89.768 54.1194 89.7725 53.951C89.777 53.7821 89.9078 53.6387 90.0894 53.6541L126.096 54.6111C126.319 54.5981 128.491 54.5607 129.937 55.9332C130.751 56.7053 131.167 57.7689 131.173 59.094L130.886 78.4134C130.883 78.5808 130.746 78.7143 130.578 78.7143Z" fill="white"/>
<path d="M0.392521 130.613H141.702C141.858 130.613 141.986 130.486 141.986 130.331V124.876C141.986 124.721 141.858 124.595 141.702 124.595H0.392521C0.236095 124.595 0.108339 124.721 0.108339 124.876V130.331C0.107836 130.486 0.236095 130.613 0.392521 130.613Z" fill="url(#paint3_linear)"/>
<path d="M35.4977 54.8637C36.0168 60.3559 37.2345 67.617 38.6986 73.8743H39.6181C37.7249 66.3233 35.9826 55.9826 36.4956 44.0622C37.0132 32.0412 39.9314 17.4462 34.4892 10.4741C29.9599 4.67155 10.7401 3.80376 4.41973 3.67623C3.63006 3.66029 3.17788 4.57789 3.66929 5.20158C6.09264 8.2772 11.1662 15.3993 11.6083 21.6188C12.1907 29.8165 18.5071 36.2506 24.7828 38.9292C31.0584 41.6078 34.4384 43.6507 35.4977 54.8637Z" fill="url(#paint4_linear)"/>
<path d="M12.3223 8.7429C16.2098 9.73821 19.8871 11.5271 23.1041 13.9775C24.7156 15.198 26.1763 16.6317 27.4357 18.2328C28.6816 19.8428 29.7283 21.6257 30.4546 23.5411L30.7237 24.2604C30.8117 24.5006 30.8776 24.7486 30.9551 24.9922C31.027 25.2368 31.108 25.4834 31.1713 25.7265L31.3635 26.4548C31.6215 27.4257 31.8755 28.3976 32.119 29.3725C32.6094 31.3213 33.0686 33.278 33.4981 35.2413C34.3587 39.1677 35.0986 43.1206 35.5981 47.1173C35.6101 47.213 35.5427 47.3006 35.4477 47.3126C35.3561 47.324 35.2716 47.2613 35.2555 47.1706L35.2545 47.1651C34.8999 45.1979 34.5071 43.2302 34.0776 41.2744C33.6571 39.3162 33.2129 37.3629 32.7477 35.4146L32.04 32.4954L31.3006 29.5842C31.0547 28.6138 30.7991 27.6454 30.5386 26.6785L30.345 25.9532C30.2806 25.7111 30.2036 25.4819 30.1337 25.2453C30.0603 25.0112 29.9989 24.773 29.9159 24.5424L29.6619 23.852C28.9794 22.0093 27.9734 20.3031 26.8005 18.7314C26.1969 17.9578 25.5652 17.2021 24.8645 16.5116L24.6065 16.2481L24.3384 15.9945C24.1588 15.8262 23.9838 15.6533 23.8012 15.4884C23.431 15.1641 23.0644 14.8353 22.6761 14.531C21.147 13.2856 19.4676 12.2285 17.7222 11.3009C15.9769 10.3764 14.1405 9.59474 12.2559 9.01639L12.2473 9.01389C12.1739 8.99148 12.1321 8.91277 12.1548 8.83854C12.1764 8.76581 12.2503 8.72447 12.3223 8.7429Z" fill="white"/>
<path d="M35.6788 62.3041C38.9657 67.1721 38.5437 69.896 38.6448 72.2035C38.663 72.6129 38.6851 73.1923 38.7319 73.8763H39.6297C39.4466 72.9372 39.3163 71.9903 39.27 71.0617C38.9502 64.6898 37.5252 53.8146 32.078 47.3091C26.6307 40.8037 20.6654 40.2099 13.1489 46.124C6.88533 51.0523 2.9782 53.5396 0.686638 54.0019C0.119279 54.1164 -0.170436 54.7625 0.105699 55.2756C1.5754 58.0055 5.7305 64.2768 12.7073 63.8354C21.6065 63.2715 32.3913 57.4356 35.6788 62.3041Z" fill="url(#paint5_linear)"/>
<path d="M15.6957 53.9603C16.1882 53.4876 16.7097 53.0617 17.2479 52.6507C17.7861 52.2407 18.3404 51.8506 18.9173 51.4945C20.0676 50.7776 21.2954 50.1664 22.6031 49.7449C23.257 49.5367 23.9305 49.3763 24.6196 49.2876C25.3082 49.2034 26.0123 49.192 26.7105 49.2797C26.884 49.3081 27.06 49.3245 27.232 49.3639C27.4031 49.4047 27.5796 49.4376 27.7456 49.4854L28.7264 49.7923L29.6861 50.1689L30.6166 50.6197C31.8363 51.2678 32.9393 52.1441 33.8573 53.1757C34.7827 54.2049 35.5065 55.3905 36.1021 56.6185L36.3254 57.0798C36.4023 57.2327 36.4577 57.3941 36.5251 57.551C36.6518 57.8679 36.7881 58.1807 36.9058 58.5L37.2363 59.466C37.3535 59.7858 37.4279 60.118 37.5225 60.4438C37.8957 61.7495 38.1522 63.0811 38.3745 64.4136C38.3871 64.4879 38.3373 64.5586 38.2633 64.571C38.1929 64.583 38.126 64.5377 38.1094 64.4689L38.1084 64.4644C37.7951 63.1583 37.4933 61.8501 37.0622 60.5853C36.8666 59.9462 36.6186 59.3275 36.3882 58.7038C36.264 58.3954 36.1222 58.095 35.9904 57.7907C35.921 57.6402 35.8621 57.4843 35.7837 57.3388L35.5543 56.899C34.9472 55.7253 34.2109 54.6254 33.3306 53.6634C32.4499 52.7015 31.4047 51.9079 30.2605 51.3002L29.3828 50.8807L28.4734 50.5295L27.5394 50.2426C27.3844 50.1983 27.232 50.1689 27.0786 50.1305C26.9252 50.0941 26.7673 50.0792 26.6119 50.0518C25.9852 49.9691 25.3439 49.9741 24.7071 50.0473C24.0693 50.1161 23.4346 50.2516 22.8114 50.4354C21.5625 50.802 20.3583 51.3495 19.202 51.9866C18.6261 52.3099 18.0552 52.6477 17.5009 53.0133C16.9487 53.3795 16.4024 53.7661 15.8824 54.1725L15.8788 54.175C15.8175 54.2229 15.7289 54.2119 15.6812 54.1496C15.6374 54.0918 15.6444 54.0097 15.6957 53.9603Z" fill="white"/>
<path d="M117.355 0.506713L33.8471 8.87282e-05C31.1029 -0.0163504 28.9079 2.25375 29.0437 4.96869L34.7887 122.477H127.718L132.877 17.4893L117.355 0.506713Z" fill="url(#paint6_linear)"/>
<path d="M120.828 16.9847C118.108 16.8901 116.016 14.5677 116.231 11.8806L117.126 0.660156L132.894 17.4196L120.828 16.9847Z" fill="url(#paint7_linear)"/>
<path opacity="0.39" d="M117.745 60.1563H45.3036C43.1182 60.1563 41.3276 59.1675 41.2612 57.9231L39.7477 29.6233C39.6783 28.3242 41.5081 27.2496 43.7901 27.2496H117.745C119.979 27.2496 121.789 28.2808 121.789 29.5531V57.8529C121.789 59.1246 119.979 60.1563 117.745 60.1563Z" fill="white"/>
<path d="M117.629 60.409H45.1879C42.852 60.409 40.9644 59.3226 40.8904 57.9357L39.377 29.636C39.3513 29.1557 39.5444 28.686 39.9358 28.277C40.6927 27.4864 42.1252 26.9957 43.6744 26.9957H117.629C120.04 26.9957 121.929 28.1186 121.929 29.5523V57.852C121.929 59.2857 120.04 60.409 117.629 60.409ZM43.6744 27.5019C42.2605 27.5019 40.9704 27.9323 40.3065 28.6252C40.0097 28.935 39.8689 29.2658 39.887 29.6091L41.4004 57.9088C41.4593 59.0082 43.1583 59.9024 45.1874 59.9024H117.629C119.682 59.9024 121.418 58.9634 121.418 57.852V29.5523C121.418 28.4409 119.683 27.5019 117.629 27.5019H43.6744Z" fill="white"/>
<path d="M60.788 27.023L60.6247 60.1559L61.1357 60.1584L61.299 27.0255L60.788 27.023Z" fill="white"/>
<path d="M103.382 27.0192L103.219 60.152L103.73 60.1544L103.893 27.0216L103.382 27.0192Z" fill="white"/>
<path d="M61.0453 36.0139L61.0428 36.52L121.673 36.8141L121.675 36.308L61.0453 36.0139Z" fill="white"/>
<path d="M121.667 49.0303H60.877V49.5364H121.667V49.0303Z" fill="white"/>
<path opacity="0.39" d="M117.87 115.167H45.4282C43.2427 115.167 41.4521 114.178 41.3857 112.934L39.8723 84.6342C39.8029 83.335 41.6327 82.2605 43.9147 82.2605H117.87C120.103 82.2605 121.914 83.2917 121.914 84.564V112.864C121.913 114.136 120.103 115.167 117.87 115.167Z" fill="white"/>
<path d="M117.753 115.42H45.3115C42.9757 115.42 41.088 114.334 41.0141 112.947L39.5006 84.6473C39.475 84.1671 39.6681 83.6973 40.0594 83.2883C40.8164 82.4978 42.2489 82.0071 43.7981 82.0071H117.753C120.164 82.0071 122.053 83.1299 122.053 84.5636V112.863C122.053 114.297 120.164 115.42 117.753 115.42ZM43.7981 82.5132C42.3847 82.5132 41.094 82.9436 40.4306 83.6366C40.1339 83.9464 39.9925 84.2772 40.0111 84.6204L41.5246 112.92C41.5834 114.02 43.2825 114.914 45.3115 114.914H117.753C119.807 114.914 121.542 113.975 121.542 112.863V84.5636C121.542 83.4522 119.807 82.5132 117.753 82.5132H43.7981Z" fill="white"/>
<path d="M60.9116 82.0305L60.7484 115.163L61.2594 115.166L61.4227 82.033L60.9116 82.0305Z" fill="white"/>
<path d="M103.507 82.0305L103.344 115.163L103.855 115.166L104.018 82.0329L103.507 82.0305Z" fill="white"/>
<path d="M61.1708 91.0244L61.1683 91.5305L121.798 91.8246L121.801 91.3185L61.1708 91.0244Z" fill="white"/>
<path d="M121.792 104.042H61.0012V104.548H121.792V104.042Z" fill="white"/>
<path opacity="0.55" d="M113.751 21.6526H46.0394C45.8241 21.6526 45.649 21.4797 45.649 21.266V16.2147C45.649 16.0015 45.8236 15.8281 46.0394 15.8281H113.752C113.967 15.8281 114.142 16.001 114.142 16.2147V21.266C114.142 21.4797 113.967 21.6526 113.751 21.6526Z" fill="white"/>
<path opacity="0.42" d="M120.422 70.0279H41.8223C41.6306 70.0279 41.4752 69.874 41.4752 69.6842V65.9844C41.4752 65.7946 41.6306 65.6406 41.8223 65.6406H120.422C120.614 65.6406 120.769 65.7946 120.769 65.9844V69.6842C120.769 69.874 120.614 70.0279 120.422 70.0279Z" fill="white"/>
<path opacity="0.42" d="M120.192 76.7778H41.5918C41.4002 76.7778 41.2448 76.6239 41.2448 76.4341V72.7343C41.2448 72.5446 41.4002 72.3906 41.5918 72.3906H120.192C120.383 72.3906 120.539 72.5446 120.539 72.7343V76.4341C120.539 76.6244 120.383 76.7778 120.192 76.7778Z" fill="white"/>
<path d="M16.0463 72.1074C15.7239 83.5052 14.6787 122.822 15.1777 136.754C15.2305 138.23 16.58 139.414 18.2634 139.462C26.5887 139.702 57.1089 140.307 70.7265 139.806C73.5628 139.701 75.8181 137.687 75.877 135.198C76.1601 123.235 76.7843 89.5851 75.3006 74.1707C75.1225 72.3241 73.4697 70.853 71.3663 70.6687C62.2996 69.8731 31.6482 67.9293 19.8835 68.5988C17.762 68.7199 16.0991 70.2438 16.0463 72.1074Z" fill="url(#paint8_linear)"/>
<path d="M18.4375 77.1314V86.7906C18.4375 88.6428 19.9535 90.1447 21.824 90.1447H68.4214C70.2915 90.1447 71.8079 88.6433 71.8079 86.7906V77.1314C71.8079 75.2793 70.292 73.7773 68.4214 73.7773H21.824C19.954 73.7773 18.4375 75.2793 18.4375 77.1314Z" fill="url(#paint9_linear)"/>
<path opacity="0.2" d="M69.4307 77.0778C69.0187 76.6558 68.4544 76.4137 67.8619 76.4043L24.2603 75.7183C23.0944 75.6999 22.111 76.5731 22.0024 77.7224L21.0965 87.3029C21.0221 88.0875 22.3253 88.748 23.9867 88.768L66.8529 89.2826C68.5117 89.3025 69.8829 88.6758 69.8964 87.8917L70.0579 78.6534C70.0684 78.0661 69.8426 77.4997 69.4307 77.0778Z" fill="white"/>
<path opacity="0.63" d="M30.0863 99.941C30.0863 101.645 28.6916 103.027 26.9709 103.027H23.1779C21.4573 103.027 20.0625 101.645 20.0625 99.941C20.0625 98.2369 21.4573 96.8555 23.1779 96.8555H26.9709C28.6916 96.8555 30.0863 98.2369 30.0863 99.941Z" fill="url(#paint10_linear)"/>
<path opacity="0.63" d="M44.1742 99.941C44.1742 101.645 42.7795 103.027 41.0588 103.027H37.2658C35.5451 103.027 34.1504 101.645 34.1504 99.941C34.1504 98.2369 35.5451 96.8555 37.2658 96.8555H41.0588C42.7795 96.8555 44.1742 98.2369 44.1742 99.941Z" fill="url(#paint11_linear)"/>
<path opacity="0.63" d="M57.7191 99.941C57.7191 101.645 56.3244 103.027 54.6037 103.027H50.8108C49.0901 103.027 47.6953 101.645 47.6953 99.941C47.6953 98.2369 49.0901 96.8555 50.8108 96.8555H54.6037C56.3244 96.8555 57.7191 98.2369 57.7191 99.941Z" fill="url(#paint12_linear)"/>
<path d="M71.4514 100.393C71.4514 102.125 70.034 103.528 68.2857 103.528H64.62C62.8716 103.528 61.4542 102.125 61.4542 100.393C61.4542 98.6614 62.8716 97.2576 64.62 97.2576H68.2857C70.034 97.2576 71.4514 98.6614 71.4514 100.393Z" fill="url(#paint13_linear)"/>
<path opacity="0.63" d="M30.0863 109.601C30.0863 111.305 28.6916 112.687 26.9709 112.687H23.1779C21.4573 112.687 20.0625 111.305 20.0625 109.601C20.0625 107.897 21.4573 106.516 23.1779 106.516H26.9709C28.6916 106.516 30.0863 107.897 30.0863 109.601Z" fill="url(#paint14_linear)"/>
<path opacity="0.63" d="M44.1742 109.601C44.1742 111.305 42.7795 112.687 41.0588 112.687H37.2658C35.5451 112.687 34.1504 111.305 34.1504 109.601C34.1504 107.897 35.5451 106.516 37.2658 106.516H41.0588C42.7795 106.516 44.1742 107.897 44.1742 109.601Z" fill="url(#paint15_linear)"/>
<path opacity="0.63" d="M57.7191 109.601C57.7191 111.305 56.3244 112.687 54.6037 112.687H50.8108C49.0901 112.687 47.6953 111.305 47.6953 109.601C47.6953 107.897 49.0901 106.516 50.8108 106.516H54.6037C56.3244 106.516 57.7191 107.897 57.7191 109.601Z" fill="url(#paint16_linear)"/>
<path d="M71.807 109.601C71.807 111.305 70.4123 112.687 68.6916 112.687H64.8986C63.178 112.687 61.7832 111.305 61.7832 109.601C61.7832 107.897 63.178 106.516 64.8986 106.516H68.6916C70.4123 106.516 71.807 107.897 71.807 109.601Z" fill="url(#paint17_linear)"/>
<path opacity="0.63" d="M30.0863 118.156C30.0863 119.861 28.6916 121.242 26.9709 121.242H23.1779C21.4573 121.242 20.0625 119.861 20.0625 118.156C20.0625 116.452 21.4573 115.071 23.1779 115.071H26.9709C28.6916 115.071 30.0863 116.452 30.0863 118.156Z" fill="url(#paint18_linear)"/>
<path opacity="0.63" d="M44.1735 118.156C44.1735 119.86 42.7787 121.241 41.0581 121.241H37.2651C35.5444 121.241 34.1497 119.86 34.1497 118.156C34.1497 116.452 35.5444 115.07 37.2651 115.07H41.0581C42.7787 115.07 44.1735 116.452 44.1735 118.156Z" fill="url(#paint19_linear)"/>
<path opacity="0.63" d="M57.7193 118.156C57.7193 119.86 56.3246 121.241 54.6039 121.241H50.8109C49.0902 121.241 47.6955 119.86 47.6955 118.156C47.6955 116.452 49.0902 115.07 50.8109 115.07H54.6039C56.3246 115.07 57.7193 116.452 57.7193 118.156Z" fill="url(#paint20_linear)"/>
<path opacity="0.63" d="M30.0863 127.543C30.0863 129.247 28.6916 130.628 26.9709 130.628H23.1779C21.4573 130.628 20.0625 129.247 20.0625 127.543C20.0625 125.839 21.4573 124.457 23.1779 124.457H26.9709C28.6916 124.457 30.0863 125.839 30.0863 127.543Z" fill="url(#paint21_linear)"/>
<path opacity="0.63" d="M44.1735 127.543C44.1735 129.247 42.7787 130.628 41.0581 130.628H37.2651C35.5444 130.628 34.1497 129.247 34.1497 127.543C34.1497 125.838 35.5444 124.457 37.2651 124.457H41.0581C42.7787 124.457 44.1735 125.839 44.1735 127.543Z" fill="url(#paint22_linear)"/>
<path opacity="0.63" d="M57.7193 127.543C57.7193 129.247 56.3246 130.628 54.6039 130.628H50.8109C49.0902 130.628 47.6955 129.247 47.6955 127.543C47.6955 125.838 49.0902 124.457 50.8109 124.457H54.6039C56.3246 124.457 57.7193 125.839 57.7193 127.543Z" fill="url(#paint23_linear)"/>
<path d="M70.453 127.293C70.453 129.45 68.6876 131.199 66.5097 131.199H66.2693C64.0914 131.199 62.3259 129.45 62.3259 127.293V119.811C62.3259 117.654 64.0914 115.906 66.2693 115.906H66.5097C68.6876 115.906 70.453 117.654 70.453 119.811V127.293Z" fill="url(#paint24_linear)"/>
<g opacity="0.7">
<path opacity="0.7" d="M65.0352 78.4747C65.0352 78.8453 64.732 79.1457 64.3577 79.1457H62.4615C62.0873 79.1457 61.784 78.8453 61.784 78.4747C61.784 78.1041 62.0873 77.8037 62.4615 77.8037H64.3577C64.732 77.8042 65.0352 78.1046 65.0352 78.4747Z" fill="white"/>
<path opacity="0.7" d="M65.0352 87.5958C65.0352 87.9664 64.7319 88.2668 64.3577 88.2668H62.4614C62.0872 88.2668 61.7839 87.9664 61.7839 87.5958C61.7839 87.2252 62.0872 86.9248 62.4614 86.9248H64.3577C64.7319 86.9253 65.0352 87.2257 65.0352 87.5958Z" fill="white"/>
<path opacity="0.7" d="M62.055 82.231C62.055 82.6016 61.7517 82.902 61.3775 82.902C61.0032 82.902 60.7 82.6016 60.7 82.231V80.3529C60.7 79.9823 61.0032 79.6819 61.3775 79.6819C61.7517 79.6819 62.055 79.9823 62.055 80.3529V82.231Z" fill="white"/>
<path opacity="0.7" d="M62.055 85.9856C62.055 86.3562 61.7517 86.6566 61.3775 86.6566C61.0032 86.6566 60.7 86.3562 60.7 85.9856V84.1075C60.7 83.7369 61.0032 83.4365 61.3775 83.4365C61.7517 83.4365 62.055 83.7369 62.055 84.1075V85.9856Z" fill="white"/>
<path opacity="0.7" d="M66.6603 82.231C66.6603 82.6016 66.357 82.902 65.9827 82.902C65.6085 82.902 65.3052 82.6016 65.3052 82.231V80.3529C65.3052 79.9823 65.6085 79.6819 65.9827 79.6819C66.357 79.6819 66.6603 79.9823 66.6603 80.3529V82.231Z" fill="white"/>
<path opacity="0.7" d="M66.6604 85.9856C66.6604 86.3562 66.3571 86.6566 65.9829 86.6566C65.6087 86.6566 65.3054 86.3562 65.3054 85.9856V84.1075C65.3054 83.7369 65.6087 83.4365 65.9829 83.4365C66.3571 83.4365 66.6604 83.7369 66.6604 84.1075V85.9856Z" fill="white"/>
</g>
<path d="M73.8868 57.6091C78.2225 57.6091 81.7373 54.1281 81.7373 49.8339C81.7373 45.5398 78.2225 42.0587 73.8868 42.0587C69.5511 42.0587 66.0363 45.5398 66.0363 49.8339C66.0363 54.1281 69.5511 57.6091 73.8868 57.6091Z" fill="url(#paint25_linear)"/>
<path d="M73.8879 57.3499C78.0794 57.3499 81.4773 53.9845 81.4773 49.8332C81.4773 45.6819 78.0794 42.3165 73.8879 42.3165C69.6964 42.3165 66.2985 45.6819 66.2985 49.8332C66.2985 53.9845 69.6964 57.3499 73.8879 57.3499Z" fill="url(#paint26_linear)"/>
<path d="M67.2577 47.9491C67.22 47.955 67.1797 47.9525 67.1405 47.9396C67.0072 47.8967 66.9338 47.7548 66.977 47.6233C67.8265 45.0234 70.0462 43.1478 72.7703 42.7279C73.2049 42.6606 73.6465 42.6327 74.0821 42.6437C74.2219 42.6472 74.3326 42.7627 74.329 42.9012C74.3255 43.0402 74.2098 43.1508 74.069 43.1458C73.6636 43.1359 73.2527 43.1623 72.8483 43.2245C70.3148 43.6151 68.2501 45.3596 67.4599 47.7777C67.4297 47.8713 67.3497 47.9351 67.2577 47.9491Z" fill="white"/>
<path opacity="0.78" d="M78.6176 54.4684C81.1261 51.9839 81.1261 47.9558 78.6176 45.4713C76.1091 42.9869 72.042 42.9868 69.5335 45.4713C67.0249 47.9558 67.0249 51.9839 69.5335 54.4684C72.042 56.9529 76.1091 56.9529 78.6176 54.4684Z" fill="white"/>
<path d="M74.1888 54.7367L74.0811 54.0528C73.3568 54.1354 72.6185 54.0767 72.0783 53.9352C71.8856 53.8849 71.7619 53.6981 71.784 53.5018L71.8595 52.8377C71.8871 52.5942 72.1246 52.4337 72.365 52.4925C72.8991 52.6235 73.5445 52.6928 74.2124 52.5897C74.906 52.4826 75.3864 52.1702 75.3114 51.693C75.2435 51.2626 74.8039 51.0678 73.8 50.9607C72.3665 50.8003 71.2861 50.3589 71.0975 49.1599C70.9275 48.0774 71.5964 47.1279 72.9484 46.693L72.8408 46.009C72.8061 45.7888 72.9585 45.5826 73.1803 45.5482L73.5862 45.4855C73.8085 45.4511 74.0168 45.602 74.051 45.8217L74.1475 46.436C74.818 46.3597 75.3205 46.3976 75.7264 46.4723C75.9341 46.5107 76.0749 46.7045 76.0518 46.9127L75.9829 47.5269C75.9562 47.7635 75.7309 47.9259 75.4955 47.8771C75.1203 47.7989 74.5977 47.7381 73.9468 47.8388C73.124 47.9658 72.9424 48.3394 72.9897 48.6418C73.048 49.0144 73.5822 49.1942 74.7028 49.3551C76.3018 49.5733 77.0351 50.1044 77.2127 51.2332C77.3756 52.2689 76.7464 53.32 75.2787 53.7847L75.3989 54.5499C75.4336 54.7701 75.2812 54.9763 75.0594 55.0102L74.6535 55.073C74.4317 55.1073 74.2235 54.9569 74.1888 54.7367Z" fill="url(#paint27_linear)"/>
<path d="M91.621 42.3178C98.6971 42.3178 104.433 36.6365 104.433 29.6282C104.433 22.62 98.6971 16.9387 91.621 16.9387C84.5449 16.9387 78.8087 22.62 78.8087 29.6282C78.8087 36.6365 84.5449 42.3178 91.621 42.3178Z" fill="url(#paint28_linear)"/>
<path d="M91.6203 41.8953C98.461 41.8953 104.007 36.4029 104.007 29.6277C104.007 22.8525 98.461 17.3601 91.6203 17.3601C84.7795 17.3601 79.2339 22.8525 79.2339 29.6277C79.2339 36.4029 84.7795 41.8953 91.6203 41.8953Z" fill="url(#paint29_linear)"/>
<path d="M80.7746 26.3826C80.7389 26.3881 80.7016 26.3856 80.6649 26.3736C80.5397 26.3338 80.4713 26.2008 80.512 26.0772C81.8776 21.8977 85.4467 18.8819 89.8262 18.2064C90.5248 18.0988 91.235 18.0529 91.9356 18.0714C92.0669 18.0748 92.171 18.1829 92.1675 18.313C92.164 18.443 92.0554 18.5471 91.9236 18.5421C91.2511 18.5247 90.5701 18.5685 89.8996 18.6721C85.6987 19.3197 82.275 22.213 80.9647 26.2222C80.936 26.3099 80.8606 26.3692 80.7746 26.3826Z" fill="white"/>
<path opacity="0.78" d="M99.3418 37.1943C103.436 33.1395 103.436 26.5654 99.3418 22.5106C95.2478 18.4558 88.61 18.4558 84.516 22.5106C80.422 26.5654 80.422 33.1395 84.516 37.1943C88.61 41.2491 95.2478 41.2491 99.3418 37.1943Z" fill="white"/>
<path d="M92.1128 37.6341L91.9373 36.5177C90.7553 36.6522 89.5501 36.5571 88.6684 36.3264C88.3536 36.2442 88.1519 35.9399 88.1881 35.6191L88.3108 34.5351C88.3561 34.1375 88.7439 33.8755 89.1357 33.9717C90.0079 34.1854 91.0611 34.2984 92.151 34.1301C93.2827 33.9557 94.0669 33.4456 93.9442 32.6665C93.8335 31.9636 93.1157 31.6463 91.4775 31.4709C89.1382 31.2089 87.3748 30.4885 87.0674 28.5323C86.7898 26.7658 87.8818 25.2161 90.0883 24.5062L89.9128 23.3898C89.8565 23.0306 90.1044 22.6939 90.4671 22.6381L91.129 22.536C91.4916 22.4802 91.8316 22.7258 91.888 23.0849L92.0454 24.0872C93.1394 23.9627 93.9597 24.025 94.6217 24.1465C94.9612 24.2088 95.1905 24.5251 95.1528 24.8649L95.0406 25.8672C94.9974 26.2537 94.6292 26.5182 94.2449 26.4385C93.6328 26.311 92.7798 26.2119 91.717 26.3758C90.3745 26.583 90.0778 27.1927 90.1552 27.6864C90.2508 28.2942 91.1219 28.5881 92.9508 28.8506C95.5607 29.2068 96.7573 30.0731 97.047 31.9158C97.3126 33.6065 96.286 35.3212 93.8908 36.0794L94.087 37.3282C94.1433 37.6874 93.8954 38.0242 93.5327 38.0799L92.8703 38.1821C92.5087 38.2389 92.1691 37.9933 92.1128 37.6341Z" fill="url(#paint30_linear)"/>
<path d="M104.755 69.3455C112.036 69.3455 117.939 63.4996 117.939 56.2884C117.939 49.0771 112.036 43.2312 104.755 43.2312C97.4739 43.2312 91.5715 49.0771 91.5715 56.2884C91.5715 63.4996 97.4739 69.3455 104.755 69.3455Z" fill="url(#paint31_linear)"/>
<path d="M104.754 68.9114C111.794 68.9114 117.5 63.2597 117.5 56.2881C117.5 49.3164 111.794 43.6648 104.754 43.6648C97.7153 43.6648 92.009 49.3164 92.009 56.2881C92.009 63.2597 97.7153 68.9114 104.754 68.9114Z" fill="url(#paint32_linear)"/>
<path d="M93.5919 52.9416C93.5562 52.9471 93.519 52.9446 93.4822 52.9332C93.357 52.8928 93.2886 52.7603 93.3293 52.6362C94.7337 48.3382 98.4044 45.2366 102.908 44.5422C103.627 44.4316 104.357 44.3843 105.077 44.4032C105.209 44.4067 105.313 44.5148 105.309 44.6448C105.306 44.7749 105.198 44.878 105.065 44.874C104.373 44.8566 103.672 44.9014 102.981 45.008C98.6559 45.675 95.131 48.6535 93.782 52.7812C93.7533 52.8689 93.6779 52.9287 93.5919 52.9416Z" fill="white"/>
<path opacity="0.78" d="M112.699 64.0709C116.912 59.8986 116.912 53.1339 112.699 48.9616C108.486 44.7893 101.656 44.7893 97.4434 48.9616C93.2307 53.1339 93.2307 59.8986 97.4434 64.0709C101.656 68.2432 108.486 68.2432 112.699 64.0709Z" fill="white"/>
<path d="M105.26 64.5249L105.079 63.3761C103.863 63.5146 102.623 63.4165 101.716 63.1794C101.392 63.0947 101.184 62.7814 101.222 62.4516L101.348 61.3362C101.394 60.9272 101.794 60.6577 102.197 60.7563C103.095 60.976 104.178 61.0926 105.3 60.9197C106.464 60.7404 107.271 60.2153 107.145 59.4138C107.032 58.6905 106.293 58.3642 104.607 58.1839C102.2 57.9144 100.385 57.1731 100.069 55.1601C99.7834 53.3423 100.907 51.7477 103.178 51.0174L102.997 49.8686C102.939 49.499 103.194 49.1528 103.567 49.0955L104.249 48.9904C104.622 48.9326 104.972 49.1857 105.029 49.5553L105.191 50.5865C106.317 50.4585 107.161 50.5222 107.843 50.6478C108.192 50.712 108.428 51.0373 108.389 51.387L108.274 52.4182C108.23 52.8157 107.851 53.0882 107.455 53.006C106.826 52.875 105.948 52.7724 104.854 52.9413C103.473 53.1545 103.167 53.7822 103.247 54.2903C103.345 54.916 104.242 55.2178 106.124 55.4883C108.809 55.855 110.041 56.7462 110.339 58.6422C110.613 60.3817 109.556 62.1462 107.091 62.9268L107.293 64.2121C107.352 64.5817 107.096 64.9279 106.723 64.9852L106.041 65.0903C105.668 65.1471 105.318 64.8945 105.26 64.5249Z" fill="url(#paint33_linear)"/>
<path d="M117.644 42.7371C123.468 42.7371 128.188 38.0617 128.188 32.2943C128.188 26.5269 123.468 21.8514 117.644 21.8514C111.821 21.8514 107.101 26.5269 107.101 32.2943C107.101 38.0617 111.821 42.7371 117.644 42.7371Z" fill="url(#paint34_linear)"/>
<path d="M117.644 42.3912C123.273 42.3912 127.837 37.8712 127.837 32.2956C127.837 26.7199 123.273 22.2 117.644 22.2C112.014 22.2 107.45 26.7199 107.45 32.2956C107.45 37.8712 112.014 42.3912 117.644 42.3912Z" fill="url(#paint35_linear)"/>
<path d="M108.728 29.6853C108.689 29.6913 108.648 29.6888 108.608 29.6759C108.472 29.632 108.397 29.4871 108.441 29.3521C109.572 25.8894 112.529 23.3911 116.157 22.8317C116.736 22.7425 117.323 22.7047 117.905 22.7196C118.048 22.7231 118.161 22.8412 118.158 22.9831C118.154 23.1251 118.036 23.2392 117.892 23.2337C117.341 23.2198 116.785 23.2556 116.237 23.3398C112.805 23.8694 110.006 26.2336 108.936 29.51C108.904 29.6056 108.821 29.6709 108.728 29.6853Z" fill="white"/>
<path opacity="0.78" d="M123.997 38.519C127.366 35.1823 127.366 29.7723 123.997 26.4356C120.628 23.0988 115.166 23.0988 111.797 26.4356C108.428 29.7723 108.428 35.1823 111.797 38.519C115.166 41.8558 120.628 41.8558 123.997 38.519Z" fill="white"/>
<path d="M118.047 38.8848L117.903 37.9662C116.93 38.0768 115.938 37.9986 115.213 37.8088C114.954 37.7411 114.788 37.4905 114.817 37.227L114.919 36.3353C114.956 36.008 115.275 35.7928 115.598 35.8715C116.315 36.0473 117.182 36.1405 118.079 36.002C119.01 35.8585 119.656 35.4386 119.555 34.7975C119.464 34.2191 118.873 33.9581 117.525 33.8136C115.6 33.5979 114.148 33.0051 113.895 31.3951C113.667 29.9414 114.566 28.6657 116.382 28.0818L116.237 27.1632C116.191 26.8678 116.395 26.5909 116.694 26.5445L117.238 26.4603C117.537 26.4145 117.816 26.6168 117.863 26.9122L117.993 27.7371C118.893 27.6345 119.568 27.6858 120.113 27.7859C120.392 27.8372 120.581 28.0973 120.55 28.3772L120.458 29.2022C120.422 29.52 120.119 29.7382 119.803 29.6724C119.299 29.5678 118.597 29.4856 117.723 29.6206C116.618 29.791 116.374 30.2931 116.438 30.6996C116.516 31.1998 117.233 31.4414 118.738 31.6576C120.886 31.951 121.871 32.6634 122.109 34.1798C122.328 35.5711 121.483 36.9824 119.512 37.6066L119.673 38.6348C119.719 38.9302 119.515 39.2071 119.217 39.2535L118.672 39.3377C118.373 39.3825 118.094 39.1802 118.047 38.8848Z" fill="url(#paint36_linear)"/>
<defs>
<linearGradient id="paint0_linear" x1="156.26" y1="178.067" x2="34.4975" y2="25.3812" gradientUnits="userSpaceOnUse">
<stop stop-color="#B37CFF"/>
<stop offset="1" stop-color="#F895E7"/>
</linearGradient>
<linearGradient id="paint1_linear" x1="83.2591" y1="119.662" x2="55.326" y2="35.0507" gradientUnits="userSpaceOnUse">
<stop stop-color="#2B3582"/>
<stop offset="1" stop-color="#150E42"/>
</linearGradient>
<linearGradient id="paint2_linear" x1="119.719" y1="44.7093" x2="16.927" y2="135.832" gradientUnits="userSpaceOnUse">
<stop stop-color="#FDF53F"/>
<stop offset="0.6645" stop-color="#E57A58"/>
<stop offset="1" stop-color="#D93C65"/>
</linearGradient>
<linearGradient id="paint3_linear" x1="17.1029" y1="114.608" x2="143.581" y2="145.67" gradientUnits="userSpaceOnUse">
<stop stop-color="#2B3582"/>
<stop offset="1" stop-color="#150E42"/>
</linearGradient>
<linearGradient id="paint4_linear" x1="3.46503" y1="38.7752" x2="43.6479" y2="38.7752" gradientUnits="userSpaceOnUse">
<stop stop-color="#CE1567"/>
<stop offset="1" stop-color="#7A1DBC"/>
</linearGradient>
<linearGradient id="paint5_linear" x1="7.38355e-05" y1="57.9553" x2="43.1911" y2="57.9553" gradientUnits="userSpaceOnUse">
<stop stop-color="#A737D5"/>
<stop offset="1" stop-color="#EF497A"/>
</linearGradient>
<linearGradient id="paint6_linear" x1="90.3837" y1="-23.109" x2="53.4343" y2="248.438" gradientUnits="userSpaceOnUse">
<stop stop-color="#53D8FF"/>
<stop offset="0.2057" stop-color="#4DB9FD"/>
<stop offset="1" stop-color="#3840F7"/>
</linearGradient>
<linearGradient id="paint7_linear" x1="131.835" y1="-0.359051" x2="163.832" y2="-45.2816" gradientUnits="userSpaceOnUse">
<stop stop-color="#53D8FF"/>
<stop offset="0.2057" stop-color="#4DB9FD"/>
<stop offset="1" stop-color="#3840F7"/>
</linearGradient>
<linearGradient id="paint8_linear" x1="41.6486" y1="127.377" x2="58.7051" y2="31.8987" gradientUnits="userSpaceOnUse">
<stop stop-color="#2B3582"/>
<stop offset="0.2347" stop-color="#283079"/>
<stop offset="0.6173" stop-color="#202161"/>
<stop offset="1" stop-color="#150E42"/>
</linearGradient>
<linearGradient id="paint9_linear" x1="41.1139" y1="98.4184" x2="46.7164" y2="74.9705" gradientUnits="userSpaceOnUse">
<stop stop-color="#A737D5"/>
<stop offset="1" stop-color="#EF497A"/>
</linearGradient>
<linearGradient id="paint10_linear" x1="9.62826" y1="114.669" x2="50.2893" y2="75.1442" gradientUnits="userSpaceOnUse">
<stop stop-color="#53D8FF"/>
<stop offset="1" stop-color="#3840F7"/>
</linearGradient>
<linearGradient id="paint11_linear" x1="16.4051" y1="121.64" x2="57.0662" y2="82.1154" gradientUnits="userSpaceOnUse">
<stop stop-color="#53D8FF"/>
<stop offset="1" stop-color="#3840F7"/>
</linearGradient>
<linearGradient id="paint12_linear" x1="22.92" y1="128.343" x2="63.5811" y2="88.8185" gradientUnits="userSpaceOnUse">
<stop stop-color="#53D8FF"/>
<stop offset="1" stop-color="#3840F7"/>
</linearGradient>
<linearGradient id="paint13_linear" x1="69.5458" y1="96.7806" x2="47.4673" y2="123.066" gradientUnits="userSpaceOnUse">
<stop stop-color="#E40045"/>
<stop offset="1" stop-color="#5C0E16"/>
</linearGradient>
<linearGradient id="paint14_linear" x1="14.5011" y1="119.683" x2="55.1623" y2="80.1583" gradientUnits="userSpaceOnUse">
<stop stop-color="#53D8FF"/>
<stop offset="1" stop-color="#3840F7"/>
</linearGradient>
<linearGradient id="paint15_linear" x1="21.278" y1="126.654" x2="61.9391" y2="87.1294" gradientUnits="userSpaceOnUse">
<stop stop-color="#53D8FF"/>
<stop offset="1" stop-color="#3840F7"/>
</linearGradient>
<linearGradient id="paint16_linear" x1="27.793" y1="133.357" x2="68.4541" y2="93.8325" gradientUnits="userSpaceOnUse">
<stop stop-color="#53D8FF"/>
<stop offset="1" stop-color="#3840F7"/>
</linearGradient>
<linearGradient id="paint17_linear" x1="34.5699" y1="140.328" x2="75.231" y2="100.804" gradientUnits="userSpaceOnUse">
<stop stop-color="#53D8FF"/>
<stop offset="1" stop-color="#3840F7"/>
</linearGradient>
<linearGradient id="paint18_linear" x1="18.8168" y1="124.123" x2="59.4779" y2="84.5983" gradientUnits="userSpaceOnUse">
<stop stop-color="#53D8FF"/>
<stop offset="1" stop-color="#3840F7"/>
</linearGradient>
<linearGradient id="paint19_linear" x1="25.5929" y1="131.094" x2="66.2539" y2="91.5689" gradientUnits="userSpaceOnUse">
<stop stop-color="#53D8FF"/>
<stop offset="1" stop-color="#3840F7"/>
</linearGradient>
<linearGradient id="paint20_linear" x1="32.1088" y1="137.797" x2="72.7699" y2="98.272" gradientUnits="userSpaceOnUse">
<stop stop-color="#53D8FF"/>
<stop offset="1" stop-color="#3840F7"/>
</linearGradient>
<linearGradient id="paint21_linear" x1="23.5543" y1="128.992" x2="64.2155" y2="89.4677" gradientUnits="userSpaceOnUse">
<stop stop-color="#53D8FF"/>
<stop offset="1" stop-color="#3840F7"/>
</linearGradient>
<linearGradient id="paint22_linear" x1="30.3305" y1="135.963" x2="70.9916" y2="96.4387" gradientUnits="userSpaceOnUse">
<stop stop-color="#53D8FF"/>
<stop offset="1" stop-color="#3840F7"/>
</linearGradient>
<linearGradient id="paint23_linear" x1="36.8463" y1="142.666" x2="77.5074" y2="103.142" gradientUnits="userSpaceOnUse">
<stop stop-color="#53D8FF"/>
<stop offset="1" stop-color="#3840F7"/>
</linearGradient>
<linearGradient id="paint24_linear" x1="62.0816" y1="129.751" x2="75.4161" y2="110.19" gradientUnits="userSpaceOnUse">
<stop stop-color="#53D8FF"/>
<stop offset="1" stop-color="#3840F7"/>
</linearGradient>
<linearGradient id="paint25_linear" x1="65.1894" y1="63.6731" x2="73.5965" y2="50.0352" gradientUnits="userSpaceOnUse">
<stop stop-color="#FDF53F"/>
<stop offset="1" stop-color="#D93C65"/>
</linearGradient>
<linearGradient id="paint26_linear" x1="78.2238" y1="40.4766" x2="55.0634" y2="91.424" gradientUnits="userSpaceOnUse">
<stop stop-color="#FDF53F"/>
<stop offset="1" stop-color="#D93C65"/>
</linearGradient>
<linearGradient id="paint27_linear" x1="77.5139" y1="41.935" x2="65.6114" y2="71.7803" gradientUnits="userSpaceOnUse">
<stop stop-color="#FDF53F"/>
<stop offset="1" stop-color="#D93C65"/>
</linearGradient>
<linearGradient id="paint28_linear" x1="77.4274" y1="52.2141" x2="91.1478" y2="29.957" gradientUnits="userSpaceOnUse">
<stop stop-color="#FDF53F"/>
<stop offset="1" stop-color="#D93C65"/>
</linearGradient>
<linearGradient id="paint29_linear" x1="98.6971" y1="14.3581" x2="60.8992" y2="97.5043" gradientUnits="userSpaceOnUse">
<stop stop-color="#FDF53F"/>
<stop offset="1" stop-color="#D93C65"/>
</linearGradient>
<linearGradient id="paint30_linear" x1="97.5391" y1="16.7414" x2="78.1142" y2="65.449" gradientUnits="userSpaceOnUse">
<stop stop-color="#FDF53F"/>
<stop offset="1" stop-color="#D93C65"/>
</linearGradient>
<linearGradient id="paint31_linear" x1="90.1497" y1="79.5289" x2="104.268" y2="56.6266" gradientUnits="userSpaceOnUse">
<stop stop-color="#FDF53F"/>
<stop offset="1" stop-color="#D93C65"/>
</linearGradient>
<linearGradient id="paint32_linear" x1="112.036" y1="40.5758" x2="73.1425" y2="126.132" gradientUnits="userSpaceOnUse">
<stop stop-color="#FDF53F"/>
<stop offset="1" stop-color="#D93C65"/>
</linearGradient>
<linearGradient id="paint33_linear" x1="110.844" y1="43.0265" x2="90.8558" y2="93.146" gradientUnits="userSpaceOnUse">
<stop stop-color="#FDF53F"/>
<stop offset="1" stop-color="#D93C65"/>
</linearGradient>
<linearGradient id="paint34_linear" x1="105.964" y1="50.8811" x2="117.255" y2="32.5646" gradientUnits="userSpaceOnUse">
<stop stop-color="#FDF53F"/>
<stop offset="1" stop-color="#D93C65"/>
</linearGradient>
<linearGradient id="paint35_linear" x1="123.467" y1="19.7293" x2="92.3618" y2="88.1542" gradientUnits="userSpaceOnUse">
<stop stop-color="#FDF53F"/>
<stop offset="1" stop-color="#D93C65"/>
</linearGradient>
<linearGradient id="paint36_linear" x1="122.513" y1="21.6912" x2="106.527" y2="61.775" gradientUnits="userSpaceOnUse">
<stop stop-color="#FDF53F"/>
<stop offset="1" stop-color="#D93C65"/>
</linearGradient>
</defs>
</svg>
